<mxfile host="app.diagrams.net" modified="2024-04-09T07:00:22.137Z" agent="Mozilla/5.0 (Macintosh; Intel Mac OS X 10_15_7) AppleWebKit/537.36 (KHTML, like Gecko) Chrome/92.0.4515.159 Safari/537.36" etag="Uy4VXa2wvC-moAm04ZRp" version="24.2.3" type="github">
  <diagram name="第 1 页" id="tKsAgitf-gTQIivyz0N1">
    <mxGraphModel dx="5439" dy="724" grid="1" gridSize="10" guides="1" tooltips="1" connect="1" arrows="1" fold="1" page="1" pageScale="1" pageWidth="827" pageHeight="1169" math="0" shadow="0">
      <root>
        <mxCell id="0" />
        <mxCell id="1" parent="0" />
        <mxCell id="YPNKjpNMcO8js8Rz8w9M-108" value="Actor" style="shape=umlActor;verticalLabelPosition=bottom;verticalAlign=top;html=1;outlineConnect=0;" vertex="1" parent="1">
          <mxGeometry x="-3560" y="381" width="30" height="53" as="geometry" />
        </mxCell>
        <mxCell id="YPNKjpNMcO8js8Rz8w9M-109" value="JRDyEngineManager" style="shape=umlLifeline;perimeter=lifelinePerimeter;whiteSpace=wrap;html=1;container=1;collapsible=0;recursiveResize=0;outlineConnect=0;" vertex="1" parent="1">
          <mxGeometry x="-2760" y="270" width="140" height="1140" as="geometry" />
        </mxCell>
        <mxCell id="YPNKjpNMcO8js8Rz8w9M-110" value="" style="html=1;points=[];perimeter=orthogonalPerimeter;" vertex="1" parent="YPNKjpNMcO8js8Rz8w9M-109">
          <mxGeometry x="70" y="75" width="10" height="175" as="geometry" />
        </mxCell>
        <mxCell id="YPNKjpNMcO8js8Rz8w9M-372" value="checkUpdater" style="edgeStyle=orthogonalEdgeStyle;html=1;align=left;spacingLeft=2;endArrow=block;rounded=0;entryX=1.1;entryY=0.665;exitX=1.191;exitY=0.338;exitDx=0;exitDy=0;exitPerimeter=0;entryDx=0;entryDy=0;entryPerimeter=0;" edge="1" parent="YPNKjpNMcO8js8Rz8w9M-109" source="YPNKjpNMcO8js8Rz8w9M-110" target="YPNKjpNMcO8js8Rz8w9M-110">
          <mxGeometry x="0.0013" relative="1" as="geometry">
            <mxPoint x="110" y="136.86500000000012" as="sourcePoint" />
            <Array as="points">
              <mxPoint x="110" y="134" />
              <mxPoint x="110" y="138" />
              <mxPoint x="160" y="138" />
              <mxPoint x="160" y="190" />
              <mxPoint x="132" y="190" />
              <mxPoint x="132" y="191" />
            </Array>
            <mxPoint x="131.73000000000002" y="255.14" as="targetPoint" />
            <mxPoint as="offset" />
          </mxGeometry>
        </mxCell>
        <mxCell id="YPNKjpNMcO8js8Rz8w9M-111" value="JSLoader" style="shape=umlLifeline;perimeter=lifelinePerimeter;whiteSpace=wrap;html=1;container=1;collapsible=0;recursiveResize=0;outlineConnect=0;" vertex="1" parent="1">
          <mxGeometry x="-2560" y="268" width="202.39" height="2062" as="geometry" />
        </mxCell>
        <mxCell id="YPNKjpNMcO8js8Rz8w9M-112" value="" style="html=1;points=[];perimeter=orthogonalPerimeter;" vertex="1" parent="YPNKjpNMcO8js8Rz8w9M-111">
          <mxGeometry x="96.19" y="100" width="10" height="60" as="geometry" />
        </mxCell>
        <mxCell id="YPNKjpNMcO8js8Rz8w9M-113" value="" style="html=1;points=[];perimeter=orthogonalPerimeter;" vertex="1" parent="YPNKjpNMcO8js8Rz8w9M-111">
          <mxGeometry x="70" y="1262" width="10" height="278" as="geometry" />
        </mxCell>
        <mxCell id="YPNKjpNMcO8js8Rz8w9M-114" value="" style="html=1;points=[];perimeter=orthogonalPerimeter;" vertex="1" parent="YPNKjpNMcO8js8Rz8w9M-111">
          <mxGeometry x="70" y="1622" width="10" height="268" as="geometry" />
        </mxCell>
        <mxCell id="YPNKjpNMcO8js8Rz8w9M-115" value="loadJsData" style="edgeStyle=orthogonalEdgeStyle;html=1;align=left;spacingLeft=2;endArrow=block;rounded=0;entryX=1;entryY=0;exitX=1;exitY=0.413;exitDx=0;exitDy=0;exitPerimeter=0;" edge="1" parent="YPNKjpNMcO8js8Rz8w9M-111" source="YPNKjpNMcO8js8Rz8w9M-116" target="YPNKjpNMcO8js8Rz8w9M-114">
          <mxGeometry relative="1" as="geometry">
            <mxPoint x="75" y="1602" as="sourcePoint" />
            <Array as="points">
              <mxPoint x="89" y="1432" />
              <mxPoint x="160" y="1432" />
              <mxPoint x="160" y="1622" />
            </Array>
          </mxGeometry>
        </mxCell>
        <mxCell id="YPNKjpNMcO8js8Rz8w9M-116" value="" style="html=1;points=[];perimeter=orthogonalPerimeter;" vertex="1" parent="YPNKjpNMcO8js8Rz8w9M-111">
          <mxGeometry x="79" y="1402" width="10" height="80" as="geometry" />
        </mxCell>
        <mxCell id="YPNKjpNMcO8js8Rz8w9M-117" value="" style="html=1;points=[];perimeter=orthogonalPerimeter;" vertex="1" parent="YPNKjpNMcO8js8Rz8w9M-111">
          <mxGeometry x="79" y="1702" width="10" height="40" as="geometry" />
        </mxCell>
        <mxCell id="YPNKjpNMcO8js8Rz8w9M-118" value="jueLoadData" style="edgeStyle=orthogonalEdgeStyle;html=1;align=left;spacingLeft=2;endArrow=block;rounded=0;entryX=1;entryY=0;" edge="1" parent="YPNKjpNMcO8js8Rz8w9M-111" target="YPNKjpNMcO8js8Rz8w9M-117">
          <mxGeometry relative="1" as="geometry">
            <mxPoint x="75" y="1650" as="sourcePoint" />
            <Array as="points">
              <mxPoint x="75" y="1650" />
              <mxPoint x="160" y="1650" />
              <mxPoint x="160" y="1702" />
            </Array>
          </mxGeometry>
        </mxCell>
        <mxCell id="YPNKjpNMcO8js8Rz8w9M-119" value="JRDyUpdater" style="shape=umlLifeline;perimeter=lifelinePerimeter;whiteSpace=wrap;html=1;container=1;collapsible=0;recursiveResize=0;outlineConnect=0;" vertex="1" parent="1">
          <mxGeometry x="-2310" y="250" width="140" height="2278" as="geometry" />
        </mxCell>
        <mxCell id="YPNKjpNMcO8js8Rz8w9M-377" value="" style="html=1;points=[];perimeter=orthogonalPerimeter;" vertex="1" parent="YPNKjpNMcO8js8Rz8w9M-119">
          <mxGeometry x="65" y="95" width="10" height="169" as="geometry" />
        </mxCell>
        <mxCell id="YPNKjpNMcO8js8Rz8w9M-122" value="JRDyPageInstance" style="shape=umlLifeline;perimeter=lifelinePerimeter;whiteSpace=wrap;html=1;container=1;collapsible=0;recursiveResize=0;outlineConnect=0;" vertex="1" parent="1">
          <mxGeometry x="-2090" y="268" width="210" height="3034" as="geometry" />
        </mxCell>
        <mxCell id="YPNKjpNMcO8js8Rz8w9M-131" value="" style="html=1;points=[];perimeter=orthogonalPerimeter;" vertex="1" parent="YPNKjpNMcO8js8Rz8w9M-122">
          <mxGeometry x="108" y="1214" width="10" height="416" as="geometry" />
        </mxCell>
        <mxCell id="YPNKjpNMcO8js8Rz8w9M-133" value="启动金融" style="html=1;verticalAlign=bottom;startArrow=oval;endArrow=block;startSize=8;rounded=0;exitX=1;exitY=0.3333333333333333;exitDx=0;exitDy=0;exitPerimeter=0;entryX=0;entryY=0.5;entryDx=0;entryDy=0;" edge="1" parent="1" source="YPNKjpNMcO8js8Rz8w9M-108" target="YPNKjpNMcO8js8Rz8w9M-368">
          <mxGeometry relative="1" as="geometry">
            <mxPoint x="-3020" y="381" as="sourcePoint" />
            <mxPoint x="-3300" y="526" as="targetPoint" />
          </mxGeometry>
        </mxCell>
        <mxCell id="YPNKjpNMcO8js8Rz8w9M-135" value="" style="html=1;verticalAlign=bottom;endArrow=block;rounded=0;" edge="1" parent="1" target="YPNKjpNMcO8js8Rz8w9M-119">
          <mxGeometry relative="1" as="geometry">
            <mxPoint x="-2600" y="450" as="sourcePoint" />
            <mxPoint x="-2310" y="400" as="targetPoint" />
          </mxGeometry>
        </mxCell>
        <mxCell id="YPNKjpNMcO8js8Rz8w9M-378" value="requestRemoteUpdaterNew" style="edgeLabel;html=1;align=center;verticalAlign=middle;resizable=0;points=[];" vertex="1" connectable="0" parent="YPNKjpNMcO8js8Rz8w9M-135">
          <mxGeometry x="0.0307" y="2" relative="1" as="geometry">
            <mxPoint as="offset" />
          </mxGeometry>
        </mxCell>
        <mxCell id="YPNKjpNMcO8js8Rz8w9M-138" value="JSDownloadManager" style="shape=umlLifeline;perimeter=lifelinePerimeter;whiteSpace=wrap;html=1;container=1;collapsible=0;recursiveResize=0;outlineConnect=0;" vertex="1" parent="1">
          <mxGeometry x="-1940" y="262" width="210" height="2868" as="geometry" />
        </mxCell>
        <mxCell id="YPNKjpNMcO8js8Rz8w9M-143" value="" style="html=1;points=[];perimeter=orthogonalPerimeter;" vertex="1" parent="YPNKjpNMcO8js8Rz8w9M-138">
          <mxGeometry x="100" y="1768" width="10" height="80" as="geometry" />
        </mxCell>
        <mxCell id="YPNKjpNMcO8js8Rz8w9M-145" value="JRDyEngineManager" style="shape=umlLifeline;perimeter=lifelinePerimeter;whiteSpace=wrap;html=1;container=1;collapsible=0;recursiveResize=0;outlineConnect=0;" vertex="1" parent="1">
          <mxGeometry x="-1680" y="262" width="140" height="1728" as="geometry" />
        </mxCell>
        <mxCell id="YPNKjpNMcO8js8Rz8w9M-151" value="" style="html=1;points=[];perimeter=orthogonalPerimeter;" vertex="1" parent="YPNKjpNMcO8js8Rz8w9M-145">
          <mxGeometry x="69" y="1288" width="10" height="62" as="geometry" />
        </mxCell>
        <mxCell id="YPNKjpNMcO8js8Rz8w9M-152" value="" style="html=1;points=[];perimeter=orthogonalPerimeter;" vertex="1" parent="YPNKjpNMcO8js8Rz8w9M-145">
          <mxGeometry x="69" y="1358" width="10" height="62" as="geometry" />
        </mxCell>
        <mxCell id="YPNKjpNMcO8js8Rz8w9M-153" value="" style="html=1;verticalAlign=bottom;endArrow=block;entryX=0.5;entryY=0.101;rounded=0;entryDx=0;entryDy=0;entryPerimeter=0;exitX=1.1;exitY=0.255;exitDx=0;exitDy=0;exitPerimeter=0;" edge="1" parent="YPNKjpNMcO8js8Rz8w9M-145" target="YPNKjpNMcO8js8Rz8w9M-152">
          <mxGeometry relative="1" as="geometry">
            <mxPoint x="-800" y="1358.8899999999999" as="sourcePoint" />
          </mxGeometry>
        </mxCell>
        <mxCell id="YPNKjpNMcO8js8Rz8w9M-154" value="loadJsFile" style="edgeLabel;html=1;align=center;verticalAlign=middle;resizable=0;points=[];" vertex="1" connectable="0" parent="YPNKjpNMcO8js8Rz8w9M-153">
          <mxGeometry x="0.1222" y="-1" relative="1" as="geometry">
            <mxPoint as="offset" />
          </mxGeometry>
        </mxCell>
        <mxCell id="YPNKjpNMcO8js8Rz8w9M-161" value="loadJsFile" style="html=1;verticalAlign=bottom;endArrow=block;entryX=0;entryY=0;rounded=0;" edge="1" parent="1" source="YPNKjpNMcO8js8Rz8w9M-131" target="YPNKjpNMcO8js8Rz8w9M-113">
          <mxGeometry relative="1" as="geometry">
            <mxPoint x="-2220" y="1540" as="sourcePoint" />
          </mxGeometry>
        </mxCell>
        <mxCell id="YPNKjpNMcO8js8Rz8w9M-162" value="" style="html=1;verticalAlign=bottom;endArrow=block;rounded=0;exitX=1.1;exitY=0.255;exitDx=0;exitDy=0;exitPerimeter=0;" edge="1" parent="1">
          <mxGeometry relative="1" as="geometry">
            <mxPoint x="-2480" y="1550.8899999999999" as="sourcePoint" />
            <mxPoint x="-1611.5" y="1550.8899999999999" as="targetPoint" />
          </mxGeometry>
        </mxCell>
        <mxCell id="YPNKjpNMcO8js8Rz8w9M-163" value="findJsPathByName" style="edgeLabel;html=1;align=center;verticalAlign=middle;resizable=0;points=[];" vertex="1" connectable="0" parent="YPNKjpNMcO8js8Rz8w9M-162">
          <mxGeometry x="0.1222" y="-1" relative="1" as="geometry">
            <mxPoint as="offset" />
          </mxGeometry>
        </mxCell>
        <mxCell id="YPNKjpNMcO8js8Rz8w9M-164" value="jsFileInfo" style="html=1;verticalAlign=bottom;endArrow=open;endSize=8;exitX=0;exitY=0.95;rounded=0;" edge="1" parent="1" source="YPNKjpNMcO8js8Rz8w9M-151">
          <mxGeometry relative="1" as="geometry">
            <mxPoint x="-2481" y="1608.9" as="targetPoint" />
          </mxGeometry>
        </mxCell>
        <mxCell id="YPNKjpNMcO8js8Rz8w9M-165" value="onInitFinish" style="html=1;verticalAlign=bottom;endArrow=open;dashed=1;endSize=8;exitX=0;exitY=0.95;rounded=0;" edge="1" parent="1" source="YPNKjpNMcO8js8Rz8w9M-152" target="YPNKjpNMcO8js8Rz8w9M-116">
          <mxGeometry relative="1" as="geometry">
            <mxPoint x="-2481" y="1678.9" as="targetPoint" />
          </mxGeometry>
        </mxCell>
        <mxCell id="YPNKjpNMcO8js8Rz8w9M-166" value="startDownloadData" style="html=1;verticalAlign=bottom;endArrow=block;entryX=0;entryY=0;rounded=0;exitX=1.1;exitY=0.582;exitDx=0;exitDy=0;exitPerimeter=0;" edge="1" parent="1" source="YPNKjpNMcO8js8Rz8w9M-114" target="YPNKjpNMcO8js8Rz8w9M-143">
          <mxGeometry relative="1" as="geometry">
            <mxPoint x="-2138" y="2112.04" as="sourcePoint" />
          </mxGeometry>
        </mxCell>
        <mxCell id="YPNKjpNMcO8js8Rz8w9M-167" value="return" style="html=1;verticalAlign=bottom;endArrow=open;dashed=1;endSize=8;exitX=0;exitY=0.95;rounded=0;entryX=1.5;entryY=0.802;entryDx=0;entryDy=0;entryPerimeter=0;" edge="1" parent="1" source="YPNKjpNMcO8js8Rz8w9M-143" target="YPNKjpNMcO8js8Rz8w9M-114">
          <mxGeometry relative="1" as="geometry">
            <mxPoint x="-2135" y="2151.972" as="targetPoint" />
          </mxGeometry>
        </mxCell>
        <mxCell id="YPNKjpNMcO8js8Rz8w9M-168" value="return" style="html=1;verticalAlign=bottom;endArrow=open;dashed=1;endSize=8;rounded=0;exitX=0.9;exitY=0.953;exitDx=0;exitDy=0;exitPerimeter=0;entryX=0.1;entryY=0.774;entryDx=0;entryDy=0;entryPerimeter=0;" edge="1" parent="1" source="YPNKjpNMcO8js8Rz8w9M-113" target="YPNKjpNMcO8js8Rz8w9M-131">
          <mxGeometry relative="1" as="geometry">
            <mxPoint x="-2100" y="1750" as="sourcePoint" />
            <mxPoint x="-2180" y="1750" as="targetPoint" />
          </mxGeometry>
        </mxCell>
        <mxCell id="YPNKjpNMcO8js8Rz8w9M-169" value="JsDomNodeTreeInfo" style="shape=umlLifeline;perimeter=lifelinePerimeter;whiteSpace=wrap;html=1;container=1;collapsible=0;recursiveResize=0;outlineConnect=0;" vertex="1" parent="1">
          <mxGeometry x="-3010" y="5680" width="140" height="1140" as="geometry" />
        </mxCell>
        <mxCell id="YPNKjpNMcO8js8Rz8w9M-170" value="" style="html=1;points=[];perimeter=orthogonalPerimeter;" vertex="1" parent="YPNKjpNMcO8js8Rz8w9M-169">
          <mxGeometry x="70" y="75" width="10" height="175" as="geometry" />
        </mxCell>
        <mxCell id="YPNKjpNMcO8js8Rz8w9M-171" value="DomTreeParserImpl" style="shape=umlLifeline;perimeter=lifelinePerimeter;whiteSpace=wrap;html=1;container=1;collapsible=0;recursiveResize=0;outlineConnect=0;" vertex="1" parent="1">
          <mxGeometry x="-2830" y="5680" width="140" height="1210" as="geometry" />
        </mxCell>
        <mxCell id="YPNKjpNMcO8js8Rz8w9M-172" value="" style="html=1;points=[];perimeter=orthogonalPerimeter;" vertex="1" parent="YPNKjpNMcO8js8Rz8w9M-171">
          <mxGeometry x="70" y="100" width="10" height="1110" as="geometry" />
        </mxCell>
        <mxCell id="YPNKjpNMcO8js8Rz8w9M-173" value="" style="endArrow=classic;html=1;rounded=0;fontSize=12;fontColor=#000000;" edge="1" parent="YPNKjpNMcO8js8Rz8w9M-171" target="YPNKjpNMcO8js8Rz8w9M-172">
          <mxGeometry width="50" height="50" relative="1" as="geometry">
            <mxPoint x="70" y="130" as="sourcePoint" />
            <mxPoint x="220" y="230" as="targetPoint" />
            <Array as="points">
              <mxPoint x="180" y="133" />
              <mxPoint x="180" y="190" />
            </Array>
          </mxGeometry>
        </mxCell>
        <mxCell id="YPNKjpNMcO8js8Rz8w9M-174" value="parseDom" style="edgeLabel;html=1;align=center;verticalAlign=middle;resizable=0;points=[];fontSize=12;fontColor=#000000;" vertex="1" connectable="0" parent="YPNKjpNMcO8js8Rz8w9M-173">
          <mxGeometry x="-0.6508" y="2" relative="1" as="geometry">
            <mxPoint as="offset" />
          </mxGeometry>
        </mxCell>
        <mxCell id="YPNKjpNMcO8js8Rz8w9M-175" value="&lt;font color=&quot;#ff1808&quot; style=&quot;font-size: 24px;&quot;&gt;动态化新增节点&lt;/font&gt;" style="text;html=1;strokeColor=#82b366;fillColor=#d5e8d4;align=center;verticalAlign=middle;whiteSpace=wrap;rounded=0;" vertex="1" parent="1">
          <mxGeometry x="-3270" y="5570" width="270" height="50" as="geometry" />
        </mxCell>
        <mxCell id="YPNKjpNMcO8js8Rz8w9M-176" value="" style="endArrow=classic;html=1;rounded=0;fontSize=24;fontColor=#FF1808;entryX=-0.3;entryY=0.006;entryDx=0;entryDy=0;entryPerimeter=0;" edge="1" parent="1" target="YPNKjpNMcO8js8Rz8w9M-170">
          <mxGeometry width="50" height="50" relative="1" as="geometry">
            <mxPoint x="-3150" y="5756" as="sourcePoint" />
            <mxPoint x="-2660" y="5740" as="targetPoint" />
          </mxGeometry>
        </mxCell>
        <mxCell id="YPNKjpNMcO8js8Rz8w9M-177" value="&lt;font style=&quot;font-size: 12px;&quot; color=&quot;#000000&quot;&gt;addDom&lt;/font&gt;" style="edgeLabel;html=1;align=center;verticalAlign=middle;resizable=0;points=[];fontSize=24;fontColor=#FF1808;" vertex="1" connectable="0" parent="YPNKjpNMcO8js8Rz8w9M-176">
          <mxGeometry x="-0.2174" y="1" relative="1" as="geometry">
            <mxPoint as="offset" />
          </mxGeometry>
        </mxCell>
        <mxCell id="YPNKjpNMcO8js8Rz8w9M-178" value="引擎" style="ellipse;shape=cloud;whiteSpace=wrap;html=1;fontSize=24;fontColor=#FF1808;" vertex="1" parent="1">
          <mxGeometry x="-3280" y="5710" width="120" height="80" as="geometry" />
        </mxCell>
        <mxCell id="YPNKjpNMcO8js8Rz8w9M-179" value="" style="endArrow=classic;html=1;rounded=0;fontSize=12;fontColor=#000000;exitX=1.3;exitY=0.16;exitDx=0;exitDy=0;exitPerimeter=0;" edge="1" parent="1" source="YPNKjpNMcO8js8Rz8w9M-170" target="YPNKjpNMcO8js8Rz8w9M-171">
          <mxGeometry width="50" height="50" relative="1" as="geometry">
            <mxPoint x="-2710" y="5790" as="sourcePoint" />
            <mxPoint x="-2660" y="5740" as="targetPoint" />
          </mxGeometry>
        </mxCell>
        <mxCell id="YPNKjpNMcO8js8Rz8w9M-180" value="createDom" style="edgeLabel;html=1;align=center;verticalAlign=middle;resizable=0;points=[];fontSize=12;fontColor=#000000;" vertex="1" connectable="0" parent="YPNKjpNMcO8js8Rz8w9M-179">
          <mxGeometry x="-0.027" y="3" relative="1" as="geometry">
            <mxPoint as="offset" />
          </mxGeometry>
        </mxCell>
        <mxCell id="YPNKjpNMcO8js8Rz8w9M-181" value="ParseUtil" style="shape=umlLifeline;perimeter=lifelinePerimeter;whiteSpace=wrap;html=1;container=1;collapsible=0;recursiveResize=0;outlineConnect=0;" vertex="1" parent="1">
          <mxGeometry x="-2594" y="5680" width="140" height="1140" as="geometry" />
        </mxCell>
        <mxCell id="YPNKjpNMcO8js8Rz8w9M-182" value="" style="html=1;points=[];perimeter=orthogonalPerimeter;" vertex="1" parent="YPNKjpNMcO8js8Rz8w9M-181">
          <mxGeometry x="65" y="210" width="10" height="150" as="geometry" />
        </mxCell>
        <mxCell id="YPNKjpNMcO8js8Rz8w9M-183" value="" style="endArrow=classic;html=1;rounded=0;fontSize=12;fontColor=#000000;exitX=1.3;exitY=0.16;exitDx=0;exitDy=0;exitPerimeter=0;" edge="1" parent="1" target="YPNKjpNMcO8js8Rz8w9M-181">
          <mxGeometry width="50" height="50" relative="1" as="geometry">
            <mxPoint x="-2750" y="5910" as="sourcePoint" />
            <mxPoint x="-2583.5" y="5910" as="targetPoint" />
          </mxGeometry>
        </mxCell>
        <mxCell id="YPNKjpNMcO8js8Rz8w9M-184" value="parserDomNode" style="edgeLabel;html=1;align=center;verticalAlign=middle;resizable=0;points=[];fontSize=12;fontColor=#000000;" vertex="1" connectable="0" parent="YPNKjpNMcO8js8Rz8w9M-183">
          <mxGeometry x="-0.027" y="3" relative="1" as="geometry">
            <mxPoint as="offset" />
          </mxGeometry>
        </mxCell>
        <mxCell id="YPNKjpNMcO8js8Rz8w9M-185" value="XXXDomNode" style="shape=umlLifeline;perimeter=lifelinePerimeter;whiteSpace=wrap;html=1;container=1;collapsible=0;recursiveResize=0;outlineConnect=0;" vertex="1" parent="1">
          <mxGeometry x="-1406.95" y="5670" width="140" height="1140" as="geometry" />
        </mxCell>
        <mxCell id="YPNKjpNMcO8js8Rz8w9M-186" value="" style="html=1;points=[];perimeter=orthogonalPerimeter;" vertex="1" parent="YPNKjpNMcO8js8Rz8w9M-185">
          <mxGeometry x="65" y="210" width="10" height="150" as="geometry" />
        </mxCell>
        <mxCell id="YPNKjpNMcO8js8Rz8w9M-187" value="" style="endArrow=classic;html=1;rounded=0;fontSize=12;fontColor=#000000;exitX=1;exitY=0.5;exitDx=0;exitDy=0;" edge="1" parent="YPNKjpNMcO8js8Rz8w9M-185" source="YPNKjpNMcO8js8Rz8w9M-236">
          <mxGeometry width="50" height="50" relative="1" as="geometry">
            <mxPoint x="-100" y="240" as="sourcePoint" />
            <mxPoint x="70" y="240" as="targetPoint" />
          </mxGeometry>
        </mxCell>
        <mxCell id="YPNKjpNMcO8js8Rz8w9M-188" value="通过构造方法new 相应的节点，&lt;br&gt;如 JRRecycleListDomNode" style="edgeLabel;html=1;align=center;verticalAlign=middle;resizable=0;points=[];fontSize=12;fontColor=#000000;" vertex="1" connectable="0" parent="YPNKjpNMcO8js8Rz8w9M-187">
          <mxGeometry x="-0.027" y="3" relative="1" as="geometry">
            <mxPoint as="offset" />
          </mxGeometry>
        </mxCell>
        <mxCell id="YPNKjpNMcO8js8Rz8w9M-189" value="否" style="edgeLabel;html=1;align=center;verticalAlign=middle;resizable=0;points=[];fontSize=12;fontColor=#000000;" vertex="1" connectable="0" parent="YPNKjpNMcO8js8Rz8w9M-187">
          <mxGeometry x="-0.5858" y="3" relative="1" as="geometry">
            <mxPoint as="offset" />
          </mxGeometry>
        </mxCell>
        <mxCell id="YPNKjpNMcO8js8Rz8w9M-190" value="" style="endArrow=classic;html=1;rounded=0;fontSize=12;fontColor=#000000;exitX=0;exitY=0.347;exitDx=0;exitDy=0;exitPerimeter=0;" edge="1" parent="1" source="YPNKjpNMcO8js8Rz8w9M-186" target="YPNKjpNMcO8js8Rz8w9M-172">
          <mxGeometry width="50" height="50" relative="1" as="geometry">
            <mxPoint x="-2710" y="5960" as="sourcePoint" />
            <mxPoint x="-2660" y="5910" as="targetPoint" />
          </mxGeometry>
        </mxCell>
        <mxCell id="YPNKjpNMcO8js8Rz8w9M-191" value="JRDomGroupNode" style="shape=umlLifeline;perimeter=lifelinePerimeter;whiteSpace=wrap;html=1;container=1;collapsible=0;recursiveResize=0;outlineConnect=0;" vertex="1" parent="1">
          <mxGeometry x="-1186.95" y="5670" width="140" height="1140" as="geometry" />
        </mxCell>
        <mxCell id="YPNKjpNMcO8js8Rz8w9M-192" value="" style="html=1;points=[];perimeter=orthogonalPerimeter;" vertex="1" parent="YPNKjpNMcO8js8Rz8w9M-191">
          <mxGeometry x="65" y="150" width="10" height="270" as="geometry" />
        </mxCell>
        <mxCell id="YPNKjpNMcO8js8Rz8w9M-193" value="" style="endArrow=classic;html=1;rounded=0;fontSize=12;fontColor=#000000;exitX=0;exitY=0.197;exitDx=0;exitDy=0;exitPerimeter=0;" edge="1" parent="1" source="YPNKjpNMcO8js8Rz8w9M-172" target="YPNKjpNMcO8js8Rz8w9M-191">
          <mxGeometry width="50" height="50" relative="1" as="geometry">
            <mxPoint x="-2670" y="6030" as="sourcePoint" />
            <mxPoint x="-2620" y="5980" as="targetPoint" />
          </mxGeometry>
        </mxCell>
        <mxCell id="YPNKjpNMcO8js8Rz8w9M-194" value="调用父节点的addDom，将当前节点添加到父节点下" style="edgeLabel;html=1;align=center;verticalAlign=middle;resizable=0;points=[];fontSize=12;fontColor=#000000;" vertex="1" connectable="0" parent="YPNKjpNMcO8js8Rz8w9M-193">
          <mxGeometry x="-0.5512" y="4" relative="1" as="geometry">
            <mxPoint x="37" y="-2" as="offset" />
          </mxGeometry>
        </mxCell>
        <mxCell id="YPNKjpNMcO8js8Rz8w9M-195" value="" style="endArrow=classic;html=1;rounded=0;fontSize=12;fontColor=#000000;exitX=-0.2;exitY=0.887;exitDx=0;exitDy=0;exitPerimeter=0;entryX=1;entryY=0.274;entryDx=0;entryDy=0;entryPerimeter=0;" edge="1" parent="1" source="YPNKjpNMcO8js8Rz8w9M-192" target="YPNKjpNMcO8js8Rz8w9M-172">
          <mxGeometry width="50" height="50" relative="1" as="geometry">
            <mxPoint x="-2630" y="6000" as="sourcePoint" />
            <mxPoint x="-2580" y="5950" as="targetPoint" />
          </mxGeometry>
        </mxCell>
        <mxCell id="YPNKjpNMcO8js8Rz8w9M-196" value="" style="endArrow=classic;html=1;rounded=0;fontSize=12;fontColor=#000000;" edge="1" parent="1">
          <mxGeometry width="50" height="50" relative="1" as="geometry">
            <mxPoint x="-2749.75" y="6257.5" as="sourcePoint" />
            <mxPoint x="-2760.25" y="6317.5" as="targetPoint" />
            <Array as="points">
              <mxPoint x="-2579.75" y="6257.5" />
              <mxPoint x="-2579.75" y="6317.5" />
            </Array>
          </mxGeometry>
        </mxCell>
        <mxCell id="YPNKjpNMcO8js8Rz8w9M-197" value="setVisibleExposure&lt;br&gt;，给节点对应的view绑定上&lt;br&gt;埋点、曝光数据" style="edgeLabel;html=1;align=center;verticalAlign=middle;resizable=0;points=[];fontSize=12;fontColor=#000000;" vertex="1" connectable="0" parent="YPNKjpNMcO8js8Rz8w9M-196">
          <mxGeometry x="-0.6508" y="2" relative="1" as="geometry">
            <mxPoint x="22" y="-3" as="offset" />
          </mxGeometry>
        </mxCell>
        <mxCell id="YPNKjpNMcO8js8Rz8w9M-198" value="JRTabViewDomNode" style="shape=umlLifeline;perimeter=lifelinePerimeter;whiteSpace=wrap;html=1;container=1;collapsible=0;recursiveResize=0;outlineConnect=0;" vertex="1" parent="1">
          <mxGeometry x="-410" y="5670" width="140" height="1140" as="geometry" />
        </mxCell>
        <mxCell id="YPNKjpNMcO8js8Rz8w9M-199" value="" style="html=1;points=[];perimeter=orthogonalPerimeter;" vertex="1" parent="YPNKjpNMcO8js8Rz8w9M-198">
          <mxGeometry x="65" y="270" width="10" height="150" as="geometry" />
        </mxCell>
        <mxCell id="YPNKjpNMcO8js8Rz8w9M-200" value="" style="endArrow=classic;html=1;rounded=0;fontSize=12;fontColor=#000000;exitX=1.095;exitY=0.711;exitDx=0;exitDy=0;exitPerimeter=0;" edge="1" parent="1" source="YPNKjpNMcO8js8Rz8w9M-192" target="YPNKjpNMcO8js8Rz8w9M-198">
          <mxGeometry width="50" height="50" relative="1" as="geometry">
            <mxPoint x="-1186.95" y="5950" as="sourcePoint" />
            <mxPoint x="-850" y="6010" as="targetPoint" />
          </mxGeometry>
        </mxCell>
        <mxCell id="YPNKjpNMcO8js8Rz8w9M-201" value="如果子节点是JRTabViewDomNode,调用&lt;br&gt;initTabContent" style="edgeLabel;html=1;align=center;verticalAlign=middle;resizable=0;points=[];fontSize=12;fontColor=#000000;" vertex="1" connectable="0" parent="YPNKjpNMcO8js8Rz8w9M-200">
          <mxGeometry x="-0.0657" y="1" relative="1" as="geometry">
            <mxPoint x="241" y="-6" as="offset" />
          </mxGeometry>
        </mxCell>
        <mxCell id="YPNKjpNMcO8js8Rz8w9M-202" value="TabFragmentContent" style="shape=umlLifeline;perimeter=lifelinePerimeter;whiteSpace=wrap;html=1;container=1;collapsible=0;recursiveResize=0;outlineConnect=0;" vertex="1" parent="1">
          <mxGeometry x="-75" y="5670" width="140" height="1140" as="geometry" />
        </mxCell>
        <mxCell id="YPNKjpNMcO8js8Rz8w9M-203" value="" style="html=1;points=[];perimeter=orthogonalPerimeter;" vertex="1" parent="YPNKjpNMcO8js8Rz8w9M-202">
          <mxGeometry x="65" y="270" width="10" height="660" as="geometry" />
        </mxCell>
        <mxCell id="YPNKjpNMcO8js8Rz8w9M-204" value="TabContent" style="shape=umlLifeline;perimeter=lifelinePerimeter;whiteSpace=wrap;html=1;container=1;collapsible=0;recursiveResize=0;outlineConnect=0;" vertex="1" parent="1">
          <mxGeometry x="185" y="5670" width="140" height="1140" as="geometry" />
        </mxCell>
        <mxCell id="YPNKjpNMcO8js8Rz8w9M-205" value="" style="html=1;points=[];perimeter=orthogonalPerimeter;" vertex="1" parent="YPNKjpNMcO8js8Rz8w9M-204">
          <mxGeometry x="65" y="270" width="10" height="400" as="geometry" />
        </mxCell>
        <mxCell id="YPNKjpNMcO8js8Rz8w9M-206" value="mContext是&lt;br&gt;FragmentActivity" style="rhombus;whiteSpace=wrap;html=1;fontSize=12;fontColor=#000000;" vertex="1" parent="1">
          <mxGeometry x="-289" y="5950" width="130" height="100" as="geometry" />
        </mxCell>
        <mxCell id="YPNKjpNMcO8js8Rz8w9M-207" value="" style="endArrow=classic;html=1;rounded=0;fontSize=12;fontColor=#000000;exitX=1;exitY=0.4;exitDx=0;exitDy=0;exitPerimeter=0;entryX=0;entryY=0.5;entryDx=0;entryDy=0;" edge="1" parent="1" source="YPNKjpNMcO8js8Rz8w9M-199" target="YPNKjpNMcO8js8Rz8w9M-206">
          <mxGeometry width="50" height="50" relative="1" as="geometry">
            <mxPoint x="-135" y="5890" as="sourcePoint" />
            <mxPoint x="-85" y="5840" as="targetPoint" />
          </mxGeometry>
        </mxCell>
        <mxCell id="YPNKjpNMcO8js8Rz8w9M-208" value="" style="endArrow=classic;html=1;rounded=0;fontSize=12;fontColor=#000000;exitX=0.5;exitY=0;exitDx=0;exitDy=0;" edge="1" parent="1" source="YPNKjpNMcO8js8Rz8w9M-206" target="YPNKjpNMcO8js8Rz8w9M-202">
          <mxGeometry width="50" height="50" relative="1" as="geometry">
            <mxPoint x="-225" y="5940" as="sourcePoint" />
            <mxPoint x="-85" y="5840" as="targetPoint" />
          </mxGeometry>
        </mxCell>
        <mxCell id="YPNKjpNMcO8js8Rz8w9M-209" value="是&lt;br&gt;new TabFragmentContent" style="edgeLabel;html=1;align=center;verticalAlign=middle;resizable=0;points=[];fontSize=12;fontColor=#000000;" vertex="1" connectable="0" parent="YPNKjpNMcO8js8Rz8w9M-208">
          <mxGeometry x="-0.1304" y="1" relative="1" as="geometry">
            <mxPoint as="offset" />
          </mxGeometry>
        </mxCell>
        <mxCell id="YPNKjpNMcO8js8Rz8w9M-210" value="" style="endArrow=classic;html=1;rounded=0;fontSize=12;fontColor=#000000;exitX=0.5;exitY=1;exitDx=0;exitDy=0;entryX=-0.3;entryY=0.283;entryDx=0;entryDy=0;entryPerimeter=0;" edge="1" parent="1" source="YPNKjpNMcO8js8Rz8w9M-206" target="YPNKjpNMcO8js8Rz8w9M-205">
          <mxGeometry width="50" height="50" relative="1" as="geometry">
            <mxPoint x="-195" y="6070" as="sourcePoint" />
            <mxPoint x="23.5" y="6070" as="targetPoint" />
          </mxGeometry>
        </mxCell>
        <mxCell id="YPNKjpNMcO8js8Rz8w9M-211" value="否&lt;br&gt;new TabContent" style="edgeLabel;html=1;align=center;verticalAlign=middle;resizable=0;points=[];fontSize=12;fontColor=#000000;" vertex="1" connectable="0" parent="YPNKjpNMcO8js8Rz8w9M-210">
          <mxGeometry x="-0.1645" y="3" relative="1" as="geometry">
            <mxPoint as="offset" />
          </mxGeometry>
        </mxCell>
        <mxCell id="YPNKjpNMcO8js8Rz8w9M-212" value="BaseTabContent" style="shape=umlLifeline;perimeter=lifelinePerimeter;whiteSpace=wrap;html=1;container=1;collapsible=0;recursiveResize=0;outlineConnect=0;" vertex="1" parent="1">
          <mxGeometry x="405" y="5670" width="140" height="1140" as="geometry" />
        </mxCell>
        <mxCell id="YPNKjpNMcO8js8Rz8w9M-213" value="" style="html=1;points=[];perimeter=orthogonalPerimeter;" vertex="1" parent="YPNKjpNMcO8js8Rz8w9M-212">
          <mxGeometry x="65" y="270" width="10" height="150" as="geometry" />
        </mxCell>
        <mxCell id="YPNKjpNMcO8js8Rz8w9M-214" value="" style="endArrow=classic;html=1;rounded=0;fontSize=12;fontColor=#000000;exitX=1.1;exitY=0.023;exitDx=0;exitDy=0;exitPerimeter=0;" edge="1" parent="1" source="YPNKjpNMcO8js8Rz8w9M-203" target="YPNKjpNMcO8js8Rz8w9M-212">
          <mxGeometry width="50" height="50" relative="1" as="geometry">
            <mxPoint x="165" y="6000" as="sourcePoint" />
            <mxPoint x="215" y="5950" as="targetPoint" />
          </mxGeometry>
        </mxCell>
        <mxCell id="YPNKjpNMcO8js8Rz8w9M-215" value="new BaseTabContent" style="edgeLabel;html=1;align=center;verticalAlign=middle;resizable=0;points=[];fontSize=12;fontColor=#000000;" vertex="1" connectable="0" parent="YPNKjpNMcO8js8Rz8w9M-214">
          <mxGeometry x="-0.2877" y="3" relative="1" as="geometry">
            <mxPoint as="offset" />
          </mxGeometry>
        </mxCell>
        <mxCell id="YPNKjpNMcO8js8Rz8w9M-216" value="" style="endArrow=classic;html=1;rounded=0;fontSize=12;fontColor=#000000;exitX=1.3;exitY=0.325;exitDx=0;exitDy=0;exitPerimeter=0;entryX=0;entryY=0.113;entryDx=0;entryDy=0;entryPerimeter=0;" edge="1" parent="1" source="YPNKjpNMcO8js8Rz8w9M-205" target="YPNKjpNMcO8js8Rz8w9M-213">
          <mxGeometry width="50" height="50" relative="1" as="geometry">
            <mxPoint x="10" y="5966.95" as="sourcePoint" />
            <mxPoint x="484.5" y="5966.95" as="targetPoint" />
          </mxGeometry>
        </mxCell>
        <mxCell id="YPNKjpNMcO8js8Rz8w9M-217" value="new BaseTabContent" style="edgeLabel;html=1;align=center;verticalAlign=middle;resizable=0;points=[];fontSize=12;fontColor=#000000;" vertex="1" connectable="0" parent="YPNKjpNMcO8js8Rz8w9M-216">
          <mxGeometry x="-0.2877" y="3" relative="1" as="geometry">
            <mxPoint as="offset" />
          </mxGeometry>
        </mxCell>
        <mxCell id="YPNKjpNMcO8js8Rz8w9M-218" value="JRDyViewPager" style="shape=umlLifeline;perimeter=lifelinePerimeter;whiteSpace=wrap;html=1;container=1;collapsible=0;recursiveResize=0;outlineConnect=0;" vertex="1" parent="1">
          <mxGeometry x="635" y="5670" width="140" height="1140" as="geometry" />
        </mxCell>
        <mxCell id="YPNKjpNMcO8js8Rz8w9M-219" value="" style="html=1;points=[];perimeter=orthogonalPerimeter;" vertex="1" parent="YPNKjpNMcO8js8Rz8w9M-218">
          <mxGeometry x="65" y="270" width="10" height="150" as="geometry" />
        </mxCell>
        <mxCell id="YPNKjpNMcO8js8Rz8w9M-220" value="" style="endArrow=classic;html=1;rounded=0;fontSize=12;fontColor=#000000;" edge="1" parent="1" target="YPNKjpNMcO8js8Rz8w9M-218">
          <mxGeometry width="50" height="50" relative="1" as="geometry">
            <mxPoint x="475" y="5960" as="sourcePoint" />
            <mxPoint x="484.5" y="5966.95" as="targetPoint" />
          </mxGeometry>
        </mxCell>
        <mxCell id="YPNKjpNMcO8js8Rz8w9M-221" value="new JRDyViewPager" style="edgeLabel;html=1;align=center;verticalAlign=middle;resizable=0;points=[];fontSize=12;fontColor=#000000;" vertex="1" connectable="0" parent="YPNKjpNMcO8js8Rz8w9M-220">
          <mxGeometry x="-0.2877" y="3" relative="1" as="geometry">
            <mxPoint as="offset" />
          </mxGeometry>
        </mxCell>
        <mxCell id="YPNKjpNMcO8js8Rz8w9M-222" value="" style="endArrow=classic;html=1;rounded=0;fontSize=12;fontColor=#000000;exitX=0.5;exitY=0.2;exitDx=0;exitDy=0;exitPerimeter=0;" edge="1" parent="1" source="YPNKjpNMcO8js8Rz8w9M-219" target="YPNKjpNMcO8js8Rz8w9M-212">
          <mxGeometry width="50" height="50" relative="1" as="geometry">
            <mxPoint x="335" y="5970" as="sourcePoint" />
            <mxPoint x="385" y="5920" as="targetPoint" />
          </mxGeometry>
        </mxCell>
        <mxCell id="YPNKjpNMcO8js8Rz8w9M-223" value="" style="endArrow=classic;html=1;rounded=0;fontSize=12;fontColor=#000000;exitX=0.5;exitY=0.333;exitDx=0;exitDy=0;exitPerimeter=0;" edge="1" parent="1" source="YPNKjpNMcO8js8Rz8w9M-213" target="YPNKjpNMcO8js8Rz8w9M-202">
          <mxGeometry width="50" height="50" relative="1" as="geometry">
            <mxPoint x="335" y="5970" as="sourcePoint" />
            <mxPoint x="385" y="5920" as="targetPoint" />
          </mxGeometry>
        </mxCell>
        <mxCell id="YPNKjpNMcO8js8Rz8w9M-224" value="initAdapter&lt;br&gt;初始化JRDyVIewPager的PagerAdapter" style="edgeLabel;html=1;align=center;verticalAlign=middle;resizable=0;points=[];fontSize=12;fontColor=#000000;" vertex="1" connectable="0" parent="YPNKjpNMcO8js8Rz8w9M-223">
          <mxGeometry x="0.2279" y="-3" relative="1" as="geometry">
            <mxPoint as="offset" />
          </mxGeometry>
        </mxCell>
        <mxCell id="YPNKjpNMcO8js8Rz8w9M-225" value="" style="endArrow=classic;html=1;rounded=0;fontSize=12;fontColor=#000000;exitX=0;exitY=0.34;exitDx=0;exitDy=0;exitPerimeter=0;entryX=1.2;entryY=0.463;entryDx=0;entryDy=0;entryPerimeter=0;" edge="1" parent="1" source="YPNKjpNMcO8js8Rz8w9M-213" target="YPNKjpNMcO8js8Rz8w9M-205">
          <mxGeometry width="50" height="50" relative="1" as="geometry">
            <mxPoint x="335" y="5970" as="sourcePoint" />
            <mxPoint x="385" y="5920" as="targetPoint" />
          </mxGeometry>
        </mxCell>
        <mxCell id="YPNKjpNMcO8js8Rz8w9M-226" value="initAdapter&lt;br&gt;初始化JRDyVIewPager的PagerAdapter" style="edgeLabel;html=1;align=center;verticalAlign=middle;resizable=0;points=[];fontSize=12;fontColor=#000000;" vertex="1" connectable="0" parent="YPNKjpNMcO8js8Rz8w9M-225">
          <mxGeometry x="-0.1842" relative="1" as="geometry">
            <mxPoint as="offset" />
          </mxGeometry>
        </mxCell>
        <mxCell id="YPNKjpNMcO8js8Rz8w9M-227" value="TabFragment" style="shape=umlLifeline;perimeter=lifelinePerimeter;whiteSpace=wrap;html=1;container=1;collapsible=0;recursiveResize=0;outlineConnect=0;" vertex="1" parent="1">
          <mxGeometry x="815" y="5670" width="140" height="1260" as="geometry" />
        </mxCell>
        <mxCell id="YPNKjpNMcO8js8Rz8w9M-228" value="" style="html=1;points=[];perimeter=orthogonalPerimeter;" vertex="1" parent="YPNKjpNMcO8js8Rz8w9M-227">
          <mxGeometry x="65" y="270" width="10" height="990" as="geometry" />
        </mxCell>
        <mxCell id="YPNKjpNMcO8js8Rz8w9M-229" value="" style="endArrow=classic;html=1;rounded=0;fontSize=12;fontColor=#000000;exitX=1.3;exitY=0.117;exitDx=0;exitDy=0;exitPerimeter=0;" edge="1" parent="1" source="YPNKjpNMcO8js8Rz8w9M-203" target="YPNKjpNMcO8js8Rz8w9M-228">
          <mxGeometry width="50" height="50" relative="1" as="geometry">
            <mxPoint x="395" y="5970" as="sourcePoint" />
            <mxPoint x="445" y="5920" as="targetPoint" />
          </mxGeometry>
        </mxCell>
        <mxCell id="YPNKjpNMcO8js8Rz8w9M-230" value="TabFragment.createInstance()" style="edgeLabel;html=1;align=center;verticalAlign=middle;resizable=0;points=[];fontSize=12;fontColor=#000000;" vertex="1" connectable="0" parent="YPNKjpNMcO8js8Rz8w9M-229">
          <mxGeometry x="0.4322" relative="1" as="geometry">
            <mxPoint x="-36" y="-2" as="offset" />
          </mxGeometry>
        </mxCell>
        <mxCell id="YPNKjpNMcO8js8Rz8w9M-231" value="JRDyTabFragment" style="shape=umlLifeline;perimeter=lifelinePerimeter;whiteSpace=wrap;html=1;container=1;collapsible=0;recursiveResize=0;outlineConnect=0;" vertex="1" parent="1">
          <mxGeometry x="1065" y="5670" width="140" height="1260" as="geometry" />
        </mxCell>
        <mxCell id="YPNKjpNMcO8js8Rz8w9M-232" value="" style="html=1;points=[];perimeter=orthogonalPerimeter;" vertex="1" parent="YPNKjpNMcO8js8Rz8w9M-231">
          <mxGeometry x="65" y="270" width="10" height="990" as="geometry" />
        </mxCell>
        <mxCell id="YPNKjpNMcO8js8Rz8w9M-233" value="" style="endArrow=classic;html=1;rounded=0;fontSize=12;fontColor=#000000;exitX=1;exitY=0.086;exitDx=0;exitDy=0;exitPerimeter=0;entryX=-0.3;entryY=0.085;entryDx=0;entryDy=0;entryPerimeter=0;" edge="1" parent="1" source="YPNKjpNMcO8js8Rz8w9M-228" target="YPNKjpNMcO8js8Rz8w9M-232">
          <mxGeometry width="50" height="50" relative="1" as="geometry">
            <mxPoint x="805" y="5930" as="sourcePoint" />
            <mxPoint x="855" y="5880" as="targetPoint" />
          </mxGeometry>
        </mxCell>
        <mxCell id="YPNKjpNMcO8js8Rz8w9M-234" value="JRCustomGroupDomNode" style="shape=umlLifeline;perimeter=lifelinePerimeter;whiteSpace=wrap;html=1;container=1;collapsible=0;recursiveResize=0;outlineConnect=0;" vertex="1" parent="1">
          <mxGeometry x="-1720" y="5670" width="140" height="1140" as="geometry" />
        </mxCell>
        <mxCell id="YPNKjpNMcO8js8Rz8w9M-235" value="" style="html=1;points=[];perimeter=orthogonalPerimeter;" vertex="1" parent="YPNKjpNMcO8js8Rz8w9M-234">
          <mxGeometry x="65" y="100" width="10" height="260" as="geometry" />
        </mxCell>
        <mxCell id="YPNKjpNMcO8js8Rz8w9M-236" value="isCustomNode,&lt;br&gt;是否是自定义的DomNode" style="rhombus;whiteSpace=wrap;html=1;fontSize=12;fontColor=#000000;" vertex="1" parent="1">
          <mxGeometry x="-2400" y="5842" width="160" height="140" as="geometry" />
        </mxCell>
        <mxCell id="YPNKjpNMcO8js8Rz8w9M-237" value="" style="endArrow=classic;html=1;rounded=0;fontSize=12;fontColor=#000000;exitX=1.3;exitY=0.16;exitDx=0;exitDy=0;exitPerimeter=0;entryX=0;entryY=0.5;entryDx=0;entryDy=0;" edge="1" parent="1" source="YPNKjpNMcO8js8Rz8w9M-182" target="YPNKjpNMcO8js8Rz8w9M-236">
          <mxGeometry width="50" height="50" relative="1" as="geometry">
            <mxPoint x="-2160" y="5980" as="sourcePoint" />
            <mxPoint x="-2110" y="5930" as="targetPoint" />
          </mxGeometry>
        </mxCell>
        <mxCell id="YPNKjpNMcO8js8Rz8w9M-238" value="" style="endArrow=classic;html=1;rounded=0;fontSize=12;fontColor=#000000;exitX=0.5;exitY=0;exitDx=0;exitDy=0;" edge="1" parent="1" source="YPNKjpNMcO8js8Rz8w9M-236" target="YPNKjpNMcO8js8Rz8w9M-234">
          <mxGeometry width="50" height="50" relative="1" as="geometry">
            <mxPoint x="-2180" y="5980" as="sourcePoint" />
            <mxPoint x="-2130" y="5930" as="targetPoint" />
          </mxGeometry>
        </mxCell>
        <mxCell id="YPNKjpNMcO8js8Rz8w9M-239" value="new JRCustomGroupDomNode" style="edgeLabel;html=1;align=center;verticalAlign=middle;resizable=0;points=[];fontSize=12;fontColor=#000000;" vertex="1" connectable="0" parent="YPNKjpNMcO8js8Rz8w9M-238">
          <mxGeometry x="-0.1124" y="3" relative="1" as="geometry">
            <mxPoint x="68" as="offset" />
          </mxGeometry>
        </mxCell>
        <mxCell id="YPNKjpNMcO8js8Rz8w9M-240" value="是" style="edgeLabel;html=1;align=center;verticalAlign=middle;resizable=0;points=[];fontSize=12;fontColor=#000000;" vertex="1" connectable="0" parent="YPNKjpNMcO8js8Rz8w9M-238">
          <mxGeometry x="-0.7898" relative="1" as="geometry">
            <mxPoint as="offset" />
          </mxGeometry>
        </mxCell>
        <mxCell id="YPNKjpNMcO8js8Rz8w9M-241" value="" style="endArrow=classic;html=1;rounded=0;fontSize=12;fontColor=#000000;exitX=0.9;exitY=0.296;exitDx=0;exitDy=0;exitPerimeter=0;entryX=-0.205;entryY=0.148;entryDx=0;entryDy=0;entryPerimeter=0;" edge="1" parent="1" source="YPNKjpNMcO8js8Rz8w9M-235" target="YPNKjpNMcO8js8Rz8w9M-192">
          <mxGeometry width="50" height="50" relative="1" as="geometry">
            <mxPoint x="-1510" y="5890" as="sourcePoint" />
            <mxPoint x="-1460" y="5840" as="targetPoint" />
          </mxGeometry>
        </mxCell>
        <mxCell id="YPNKjpNMcO8js8Rz8w9M-242" value="调用父类构造方法" style="edgeLabel;html=1;align=center;verticalAlign=middle;resizable=0;points=[];fontSize=12;fontColor=#000000;" vertex="1" connectable="0" parent="YPNKjpNMcO8js8Rz8w9M-241">
          <mxGeometry x="-0.1944" y="1" relative="1" as="geometry">
            <mxPoint as="offset" />
          </mxGeometry>
        </mxCell>
        <mxCell id="YPNKjpNMcO8js8Rz8w9M-243" value="" style="endArrow=classic;html=1;rounded=0;fontSize=12;fontColor=#000000;exitX=0.895;exitY=0.227;exitDx=0;exitDy=0;exitPerimeter=0;entryX=-0.205;entryY=0.163;entryDx=0;entryDy=0;entryPerimeter=0;" edge="1" parent="1" source="YPNKjpNMcO8js8Rz8w9M-186" target="YPNKjpNMcO8js8Rz8w9M-192">
          <mxGeometry width="50" height="50" relative="1" as="geometry">
            <mxPoint x="-1510" y="5890" as="sourcePoint" />
            <mxPoint x="-1460" y="5840" as="targetPoint" />
          </mxGeometry>
        </mxCell>
        <mxCell id="YPNKjpNMcO8js8Rz8w9M-244" value="调用父类构造方法" style="edgeLabel;html=1;align=center;verticalAlign=middle;resizable=0;points=[];fontSize=12;fontColor=#000000;" vertex="1" connectable="0" parent="YPNKjpNMcO8js8Rz8w9M-243">
          <mxGeometry x="-0.1739" y="1" relative="1" as="geometry">
            <mxPoint as="offset" />
          </mxGeometry>
        </mxCell>
        <mxCell id="YPNKjpNMcO8js8Rz8w9M-245" value="JRDomNode" style="shape=umlLifeline;perimeter=lifelinePerimeter;whiteSpace=wrap;html=1;container=1;collapsible=0;recursiveResize=0;outlineConnect=0;" vertex="1" parent="1">
          <mxGeometry x="-885" y="5670" width="140" height="1140" as="geometry" />
        </mxCell>
        <mxCell id="YPNKjpNMcO8js8Rz8w9M-246" value="" style="html=1;points=[];perimeter=orthogonalPerimeter;" vertex="1" parent="YPNKjpNMcO8js8Rz8w9M-245">
          <mxGeometry x="65" y="150" width="10" height="370" as="geometry" />
        </mxCell>
        <mxCell id="YPNKjpNMcO8js8Rz8w9M-247" value="" style="endArrow=classic;html=1;rounded=0;fontSize=12;fontColor=#000000;exitX=1.4;exitY=0.403;exitDx=0;exitDy=0;exitPerimeter=0;entryX=1;entryY=0.438;entryDx=0;entryDy=0;entryPerimeter=0;" edge="1" parent="YPNKjpNMcO8js8Rz8w9M-245" source="YPNKjpNMcO8js8Rz8w9M-246" target="YPNKjpNMcO8js8Rz8w9M-246">
          <mxGeometry width="50" height="50" relative="1" as="geometry">
            <mxPoint x="75.04999999999995" y="299.1300000000001" as="sourcePoint" />
            <mxPoint x="-226.95000000000005" y="317.97999999999956" as="targetPoint" />
            <Array as="points">
              <mxPoint x="202.04999999999995" y="299" />
              <mxPoint x="202" y="312" />
            </Array>
          </mxGeometry>
        </mxCell>
        <mxCell id="YPNKjpNMcO8js8Rz8w9M-248" value="createDomNode" style="edgeLabel;html=1;align=center;verticalAlign=middle;resizable=0;points=[];fontSize=12;fontColor=#000000;" vertex="1" connectable="0" parent="YPNKjpNMcO8js8Rz8w9M-247">
          <mxGeometry x="-0.63" y="1" relative="1" as="geometry">
            <mxPoint x="15" as="offset" />
          </mxGeometry>
        </mxCell>
        <mxCell id="YPNKjpNMcO8js8Rz8w9M-249" value="" style="endArrow=classic;html=1;rounded=0;fontSize=12;fontColor=#000000;exitX=1.4;exitY=0.403;exitDx=0;exitDy=0;exitPerimeter=0;entryX=1.1;entryY=0.931;entryDx=0;entryDy=0;entryPerimeter=0;" edge="1" parent="YPNKjpNMcO8js8Rz8w9M-245" target="YPNKjpNMcO8js8Rz8w9M-235">
          <mxGeometry width="50" height="50" relative="1" as="geometry">
            <mxPoint x="79" y="323.5799999999999" as="sourcePoint" />
            <mxPoint x="75" y="336.53000000000065" as="targetPoint" />
            <Array as="points">
              <mxPoint x="202.04999999999995" y="323.47000000000025" />
              <mxPoint x="202" y="336.47000000000025" />
            </Array>
          </mxGeometry>
        </mxCell>
        <mxCell id="YPNKjpNMcO8js8Rz8w9M-250" value="updateDomNode" style="edgeLabel;html=1;align=center;verticalAlign=middle;resizable=0;points=[];fontSize=12;fontColor=#000000;" vertex="1" connectable="0" parent="YPNKjpNMcO8js8Rz8w9M-249">
          <mxGeometry x="-0.63" y="1" relative="1" as="geometry">
            <mxPoint x="15" as="offset" />
          </mxGeometry>
        </mxCell>
        <mxCell id="YPNKjpNMcO8js8Rz8w9M-251" value="" style="endArrow=classic;html=1;rounded=0;fontSize=12;fontColor=#000000;exitX=1.195;exitY=0.152;exitDx=0;exitDy=0;exitPerimeter=0;entryX=0;entryY=0.108;entryDx=0;entryDy=0;entryPerimeter=0;" edge="1" parent="1" source="YPNKjpNMcO8js8Rz8w9M-192" target="YPNKjpNMcO8js8Rz8w9M-246">
          <mxGeometry width="50" height="50" relative="1" as="geometry">
            <mxPoint x="-670" y="5920" as="sourcePoint" />
            <mxPoint x="-620" y="5870" as="targetPoint" />
          </mxGeometry>
        </mxCell>
        <mxCell id="YPNKjpNMcO8js8Rz8w9M-252" value="调用父类构造方法" style="edgeLabel;html=1;align=center;verticalAlign=middle;resizable=0;points=[];fontSize=12;fontColor=#000000;" vertex="1" connectable="0" parent="YPNKjpNMcO8js8Rz8w9M-251">
          <mxGeometry x="-0.1655" relative="1" as="geometry">
            <mxPoint as="offset" />
          </mxGeometry>
        </mxCell>
        <mxCell id="YPNKjpNMcO8js8Rz8w9M-253" value="" style="endArrow=classic;html=1;rounded=0;fontSize=12;fontColor=#000000;exitX=1.3;exitY=0.149;exitDx=0;exitDy=0;exitPerimeter=0;entryX=1.295;entryY=0.274;entryDx=0;entryDy=0;entryPerimeter=0;" edge="1" parent="1" source="YPNKjpNMcO8js8Rz8w9M-246" target="YPNKjpNMcO8js8Rz8w9M-192">
          <mxGeometry width="50" height="50" relative="1" as="geometry">
            <mxPoint x="-800" y="5863" as="sourcePoint" />
            <mxPoint x="-670" y="5910" as="targetPoint" />
            <Array as="points">
              <mxPoint x="-680" y="5875" />
              <mxPoint x="-680" y="5900" />
            </Array>
          </mxGeometry>
        </mxCell>
        <mxCell id="YPNKjpNMcO8js8Rz8w9M-254" value="onCreate" style="edgeLabel;html=1;align=center;verticalAlign=middle;resizable=0;points=[];fontSize=12;fontColor=#000000;labelBackgroundColor=default;" vertex="1" connectable="0" parent="YPNKjpNMcO8js8Rz8w9M-253">
          <mxGeometry x="-0.6508" y="2" relative="1" as="geometry">
            <mxPoint x="-45" y="-3" as="offset" />
          </mxGeometry>
        </mxCell>
        <mxCell id="YPNKjpNMcO8js8Rz8w9M-255" value="" style="endArrow=classic;html=1;rounded=0;fontSize=12;fontColor=#000000;entryX=-0.2;entryY=0.27;entryDx=0;entryDy=0;entryPerimeter=0;" edge="1" parent="1" target="YPNKjpNMcO8js8Rz8w9M-246">
          <mxGeometry width="50" height="50" relative="1" as="geometry">
            <mxPoint x="-1110" y="5916" as="sourcePoint" />
            <mxPoint x="-700" y="5940" as="targetPoint" />
          </mxGeometry>
        </mxCell>
        <mxCell id="YPNKjpNMcO8js8Rz8w9M-256" value="onCreate" style="edgeLabel;html=1;align=center;verticalAlign=middle;resizable=0;points=[];fontSize=12;fontColor=#000000;" vertex="1" connectable="0" parent="YPNKjpNMcO8js8Rz8w9M-255">
          <mxGeometry x="0.1014" y="4" relative="1" as="geometry">
            <mxPoint as="offset" />
          </mxGeometry>
        </mxCell>
        <mxCell id="YPNKjpNMcO8js8Rz8w9M-257" value="" style="html=1;points=[];perimeter=orthogonalPerimeter;labelBackgroundColor=default;fillColor=#d5e8d4;strokeColor=#82b366;" vertex="1" parent="1">
          <mxGeometry x="-820" y="5866.969999999999" width="10" height="80" as="geometry" />
        </mxCell>
        <mxCell id="YPNKjpNMcO8js8Rz8w9M-258" value="" style="endArrow=classic;html=1;rounded=0;fontSize=12;fontColor=#000000;exitX=1.4;exitY=0.763;exitDx=0;exitDy=0;exitPerimeter=0;entryX=1.2;entryY=0.685;entryDx=0;entryDy=0;entryPerimeter=0;" edge="1" parent="1" source="YPNKjpNMcO8js8Rz8w9M-257" target="YPNKjpNMcO8js8Rz8w9M-235">
          <mxGeometry width="50" height="50" relative="1" as="geometry">
            <mxPoint x="-768" y="5957.13" as="sourcePoint" />
            <mxPoint x="-1070" y="5975.98" as="targetPoint" />
            <Array as="points">
              <mxPoint x="-641" y="5930" />
              <mxPoint x="-641" y="5950" />
            </Array>
          </mxGeometry>
        </mxCell>
        <mxCell id="YPNKjpNMcO8js8Rz8w9M-259" value="createDomView" style="edgeLabel;html=1;align=center;verticalAlign=middle;resizable=0;points=[];fontSize=12;fontColor=#000000;labelBackgroundColor=default;" vertex="1" connectable="0" parent="YPNKjpNMcO8js8Rz8w9M-258">
          <mxGeometry x="-0.6508" y="2" relative="1" as="geometry">
            <mxPoint x="-45" y="-3" as="offset" />
          </mxGeometry>
        </mxCell>
        <mxCell id="YPNKjpNMcO8js8Rz8w9M-260" value="自定义组件，如&lt;br&gt;JRDyWebView" style="shape=umlLifeline;perimeter=lifelinePerimeter;whiteSpace=wrap;html=1;container=1;collapsible=0;recursiveResize=0;outlineConnect=0;" vertex="1" parent="1">
          <mxGeometry x="-2200" y="5670" width="140" height="1140" as="geometry" />
        </mxCell>
        <mxCell id="YPNKjpNMcO8js8Rz8w9M-261" value="" style="html=1;points=[];perimeter=orthogonalPerimeter;" vertex="1" parent="YPNKjpNMcO8js8Rz8w9M-260">
          <mxGeometry x="65" y="100" width="10" height="260" as="geometry" />
        </mxCell>
        <mxCell id="YPNKjpNMcO8js8Rz8w9M-262" value="" style="endArrow=classic;html=1;rounded=0;fontSize=12;fontColor=#000000;exitX=0.9;exitY=0.785;exitDx=0;exitDy=0;exitPerimeter=0;entryX=1;entryY=0.835;entryDx=0;entryDy=0;entryPerimeter=0;" edge="1" parent="YPNKjpNMcO8js8Rz8w9M-260" source="YPNKjpNMcO8js8Rz8w9M-261" target="YPNKjpNMcO8js8Rz8w9M-261">
          <mxGeometry width="50" height="50" relative="1" as="geometry">
            <mxPoint x="82" y="312.1300000000001" as="sourcePoint" />
            <mxPoint x="80" y="320" as="targetPoint" />
            <Array as="points">
              <mxPoint x="210" y="304" />
              <mxPoint x="209" y="320" />
            </Array>
          </mxGeometry>
        </mxCell>
        <mxCell id="YPNKjpNMcO8js8Rz8w9M-263" value="创建布局" style="edgeLabel;html=1;align=center;verticalAlign=middle;resizable=0;points=[];fontSize=12;fontColor=#000000;" vertex="1" connectable="0" parent="YPNKjpNMcO8js8Rz8w9M-262">
          <mxGeometry x="-0.5665" y="-2" relative="1" as="geometry">
            <mxPoint as="offset" />
          </mxGeometry>
        </mxCell>
        <mxCell id="YPNKjpNMcO8js8Rz8w9M-264" value="" style="endArrow=classic;html=1;rounded=0;fontSize=12;fontColor=#000000;exitX=-0.1;exitY=0.688;exitDx=0;exitDy=0;exitPerimeter=0;entryX=1.2;entryY=0.692;entryDx=0;entryDy=0;entryPerimeter=0;" edge="1" parent="1" source="YPNKjpNMcO8js8Rz8w9M-235" target="YPNKjpNMcO8js8Rz8w9M-261">
          <mxGeometry width="50" height="50" relative="1" as="geometry">
            <mxPoint x="-1600" y="5960" as="sourcePoint" />
            <mxPoint x="-1550" y="5910" as="targetPoint" />
          </mxGeometry>
        </mxCell>
        <mxCell id="YPNKjpNMcO8js8Rz8w9M-265" value="通过反射，调用构造方法，创建实例" style="edgeLabel;html=1;align=center;verticalAlign=middle;resizable=0;points=[];fontSize=12;fontColor=#000000;" vertex="1" connectable="0" parent="YPNKjpNMcO8js8Rz8w9M-264">
          <mxGeometry x="0.6874" y="1" relative="1" as="geometry">
            <mxPoint x="90" y="-4" as="offset" />
          </mxGeometry>
        </mxCell>
        <mxCell id="YPNKjpNMcO8js8Rz8w9M-266" value="" style="endArrow=classic;html=1;rounded=0;fontSize=12;fontColor=#000000;exitX=1.2;exitY=0.719;exitDx=0;exitDy=0;exitPerimeter=0;entryX=-0.4;entryY=0.373;entryDx=0;entryDy=0;entryPerimeter=0;" edge="1" parent="1" source="YPNKjpNMcO8js8Rz8w9M-261" target="YPNKjpNMcO8js8Rz8w9M-246">
          <mxGeometry width="50" height="50" relative="1" as="geometry">
            <mxPoint x="-1490" y="6060" as="sourcePoint" />
            <mxPoint x="-1440" y="6010" as="targetPoint" />
          </mxGeometry>
        </mxCell>
        <mxCell id="YPNKjpNMcO8js8Rz8w9M-267" value="返回实例" style="edgeLabel;html=1;align=center;verticalAlign=middle;resizable=0;points=[];fontSize=12;fontColor=#000000;" vertex="1" connectable="0" parent="YPNKjpNMcO8js8Rz8w9M-266">
          <mxGeometry x="-0.7506" y="3" relative="1" as="geometry">
            <mxPoint as="offset" />
          </mxGeometry>
        </mxCell>
        <mxCell id="YPNKjpNMcO8js8Rz8w9M-268" value="" style="endArrow=classic;html=1;rounded=0;fontSize=12;fontColor=#000000;exitX=-0.4;exitY=0.395;exitDx=0;exitDy=0;exitPerimeter=0;entryX=1.1;entryY=0.746;entryDx=0;entryDy=0;entryPerimeter=0;" edge="1" parent="1" source="YPNKjpNMcO8js8Rz8w9M-246" target="YPNKjpNMcO8js8Rz8w9M-261">
          <mxGeometry width="50" height="50" relative="1" as="geometry">
            <mxPoint x="-1340" y="6060" as="sourcePoint" />
            <mxPoint x="-1290" y="6010" as="targetPoint" />
          </mxGeometry>
        </mxCell>
        <mxCell id="YPNKjpNMcO8js8Rz8w9M-269" value="createDom" style="edgeLabel;html=1;align=center;verticalAlign=middle;resizable=0;points=[];fontSize=12;fontColor=#000000;" vertex="1" connectable="0" parent="YPNKjpNMcO8js8Rz8w9M-268">
          <mxGeometry x="-0.7169" y="1" relative="1" as="geometry">
            <mxPoint as="offset" />
          </mxGeometry>
        </mxCell>
        <mxCell id="YPNKjpNMcO8js8Rz8w9M-270" value="" style="endArrow=classic;html=1;rounded=0;fontSize=12;fontColor=#000000;exitX=-0.2;exitY=0.931;exitDx=0;exitDy=0;exitPerimeter=0;entryX=1.1;entryY=0.962;entryDx=0;entryDy=0;entryPerimeter=0;" edge="1" parent="1" source="YPNKjpNMcO8js8Rz8w9M-235" target="YPNKjpNMcO8js8Rz8w9M-261">
          <mxGeometry width="50" height="50" relative="1" as="geometry">
            <mxPoint x="-1780" y="6060" as="sourcePoint" />
            <mxPoint x="-1730" y="6010" as="targetPoint" />
          </mxGeometry>
        </mxCell>
        <mxCell id="YPNKjpNMcO8js8Rz8w9M-271" value="updateNodeInfo" style="edgeLabel;html=1;align=center;verticalAlign=middle;resizable=0;points=[];fontSize=12;fontColor=#000000;" vertex="1" connectable="0" parent="YPNKjpNMcO8js8Rz8w9M-270">
          <mxGeometry x="0.0833" y="-3" relative="1" as="geometry">
            <mxPoint as="offset" />
          </mxGeometry>
        </mxCell>
        <mxCell id="YPNKjpNMcO8js8Rz8w9M-272" value="&lt;font color=&quot;#ff1808&quot; style=&quot;font-size: 24px;&quot;&gt;动态化启动初始化流程&lt;/font&gt;" style="text;html=1;strokeColor=#82b366;fillColor=#d5e8d4;align=center;verticalAlign=middle;whiteSpace=wrap;rounded=0;" vertex="1" parent="1">
          <mxGeometry x="-3230" y="3310" width="270" height="50" as="geometry" />
        </mxCell>
        <mxCell id="YPNKjpNMcO8js8Rz8w9M-273" value="ConfigureStarter" style="shape=umlLifeline;perimeter=lifelinePerimeter;whiteSpace=wrap;html=1;container=1;collapsible=0;recursiveResize=0;outlineConnect=0;" vertex="1" parent="1">
          <mxGeometry x="-3022" y="3430" width="140" height="1140" as="geometry" />
        </mxCell>
        <mxCell id="YPNKjpNMcO8js8Rz8w9M-274" value="" style="html=1;points=[];perimeter=orthogonalPerimeter;" vertex="1" parent="YPNKjpNMcO8js8Rz8w9M-273">
          <mxGeometry x="70" y="75" width="10" height="175" as="geometry" />
        </mxCell>
        <mxCell id="YPNKjpNMcO8js8Rz8w9M-275" value="" style="endArrow=classic;html=1;rounded=0;fontSize=12;fontColor=#000000;exitX=0.2;exitY=0.086;exitDx=0;exitDy=0;exitPerimeter=0;entryX=1;entryY=0.166;entryDx=0;entryDy=0;entryPerimeter=0;" edge="1" parent="YPNKjpNMcO8js8Rz8w9M-273" source="YPNKjpNMcO8js8Rz8w9M-274" target="YPNKjpNMcO8js8Rz8w9M-274">
          <mxGeometry width="50" height="50" relative="1" as="geometry">
            <mxPoint x="82" y="90" as="sourcePoint" />
            <mxPoint x="92" y="150" as="targetPoint" />
            <Array as="points">
              <mxPoint x="192" y="93" />
              <mxPoint x="192" y="104" />
            </Array>
          </mxGeometry>
        </mxCell>
        <mxCell id="YPNKjpNMcO8js8Rz8w9M-276" value="init" style="edgeLabel;html=1;align=center;verticalAlign=middle;resizable=0;points=[];fontSize=12;fontColor=#000000;" vertex="1" connectable="0" parent="YPNKjpNMcO8js8Rz8w9M-275">
          <mxGeometry x="-0.6508" y="2" relative="1" as="geometry">
            <mxPoint as="offset" />
          </mxGeometry>
        </mxCell>
        <mxCell id="YPNKjpNMcO8js8Rz8w9M-277" value="" style="endArrow=classic;html=1;rounded=0;fontSize=12;fontColor=#000000;entryX=0.2;entryY=0.28;entryDx=0;entryDy=0;entryPerimeter=0;" edge="1" parent="YPNKjpNMcO8js8Rz8w9M-273" source="YPNKjpNMcO8js8Rz8w9M-274" target="YPNKjpNMcO8js8Rz8w9M-274">
          <mxGeometry width="50" height="50" relative="1" as="geometry">
            <mxPoint x="72" y="110" as="sourcePoint" />
            <mxPoint x="80" y="124" as="targetPoint" />
            <Array as="points">
              <mxPoint x="192" y="112.94999999999982" />
              <mxPoint x="192" y="123.94999999999982" />
            </Array>
          </mxGeometry>
        </mxCell>
        <mxCell id="YPNKjpNMcO8js8Rz8w9M-278" value="mainInit" style="edgeLabel;html=1;align=center;verticalAlign=middle;resizable=0;points=[];fontSize=12;fontColor=#000000;" vertex="1" connectable="0" parent="YPNKjpNMcO8js8Rz8w9M-277">
          <mxGeometry x="-0.6508" y="2" relative="1" as="geometry">
            <mxPoint as="offset" />
          </mxGeometry>
        </mxCell>
        <mxCell id="YPNKjpNMcO8js8Rz8w9M-279" value="" style="endArrow=classic;html=1;rounded=0;fontSize=12;fontColor=#000000;entryX=0.9;entryY=0.377;entryDx=0;entryDy=0;entryPerimeter=0;" edge="1" parent="YPNKjpNMcO8js8Rz8w9M-273" target="YPNKjpNMcO8js8Rz8w9M-274">
          <mxGeometry width="50" height="50" relative="1" as="geometry">
            <mxPoint x="72" y="130" as="sourcePoint" />
            <mxPoint x="102" y="140" as="targetPoint" />
            <Array as="points">
              <mxPoint x="192" y="130" />
              <mxPoint x="192" y="141" />
            </Array>
          </mxGeometry>
        </mxCell>
        <mxCell id="YPNKjpNMcO8js8Rz8w9M-280" value="mainProcessInit" style="edgeLabel;html=1;align=center;verticalAlign=middle;resizable=0;points=[];fontSize=12;fontColor=#000000;" vertex="1" connectable="0" parent="YPNKjpNMcO8js8Rz8w9M-279">
          <mxGeometry x="-0.6508" y="2" relative="1" as="geometry">
            <mxPoint x="12" as="offset" />
          </mxGeometry>
        </mxCell>
        <mxCell id="YPNKjpNMcO8js8Rz8w9M-281" value="JRDyServiceImpl" style="shape=umlLifeline;perimeter=lifelinePerimeter;whiteSpace=wrap;html=1;container=1;collapsible=0;recursiveResize=0;outlineConnect=0;" vertex="1" parent="1">
          <mxGeometry x="-2790" y="3430" width="140" height="1140" as="geometry" />
        </mxCell>
        <mxCell id="YPNKjpNMcO8js8Rz8w9M-282" value="" style="html=1;points=[];perimeter=orthogonalPerimeter;" vertex="1" parent="YPNKjpNMcO8js8Rz8w9M-281">
          <mxGeometry x="70" y="150" width="10" height="175" as="geometry" />
        </mxCell>
        <mxCell id="YPNKjpNMcO8js8Rz8w9M-283" value="" style="endArrow=classic;html=1;rounded=0;exitX=1.2;exitY=0.486;exitDx=0;exitDy=0;exitPerimeter=0;entryX=-0.1;entryY=0.04;entryDx=0;entryDy=0;entryPerimeter=0;" edge="1" parent="1" source="YPNKjpNMcO8js8Rz8w9M-274" target="YPNKjpNMcO8js8Rz8w9M-282">
          <mxGeometry width="50" height="50" relative="1" as="geometry">
            <mxPoint x="-2700" y="3550" as="sourcePoint" />
            <mxPoint x="-2650" y="3500" as="targetPoint" />
          </mxGeometry>
        </mxCell>
        <mxCell id="YPNKjpNMcO8js8Rz8w9M-284" value="initJRDy" style="edgeLabel;html=1;align=center;verticalAlign=middle;resizable=0;points=[];" vertex="1" connectable="0" parent="YPNKjpNMcO8js8Rz8w9M-283">
          <mxGeometry x="0.1235" y="1" relative="1" as="geometry">
            <mxPoint as="offset" />
          </mxGeometry>
        </mxCell>
        <mxCell id="YPNKjpNMcO8js8Rz8w9M-285" value="JRDynamicHelper" style="shape=umlLifeline;perimeter=lifelinePerimeter;whiteSpace=wrap;html=1;container=1;collapsible=0;recursiveResize=0;outlineConnect=0;" vertex="1" parent="1">
          <mxGeometry x="-2600" y="3430" width="140" height="1140" as="geometry" />
        </mxCell>
        <mxCell id="YPNKjpNMcO8js8Rz8w9M-286" value="" style="html=1;points=[];perimeter=orthogonalPerimeter;" vertex="1" parent="YPNKjpNMcO8js8Rz8w9M-285">
          <mxGeometry x="70" y="150" width="10" height="680" as="geometry" />
        </mxCell>
        <mxCell id="YPNKjpNMcO8js8Rz8w9M-287" value="&lt;font color=&quot;#00994d&quot;&gt;initGlobalModule&lt;br&gt;初始化业务方自定义的动态化模块、组件、自定义字体&lt;br&gt;&lt;/font&gt;" style="html=1;points=[];perimeter=orthogonalPerimeter;fillColor=#d5e8d4;strokeColor=#82b366;" vertex="1" parent="YPNKjpNMcO8js8Rz8w9M-285">
          <mxGeometry x="70" y="560" width="10" height="60" as="geometry" />
        </mxCell>
        <mxCell id="YPNKjpNMcO8js8Rz8w9M-288" value="&lt;font color=&quot;#00994d&quot;&gt;JRDyEngineManager初始化&lt;/font&gt;" style="html=1;points=[];perimeter=orthogonalPerimeter;fillColor=#d5e8d4;strokeColor=#82b366;" vertex="1" parent="YPNKjpNMcO8js8Rz8w9M-285">
          <mxGeometry x="70" y="260" width="10" height="140" as="geometry" />
        </mxCell>
        <mxCell id="YPNKjpNMcO8js8Rz8w9M-289" value="&lt;font color=&quot;#ff0303&quot;&gt;onInitResult&amp;nbsp; &amp;nbsp; &amp;nbsp; &amp;nbsp; &amp;nbsp; &amp;nbsp; &amp;nbsp; &amp;nbsp; &amp;nbsp; &amp;nbsp; &amp;nbsp; &amp;nbsp; &amp;nbsp;&lt;br&gt;回调&amp;nbsp; &amp;nbsp; &amp;nbsp; &amp;nbsp; &amp;nbsp; &amp;nbsp; &amp;nbsp; &amp;nbsp; &amp;nbsp; &amp;nbsp;&lt;/font&gt;" style="html=1;points=[];perimeter=orthogonalPerimeter;fillColor=#FF0303;strokeColor=#82b366;" vertex="1" parent="YPNKjpNMcO8js8Rz8w9M-285">
          <mxGeometry x="70" y="320" width="10" height="60" as="geometry" />
        </mxCell>
        <mxCell id="YPNKjpNMcO8js8Rz8w9M-290" value="" style="endArrow=classic;html=1;rounded=0;fontColor=#FF0303;exitX=0;exitY=0.833;exitDx=0;exitDy=0;exitPerimeter=0;entryX=-0.5;entryY=0.133;entryDx=0;entryDy=0;entryPerimeter=0;" edge="1" parent="YPNKjpNMcO8js8Rz8w9M-285" source="YPNKjpNMcO8js8Rz8w9M-289" target="YPNKjpNMcO8js8Rz8w9M-287">
          <mxGeometry width="50" height="50" relative="1" as="geometry">
            <mxPoint x="590" y="400" as="sourcePoint" />
            <mxPoint x="-40" y="490" as="targetPoint" />
            <Array as="points">
              <mxPoint x="20" y="370" />
              <mxPoint x="20" y="568" />
            </Array>
          </mxGeometry>
        </mxCell>
        <mxCell id="YPNKjpNMcO8js8Rz8w9M-291" value="JRDyConfigTypical" style="shape=umlLifeline;perimeter=lifelinePerimeter;whiteSpace=wrap;html=1;container=1;collapsible=0;recursiveResize=0;outlineConnect=0;" vertex="1" parent="1">
          <mxGeometry x="-2390" y="3430" width="140" height="1140" as="geometry" />
        </mxCell>
        <mxCell id="YPNKjpNMcO8js8Rz8w9M-292" value="" style="html=1;points=[];perimeter=orthogonalPerimeter;" vertex="1" parent="YPNKjpNMcO8js8Rz8w9M-291">
          <mxGeometry x="70" y="150" width="10" height="175" as="geometry" />
        </mxCell>
        <mxCell id="YPNKjpNMcO8js8Rz8w9M-293" value="JRDyConfigBuild" style="shape=umlLifeline;perimeter=lifelinePerimeter;whiteSpace=wrap;html=1;container=1;collapsible=0;recursiveResize=0;outlineConnect=0;" vertex="1" parent="1">
          <mxGeometry x="-2207" y="3430" width="140" height="1140" as="geometry" />
        </mxCell>
        <mxCell id="YPNKjpNMcO8js8Rz8w9M-294" value="" style="html=1;points=[];perimeter=orthogonalPerimeter;" vertex="1" parent="YPNKjpNMcO8js8Rz8w9M-293">
          <mxGeometry x="67" y="200" width="10" height="175" as="geometry" />
        </mxCell>
        <mxCell id="YPNKjpNMcO8js8Rz8w9M-295" value="JRDyEngineManager" style="shape=umlLifeline;perimeter=lifelinePerimeter;whiteSpace=wrap;html=1;container=1;collapsible=0;recursiveResize=0;outlineConnect=0;" vertex="1" parent="1">
          <mxGeometry x="-2020" y="3430" width="140" height="1140" as="geometry" />
        </mxCell>
        <mxCell id="YPNKjpNMcO8js8Rz8w9M-296" value="" style="html=1;points=[];perimeter=orthogonalPerimeter;" vertex="1" parent="YPNKjpNMcO8js8Rz8w9M-295">
          <mxGeometry x="70" y="160" width="10" height="640" as="geometry" />
        </mxCell>
        <mxCell id="YPNKjpNMcO8js8Rz8w9M-297" value="&lt;font color=&quot;#00994d&quot;&gt;checkUpdater&lt;/font&gt;" style="html=1;points=[];perimeter=orthogonalPerimeter;fillColor=#d5e8d4;strokeColor=#82b366;" vertex="1" parent="YPNKjpNMcO8js8Rz8w9M-295">
          <mxGeometry x="70" y="510" width="10" height="140" as="geometry" />
        </mxCell>
        <mxCell id="YPNKjpNMcO8js8Rz8w9M-298" value="&lt;font color=&quot;#00994d&quot;&gt;initResult&lt;/font&gt;" style="html=1;points=[];perimeter=orthogonalPerimeter;fillColor=#d5e8d4;strokeColor=#82b366;" vertex="1" parent="YPNKjpNMcO8js8Rz8w9M-295">
          <mxGeometry x="70" y="290" width="10" height="40" as="geometry" />
        </mxCell>
        <mxCell id="YPNKjpNMcO8js8Rz8w9M-299" value="" style="endArrow=classic;html=1;rounded=0;fontColor=#000000;entryX=-0.4;entryY=0.733;entryDx=0;entryDy=0;entryPerimeter=0;exitX=0;exitY=0.893;exitDx=0;exitDy=0;exitPerimeter=0;" edge="1" parent="YPNKjpNMcO8js8Rz8w9M-295" source="YPNKjpNMcO8js8Rz8w9M-297" target="YPNKjpNMcO8js8Rz8w9M-298">
          <mxGeometry width="50" height="50" relative="1" as="geometry">
            <mxPoint x="-200" y="390" as="sourcePoint" />
            <mxPoint x="-30" y="380" as="targetPoint" />
            <Array as="points">
              <mxPoint x="20" y="520" />
              <mxPoint x="20" y="350" />
            </Array>
          </mxGeometry>
        </mxCell>
        <mxCell id="YPNKjpNMcO8js8Rz8w9M-300" value="onInitResult回调" style="edgeLabel;html=1;align=center;verticalAlign=middle;resizable=0;points=[];fontColor=#000000;" vertex="1" connectable="0" parent="YPNKjpNMcO8js8Rz8w9M-299">
          <mxGeometry x="0.0941" y="-3" relative="1" as="geometry">
            <mxPoint as="offset" />
          </mxGeometry>
        </mxCell>
        <mxCell id="YPNKjpNMcO8js8Rz8w9M-301" value="" style="endArrow=classic;html=1;rounded=0;exitX=1.2;exitY=0.091;exitDx=0;exitDy=0;exitPerimeter=0;entryX=-0.1;entryY=0.033;entryDx=0;entryDy=0;entryPerimeter=0;" edge="1" parent="1" source="YPNKjpNMcO8js8Rz8w9M-282" target="YPNKjpNMcO8js8Rz8w9M-286">
          <mxGeometry width="50" height="50" relative="1" as="geometry">
            <mxPoint x="-2460" y="3620" as="sourcePoint" />
            <mxPoint x="-2410" y="3570" as="targetPoint" />
          </mxGeometry>
        </mxCell>
        <mxCell id="YPNKjpNMcO8js8Rz8w9M-302" value="initJsCore" style="edgeLabel;html=1;align=center;verticalAlign=middle;resizable=0;points=[];" vertex="1" connectable="0" parent="YPNKjpNMcO8js8Rz8w9M-301">
          <mxGeometry x="-0.1118" y="2" relative="1" as="geometry">
            <mxPoint as="offset" />
          </mxGeometry>
        </mxCell>
        <mxCell id="YPNKjpNMcO8js8Rz8w9M-303" value="" style="endArrow=classic;html=1;rounded=0;exitX=1.2;exitY=0.051;exitDx=0;exitDy=0;exitPerimeter=0;entryX=0;entryY=0.097;entryDx=0;entryDy=0;entryPerimeter=0;" edge="1" parent="1">
          <mxGeometry width="50" height="50" relative="1" as="geometry">
            <mxPoint x="-2518" y="3595.8900000000003" as="sourcePoint" />
            <mxPoint x="-2320" y="3592.9750000000004" as="targetPoint" />
          </mxGeometry>
        </mxCell>
        <mxCell id="YPNKjpNMcO8js8Rz8w9M-304" value="initConfig&lt;br&gt;自定义存储、点击、网络请求、&lt;br&gt;APM上报、路由、loading" style="edgeLabel;html=1;align=center;verticalAlign=middle;resizable=0;points=[];" vertex="1" connectable="0" parent="YPNKjpNMcO8js8Rz8w9M-303">
          <mxGeometry x="-0.2284" y="2" relative="1" as="geometry">
            <mxPoint x="11" y="-2" as="offset" />
          </mxGeometry>
        </mxCell>
        <mxCell id="YPNKjpNMcO8js8Rz8w9M-305" value="" style="endArrow=classic;html=1;rounded=0;exitX=1.2;exitY=0.144;exitDx=0;exitDy=0;exitPerimeter=0;" edge="1" parent="1">
          <mxGeometry width="50" height="50" relative="1" as="geometry">
            <mxPoint x="-2518" y="3630.16" as="sourcePoint" />
            <mxPoint x="-2137.5" y="3636.0249999999996" as="targetPoint" />
          </mxGeometry>
        </mxCell>
        <mxCell id="YPNKjpNMcO8js8Rz8w9M-306" value="new&lt;br&gt;配置appversion、buildversion、systemversion、&lt;br&gt;devicemodel、appkey、token" style="edgeLabel;html=1;align=center;verticalAlign=middle;resizable=0;points=[];" vertex="1" connectable="0" parent="YPNKjpNMcO8js8Rz8w9M-305">
          <mxGeometry x="-0.2727" y="2" relative="1" as="geometry">
            <mxPoint as="offset" />
          </mxGeometry>
        </mxCell>
        <mxCell id="YPNKjpNMcO8js8Rz8w9M-307" value="JSDownloadManager" style="shape=umlLifeline;perimeter=lifelinePerimeter;whiteSpace=wrap;html=1;container=1;collapsible=0;recursiveResize=0;outlineConnect=0;" vertex="1" parent="1">
          <mxGeometry x="-1300" y="3420" width="140" height="1140" as="geometry" />
        </mxCell>
        <mxCell id="YPNKjpNMcO8js8Rz8w9M-308" value="" style="html=1;points=[];perimeter=orthogonalPerimeter;" vertex="1" parent="YPNKjpNMcO8js8Rz8w9M-307">
          <mxGeometry x="65" y="390" width="10" height="550" as="geometry" />
        </mxCell>
        <mxCell id="YPNKjpNMcO8js8Rz8w9M-309" value="" style="endArrow=classic;html=1;rounded=0;fontSize=12;fontColor=#000000;exitX=1.2;exitY=0.067;exitDx=0;exitDy=0;exitPerimeter=0;entryX=1.2;entryY=0.098;entryDx=0;entryDy=0;entryPerimeter=0;" edge="1" parent="YPNKjpNMcO8js8Rz8w9M-307">
          <mxGeometry width="50" height="50" relative="1" as="geometry">
            <mxPoint x="77" y="498.85000000000036" as="sourcePoint" />
            <mxPoint x="77" y="515.8999999999996" as="targetPoint" />
            <Array as="points">
              <mxPoint x="220" y="492" />
              <mxPoint x="220" y="512" />
            </Array>
          </mxGeometry>
        </mxCell>
        <mxCell id="YPNKjpNMcO8js8Rz8w9M-310" value="downloadEngine&lt;br&gt;下载新引擎" style="edgeLabel;html=1;align=center;verticalAlign=middle;resizable=0;points=[];fontSize=12;fontColor=#000000;" vertex="1" connectable="0" parent="YPNKjpNMcO8js8Rz8w9M-309">
          <mxGeometry x="-0.6508" y="2" relative="1" as="geometry">
            <mxPoint x="19" as="offset" />
          </mxGeometry>
        </mxCell>
        <mxCell id="YPNKjpNMcO8js8Rz8w9M-311" value="" style="endArrow=classic;html=1;rounded=0;fontSize=12;fontColor=#000000;exitX=1.4;exitY=0.315;exitDx=0;exitDy=0;exitPerimeter=0;entryX=1.1;entryY=0.167;entryDx=0;entryDy=0;entryPerimeter=0;" edge="1" parent="YPNKjpNMcO8js8Rz8w9M-307" target="YPNKjpNMcO8js8Rz8w9M-313">
          <mxGeometry width="50" height="50" relative="1" as="geometry">
            <mxPoint x="79" y="538.8999999999996" as="sourcePoint" />
            <mxPoint x="77" y="552.9399999999996" as="targetPoint" />
            <Array as="points">
              <mxPoint x="221" y="541.0999999999999" />
              <mxPoint x="221" y="562" />
            </Array>
          </mxGeometry>
        </mxCell>
        <mxCell id="YPNKjpNMcO8js8Rz8w9M-312" value="downloadTemplate&lt;br&gt;下载新页面、新模板" style="edgeLabel;html=1;align=center;verticalAlign=middle;resizable=0;points=[];fontSize=12;fontColor=#000000;" vertex="1" connectable="0" parent="YPNKjpNMcO8js8Rz8w9M-311">
          <mxGeometry x="-0.6508" y="2" relative="1" as="geometry">
            <mxPoint x="19" as="offset" />
          </mxGeometry>
        </mxCell>
        <mxCell id="YPNKjpNMcO8js8Rz8w9M-313" value="&lt;font color=&quot;#00994d&quot;&gt;downloadTemplate&lt;/font&gt;" style="html=1;points=[];perimeter=orthogonalPerimeter;fillColor=#d5e8d4;strokeColor=#82b366;" vertex="1" parent="YPNKjpNMcO8js8Rz8w9M-307">
          <mxGeometry x="65" y="532" width="10" height="210" as="geometry" />
        </mxCell>
        <mxCell id="YPNKjpNMcO8js8Rz8w9M-314" value="" style="endArrow=classic;html=1;rounded=0;fontSize=12;fontColor=#000000;exitX=1.2;exitY=0.224;exitDx=0;exitDy=0;exitPerimeter=0;entryX=1.3;entryY=0.362;entryDx=0;entryDy=0;entryPerimeter=0;" edge="1" parent="YPNKjpNMcO8js8Rz8w9M-307" source="YPNKjpNMcO8js8Rz8w9M-313" target="YPNKjpNMcO8js8Rz8w9M-313">
          <mxGeometry width="50" height="50" relative="1" as="geometry">
            <mxPoint x="76.04999999999995" y="581.9999999999995" as="sourcePoint" />
            <mxPoint x="73.04999999999995" y="610.1699999999996" as="targetPoint" />
            <Array as="points">
              <mxPoint x="218.04999999999995" y="584.1999999999998" />
              <mxPoint x="218" y="602" />
            </Array>
          </mxGeometry>
        </mxCell>
        <mxCell id="YPNKjpNMcO8js8Rz8w9M-315" value="startDownloadData&lt;br&gt;下载模板" style="edgeLabel;html=1;align=center;verticalAlign=middle;resizable=0;points=[];fontSize=12;fontColor=#000000;" vertex="1" connectable="0" parent="YPNKjpNMcO8js8Rz8w9M-314">
          <mxGeometry x="-0.6508" y="2" relative="1" as="geometry">
            <mxPoint x="19" as="offset" />
          </mxGeometry>
        </mxCell>
        <mxCell id="YPNKjpNMcO8js8Rz8w9M-316" value="JRDyUpdater" style="shape=umlLifeline;perimeter=lifelinePerimeter;whiteSpace=wrap;html=1;container=1;collapsible=0;recursiveResize=0;outlineConnect=0;" vertex="1" parent="1">
          <mxGeometry x="-1480" y="3430" width="140" height="1140" as="geometry" />
        </mxCell>
        <mxCell id="YPNKjpNMcO8js8Rz8w9M-317" value="" style="html=1;points=[];perimeter=orthogonalPerimeter;" vertex="1" parent="YPNKjpNMcO8js8Rz8w9M-316">
          <mxGeometry x="70" y="240" width="10" height="280" as="geometry" />
        </mxCell>
        <mxCell id="YPNKjpNMcO8js8Rz8w9M-318" value="" style="endArrow=classic;html=1;rounded=0;fontSize=12;fontColor=#000000;exitX=1.1;exitY=0.221;exitDx=0;exitDy=0;exitPerimeter=0;entryX=1.1;entryY=0.343;entryDx=0;entryDy=0;entryPerimeter=0;" edge="1" parent="YPNKjpNMcO8js8Rz8w9M-316" source="YPNKjpNMcO8js8Rz8w9M-320" target="YPNKjpNMcO8js8Rz8w9M-320">
          <mxGeometry width="50" height="50" relative="1" as="geometry">
            <mxPoint x="81" y="439.96000000000004" as="sourcePoint" />
            <mxPoint x="80" y="460.1199999999999" as="targetPoint" />
            <Array as="points">
              <mxPoint x="220" y="550" />
              <mxPoint x="220" y="570" />
            </Array>
          </mxGeometry>
        </mxCell>
        <mxCell id="YPNKjpNMcO8js8Rz8w9M-319" value="parseUpdaterResult" style="edgeLabel;html=1;align=center;verticalAlign=middle;resizable=0;points=[];fontSize=12;fontColor=#000000;" vertex="1" connectable="0" parent="YPNKjpNMcO8js8Rz8w9M-318">
          <mxGeometry x="-0.6508" y="2" relative="1" as="geometry">
            <mxPoint x="19" as="offset" />
          </mxGeometry>
        </mxCell>
        <mxCell id="YPNKjpNMcO8js8Rz8w9M-320" value="&lt;font color=&quot;#00994d&quot;&gt;requestRemoteUpdater&lt;/font&gt;" style="html=1;points=[];perimeter=orthogonalPerimeter;fillColor=#d5e8d4;strokeColor=#82b366;" vertex="1" parent="YPNKjpNMcO8js8Rz8w9M-316">
          <mxGeometry x="70" y="522" width="10" height="140" as="geometry" />
        </mxCell>
        <mxCell id="YPNKjpNMcO8js8Rz8w9M-321" value="JSLoader" style="shape=umlLifeline;perimeter=lifelinePerimeter;whiteSpace=wrap;html=1;container=1;collapsible=0;recursiveResize=0;outlineConnect=0;" vertex="1" parent="1">
          <mxGeometry x="-1840" y="3430" width="140" height="1140" as="geometry" />
        </mxCell>
        <mxCell id="YPNKjpNMcO8js8Rz8w9M-322" value="" style="html=1;points=[];perimeter=orthogonalPerimeter;" vertex="1" parent="YPNKjpNMcO8js8Rz8w9M-321">
          <mxGeometry x="70" y="220" width="10" height="490" as="geometry" />
        </mxCell>
        <mxCell id="YPNKjpNMcO8js8Rz8w9M-323" value="" style="endArrow=classic;html=1;rounded=0;fontSize=12;fontColor=#000000;exitX=1;exitY=0.224;exitDx=0;exitDy=0;exitPerimeter=0;entryX=1.4;entryY=0.249;entryDx=0;entryDy=0;entryPerimeter=0;" edge="1" parent="YPNKjpNMcO8js8Rz8w9M-321" source="YPNKjpNMcO8js8Rz8w9M-322" target="YPNKjpNMcO8js8Rz8w9M-322">
          <mxGeometry width="50" height="50" relative="1" as="geometry">
            <mxPoint x="82" y="313.87000000000006" as="sourcePoint" />
            <mxPoint x="80" y="327.0299999999999" as="targetPoint" />
            <Array as="points">
              <mxPoint x="240" y="310" />
              <mxPoint x="240" y="330" />
            </Array>
          </mxGeometry>
        </mxCell>
        <mxCell id="YPNKjpNMcO8js8Rz8w9M-324" value="handleOldVersion&lt;br&gt;覆盖安装时，清除动态化缓存" style="edgeLabel;html=1;align=center;verticalAlign=middle;resizable=0;points=[];fontSize=12;fontColor=#000000;" vertex="1" connectable="0" parent="YPNKjpNMcO8js8Rz8w9M-323">
          <mxGeometry x="-0.6508" y="2" relative="1" as="geometry">
            <mxPoint x="19" as="offset" />
          </mxGeometry>
        </mxCell>
        <mxCell id="YPNKjpNMcO8js8Rz8w9M-325" value="" style="endArrow=classic;html=1;rounded=0;fontSize=12;fontColor=#000000;exitX=1.2;exitY=0.267;exitDx=0;exitDy=0;exitPerimeter=0;entryX=1;entryY=0.294;entryDx=0;entryDy=0;entryPerimeter=0;" edge="1" parent="YPNKjpNMcO8js8Rz8w9M-321" source="YPNKjpNMcO8js8Rz8w9M-322" target="YPNKjpNMcO8js8Rz8w9M-322">
          <mxGeometry width="50" height="50" relative="1" as="geometry">
            <mxPoint x="80" y="344.0799999999999" as="sourcePoint" />
            <mxPoint x="81" y="360.03999999999996" as="targetPoint" />
            <Array as="points">
              <mxPoint x="239" y="340" />
              <mxPoint x="240" y="353" />
            </Array>
          </mxGeometry>
        </mxCell>
        <mxCell id="YPNKjpNMcO8js8Rz8w9M-326" value="acquireEngine" style="edgeLabel;html=1;align=center;verticalAlign=middle;resizable=0;points=[];fontColor=#000000;" vertex="1" connectable="0" parent="YPNKjpNMcO8js8Rz8w9M-325">
          <mxGeometry x="-0.6868" relative="1" as="geometry">
            <mxPoint x="17" as="offset" />
          </mxGeometry>
        </mxCell>
        <mxCell id="YPNKjpNMcO8js8Rz8w9M-327" value="" style="endArrow=classic;html=1;rounded=0;fontSize=12;fontColor=#000000;entryX=1.3;entryY=0.469;entryDx=0;entryDy=0;entryPerimeter=0;exitX=1.2;exitY=0.327;exitDx=0;exitDy=0;exitPerimeter=0;" edge="1" parent="YPNKjpNMcO8js8Rz8w9M-321" source="YPNKjpNMcO8js8Rz8w9M-322" target="YPNKjpNMcO8js8Rz8w9M-322">
          <mxGeometry width="50" height="50" relative="1" as="geometry">
            <mxPoint x="82" y="370" as="sourcePoint" />
            <mxPoint x="80" y="384" as="targetPoint" />
            <Array as="points">
              <mxPoint x="241" y="390" />
              <mxPoint x="241" y="450" />
            </Array>
          </mxGeometry>
        </mxCell>
        <mxCell id="YPNKjpNMcO8js8Rz8w9M-328" value="acquireJSFile&lt;br&gt;其中，将所有本地jue文件信息&lt;br&gt;记录到了mJueInfos中" style="edgeLabel;html=1;align=center;verticalAlign=middle;resizable=0;points=[];fontColor=#000000;" vertex="1" connectable="0" parent="YPNKjpNMcO8js8Rz8w9M-327">
          <mxGeometry x="-0.6868" relative="1" as="geometry">
            <mxPoint x="17" as="offset" />
          </mxGeometry>
        </mxCell>
        <mxCell id="YPNKjpNMcO8js8Rz8w9M-329" value="" style="endArrow=classic;html=1;rounded=0;fontSize=12;fontColor=#000000;exitX=1.1;exitY=0.404;exitDx=0;exitDy=0;exitPerimeter=0;entryX=1.2;entryY=0.433;entryDx=0;entryDy=0;entryPerimeter=0;" edge="1" parent="YPNKjpNMcO8js8Rz8w9M-321" source="YPNKjpNMcO8js8Rz8w9M-322" target="YPNKjpNMcO8js8Rz8w9M-322">
          <mxGeometry width="50" height="50" relative="1" as="geometry">
            <mxPoint x="83" y="397.14999999999964" as="sourcePoint" />
            <mxPoint x="81" y="410" as="targetPoint" />
            <Array as="points">
              <mxPoint x="180" y="420" />
              <mxPoint x="180" y="430" />
            </Array>
          </mxGeometry>
        </mxCell>
        <mxCell id="YPNKjpNMcO8js8Rz8w9M-330" value="checkEngine" style="edgeLabel;html=1;align=center;verticalAlign=middle;resizable=0;points=[];fontColor=#000000;" vertex="1" connectable="0" parent="YPNKjpNMcO8js8Rz8w9M-329">
          <mxGeometry x="-0.6868" relative="1" as="geometry">
            <mxPoint x="17" as="offset" />
          </mxGeometry>
        </mxCell>
        <mxCell id="YPNKjpNMcO8js8Rz8w9M-331" value="" style="endArrow=classic;html=1;rounded=0;exitX=1.4;exitY=0.187;exitDx=0;exitDy=0;exitPerimeter=0;entryX=-0.4;entryY=0.033;entryDx=0;entryDy=0;entryPerimeter=0;" edge="1" parent="1">
          <mxGeometry width="50" height="50" relative="1" as="geometry">
            <mxPoint x="-2516" y="3664.9300000000003" as="sourcePoint" />
            <mxPoint x="-1954" y="3664.87" as="targetPoint" />
          </mxGeometry>
        </mxCell>
        <mxCell id="YPNKjpNMcO8js8Rz8w9M-332" value="setConfigListener" style="edgeLabel;html=1;align=center;verticalAlign=middle;resizable=0;points=[];" vertex="1" connectable="0" parent="YPNKjpNMcO8js8Rz8w9M-331">
          <mxGeometry x="-0.3367" y="1" relative="1" as="geometry">
            <mxPoint x="9" as="offset" />
          </mxGeometry>
        </mxCell>
        <mxCell id="YPNKjpNMcO8js8Rz8w9M-333" value="" style="endArrow=classic;html=1;rounded=0;exitX=1.4;exitY=0.044;exitDx=0;exitDy=0;exitPerimeter=0;entryX=-0.4;entryY=0.036;entryDx=0;entryDy=0;entryPerimeter=0;" edge="1" parent="1">
          <mxGeometry width="50" height="50" relative="1" as="geometry">
            <mxPoint x="-1936" y="3665.16" as="sourcePoint" />
            <mxPoint x="-1774" y="3668.08" as="targetPoint" />
          </mxGeometry>
        </mxCell>
        <mxCell id="YPNKjpNMcO8js8Rz8w9M-334" value="setConfigListener" style="edgeLabel;html=1;align=center;verticalAlign=middle;resizable=0;points=[];" vertex="1" connectable="0" parent="YPNKjpNMcO8js8Rz8w9M-333">
          <mxGeometry x="-0.3367" y="1" relative="1" as="geometry">
            <mxPoint x="9" as="offset" />
          </mxGeometry>
        </mxCell>
        <mxCell id="YPNKjpNMcO8js8Rz8w9M-335" value="" style="endArrow=classic;html=1;rounded=0;entryX=0.1;entryY=0.156;entryDx=0;entryDy=0;entryPerimeter=0;exitX=1.3;exitY=0.181;exitDx=0;exitDy=0;exitPerimeter=0;" edge="1" parent="1" source="YPNKjpNMcO8js8Rz8w9M-286" target="YPNKjpNMcO8js8Rz8w9M-296">
          <mxGeometry width="50" height="50" relative="1" as="geometry">
            <mxPoint x="-2515" y="3734.83" as="sourcePoint" />
            <mxPoint x="-1952" y="3735.9399999999996" as="targetPoint" />
          </mxGeometry>
        </mxCell>
        <mxCell id="YPNKjpNMcO8js8Rz8w9M-336" value="&lt;font color=&quot;#000000&quot;&gt;init&lt;/font&gt;" style="edgeLabel;html=1;align=center;verticalAlign=middle;resizable=0;points=[];fontColor=#FF0303;" vertex="1" connectable="0" parent="YPNKjpNMcO8js8Rz8w9M-335">
          <mxGeometry x="-0.3117" y="1" relative="1" as="geometry">
            <mxPoint x="-69" as="offset" />
          </mxGeometry>
        </mxCell>
        <mxCell id="YPNKjpNMcO8js8Rz8w9M-337" value="" style="endArrow=classic;html=1;rounded=0;fontColor=#FF0303;exitX=1.4;exitY=0.167;exitDx=0;exitDy=0;exitPerimeter=0;" edge="1" parent="1" source="YPNKjpNMcO8js8Rz8w9M-296" target="YPNKjpNMcO8js8Rz8w9M-316">
          <mxGeometry width="50" height="50" relative="1" as="geometry">
            <mxPoint x="-2040" y="3770" as="sourcePoint" />
            <mxPoint x="-1990" y="3720" as="targetPoint" />
          </mxGeometry>
        </mxCell>
        <mxCell id="YPNKjpNMcO8js8Rz8w9M-338" value="init" style="edgeLabel;html=1;align=center;verticalAlign=middle;resizable=0;points=[];fontColor=#000000;" vertex="1" connectable="0" parent="YPNKjpNMcO8js8Rz8w9M-337">
          <mxGeometry x="-0.2506" y="3" relative="1" as="geometry">
            <mxPoint as="offset" />
          </mxGeometry>
        </mxCell>
        <mxCell id="YPNKjpNMcO8js8Rz8w9M-339" value="" style="endArrow=classic;html=1;rounded=0;fontColor=#000000;exitX=1.2;exitY=0.079;exitDx=0;exitDy=0;exitPerimeter=0;entryX=-0.5;entryY=0.473;entryDx=0;entryDy=0;entryPerimeter=0;" edge="1" parent="1" source="YPNKjpNMcO8js8Rz8w9M-297" target="YPNKjpNMcO8js8Rz8w9M-322">
          <mxGeometry width="50" height="50" relative="1" as="geometry">
            <mxPoint x="-2040" y="3842" as="sourcePoint" />
            <mxPoint x="-1771" y="3830.92" as="targetPoint" />
          </mxGeometry>
        </mxCell>
        <mxCell id="YPNKjpNMcO8js8Rz8w9M-340" value="getJueFile&lt;br&gt;数据来源" style="edgeLabel;html=1;align=center;verticalAlign=middle;resizable=0;points=[];fontColor=#000000;" vertex="1" connectable="0" parent="YPNKjpNMcO8js8Rz8w9M-339">
          <mxGeometry x="-0.4489" y="1" relative="1" as="geometry">
            <mxPoint x="32" y="-2" as="offset" />
          </mxGeometry>
        </mxCell>
        <mxCell id="YPNKjpNMcO8js8Rz8w9M-341" value="" style="endArrow=classic;html=1;rounded=0;fontColor=#000000;entryX=1.4;entryY=0.136;entryDx=0;entryDy=0;entryPerimeter=0;exitX=-0.4;exitY=0.5;exitDx=0;exitDy=0;exitPerimeter=0;" edge="1" parent="1" source="YPNKjpNMcO8js8Rz8w9M-322" target="YPNKjpNMcO8js8Rz8w9M-297">
          <mxGeometry width="50" height="50" relative="1" as="geometry">
            <mxPoint x="-1770" y="3837.92" as="sourcePoint" />
            <mxPoint x="-1990" y="3792" as="targetPoint" />
          </mxGeometry>
        </mxCell>
        <mxCell id="YPNKjpNMcO8js8Rz8w9M-342" value="" style="endArrow=classic;html=1;rounded=0;fontColor=#000000;exitX=1.2;exitY=0.243;exitDx=0;exitDy=0;exitPerimeter=0;entryX=-0.1;entryY=0.114;entryDx=0;entryDy=0;entryPerimeter=0;" edge="1" parent="1" source="YPNKjpNMcO8js8Rz8w9M-297" target="YPNKjpNMcO8js8Rz8w9M-320">
          <mxGeometry width="50" height="50" relative="1" as="geometry">
            <mxPoint x="-2040" y="3832" as="sourcePoint" />
            <mxPoint x="-1584.5" y="3856.0200000000004" as="targetPoint" />
          </mxGeometry>
        </mxCell>
        <mxCell id="YPNKjpNMcO8js8Rz8w9M-343" value="&lt;span style=&quot;font-size: 11px;&quot;&gt;requestRemoteUpdater&lt;/span&gt;" style="edgeLabel;html=1;align=center;verticalAlign=middle;resizable=0;points=[];fontColor=#000000;" vertex="1" connectable="0" parent="YPNKjpNMcO8js8Rz8w9M-342">
          <mxGeometry x="-0.3722" y="1" relative="1" as="geometry">
            <mxPoint x="136" y="-12" as="offset" />
          </mxGeometry>
        </mxCell>
        <mxCell id="YPNKjpNMcO8js8Rz8w9M-344" value="服务端" style="ellipse;shape=cloud;whiteSpace=wrap;html=1;fontColor=#000000;" vertex="1" parent="1">
          <mxGeometry x="-1380" y="3880" width="120" height="80" as="geometry" />
        </mxCell>
        <mxCell id="YPNKjpNMcO8js8Rz8w9M-345" value="" style="endArrow=classic;html=1;rounded=0;fontColor=#000000;exitX=1.3;exitY=0.1;exitDx=0;exitDy=0;exitPerimeter=0;entryX=0.16;entryY=0.55;entryDx=0;entryDy=0;entryPerimeter=0;" edge="1" parent="1" source="YPNKjpNMcO8js8Rz8w9M-320" target="YPNKjpNMcO8js8Rz8w9M-344">
          <mxGeometry width="50" height="50" relative="1" as="geometry">
            <mxPoint x="-1574" y="3857.92" as="sourcePoint" />
            <mxPoint x="-1500" y="3782" as="targetPoint" />
          </mxGeometry>
        </mxCell>
        <mxCell id="YPNKjpNMcO8js8Rz8w9M-346" value="请求动态化业务的 引擎、页面、模板 数据" style="edgeLabel;html=1;align=center;verticalAlign=middle;resizable=0;points=[];fontColor=#000000;" vertex="1" connectable="0" parent="YPNKjpNMcO8js8Rz8w9M-345">
          <mxGeometry x="0.2054" y="3" relative="1" as="geometry">
            <mxPoint as="offset" />
          </mxGeometry>
        </mxCell>
        <mxCell id="YPNKjpNMcO8js8Rz8w9M-347" value="JsCoreEngine&lt;br&gt;动态化V8引擎" style="shape=umlLifeline;perimeter=lifelinePerimeter;whiteSpace=wrap;html=1;container=1;collapsible=0;recursiveResize=0;outlineConnect=0;" vertex="1" parent="1">
          <mxGeometry x="-970" y="3430" width="140" height="1140" as="geometry" />
        </mxCell>
        <mxCell id="YPNKjpNMcO8js8Rz8w9M-348" value="" style="html=1;points=[];perimeter=orthogonalPerimeter;" vertex="1" parent="YPNKjpNMcO8js8Rz8w9M-347">
          <mxGeometry x="65" y="272.5" width="10" height="175" as="geometry" />
        </mxCell>
        <mxCell id="YPNKjpNMcO8js8Rz8w9M-349" value="JRSystemConfiguration" style="shape=umlLifeline;perimeter=lifelinePerimeter;whiteSpace=wrap;html=1;container=1;collapsible=0;recursiveResize=0;outlineConnect=0;" vertex="1" parent="1">
          <mxGeometry x="-1137" y="3430" width="140" height="1140" as="geometry" />
        </mxCell>
        <mxCell id="YPNKjpNMcO8js8Rz8w9M-350" value="" style="html=1;points=[];perimeter=orthogonalPerimeter;" vertex="1" parent="YPNKjpNMcO8js8Rz8w9M-349">
          <mxGeometry x="65" y="260" width="10" height="175" as="geometry" />
        </mxCell>
        <mxCell id="YPNKjpNMcO8js8Rz8w9M-351" value="" style="endArrow=classic;html=1;rounded=0;fontColor=#000000;exitX=0.13;exitY=0.77;exitDx=0;exitDy=0;exitPerimeter=0;entryX=0.9;entryY=0.179;entryDx=0;entryDy=0;entryPerimeter=0;" edge="1" parent="1" source="YPNKjpNMcO8js8Rz8w9M-344" target="YPNKjpNMcO8js8Rz8w9M-320">
          <mxGeometry width="50" height="50" relative="1" as="geometry">
            <mxPoint x="-1480" y="3832" as="sourcePoint" />
            <mxPoint x="-1574" y="3864.92" as="targetPoint" />
          </mxGeometry>
        </mxCell>
        <mxCell id="YPNKjpNMcO8js8Rz8w9M-352" value="" style="endArrow=classic;html=1;rounded=0;fontColor=#000000;exitX=0.4;exitY=0.343;exitDx=0;exitDy=0;exitPerimeter=0;entryX=1.2;entryY=0.521;entryDx=0;entryDy=0;entryPerimeter=0;" edge="1" parent="1" source="YPNKjpNMcO8js8Rz8w9M-320" target="YPNKjpNMcO8js8Rz8w9M-297">
          <mxGeometry width="50" height="50" relative="1" as="geometry">
            <mxPoint x="-1584" y="3890.96" as="sourcePoint" />
            <mxPoint x="-1400" y="3782" as="targetPoint" />
          </mxGeometry>
        </mxCell>
        <mxCell id="YPNKjpNMcO8js8Rz8w9M-353" value="&lt;font color=&quot;#000000&quot;&gt;通过回调，将需要更新的动态化数据返回&lt;/font&gt;i" style="edgeLabel;html=1;align=center;verticalAlign=middle;resizable=0;points=[];fontColor=#00994D;" vertex="1" connectable="0" parent="YPNKjpNMcO8js8Rz8w9M-352">
          <mxGeometry x="0.2484" y="-3" relative="1" as="geometry">
            <mxPoint x="35" y="2" as="offset" />
          </mxGeometry>
        </mxCell>
        <mxCell id="YPNKjpNMcO8js8Rz8w9M-354" value="" style="endArrow=classic;html=1;rounded=0;fontColor=#000000;exitX=1.2;exitY=0.607;exitDx=0;exitDy=0;exitPerimeter=0;entryX=-0.4;entryY=0.457;entryDx=0;entryDy=0;entryPerimeter=0;" edge="1" parent="1" source="YPNKjpNMcO8js8Rz8w9M-297" target="YPNKjpNMcO8js8Rz8w9M-320">
          <mxGeometry width="50" height="50" relative="1" as="geometry">
            <mxPoint x="-1490" y="4062" as="sourcePoint" />
            <mxPoint x="-1417" y="3906.8500000000004" as="targetPoint" />
          </mxGeometry>
        </mxCell>
        <mxCell id="YPNKjpNMcO8js8Rz8w9M-355" value="updateDownloadInfo" style="edgeLabel;html=1;align=center;verticalAlign=middle;resizable=0;points=[];fontColor=#000000;" vertex="1" connectable="0" parent="YPNKjpNMcO8js8Rz8w9M-354">
          <mxGeometry x="-0.5077" y="1" relative="1" as="geometry">
            <mxPoint x="-30" as="offset" />
          </mxGeometry>
        </mxCell>
        <mxCell id="YPNKjpNMcO8js8Rz8w9M-356" value="" style="endArrow=classic;html=1;rounded=0;fontColor=#000000;entryX=0;entryY=0.6;entryDx=0;entryDy=0;entryPerimeter=0;exitX=1;exitY=0.75;exitDx=0;exitDy=0;exitPerimeter=0;" edge="1" parent="1" source="YPNKjpNMcO8js8Rz8w9M-297" target="YPNKjpNMcO8js8Rz8w9M-320">
          <mxGeometry width="50" height="50" relative="1" as="geometry">
            <mxPoint x="-1940" y="3940" as="sourcePoint" />
            <mxPoint x="-1416" y="3927.1000000000004" as="targetPoint" />
          </mxGeometry>
        </mxCell>
        <mxCell id="YPNKjpNMcO8js8Rz8w9M-357" value="startDownload" style="edgeLabel;html=1;align=center;verticalAlign=middle;resizable=0;points=[];fontColor=#000000;" vertex="1" connectable="0" parent="YPNKjpNMcO8js8Rz8w9M-356">
          <mxGeometry x="-0.5077" y="1" relative="1" as="geometry">
            <mxPoint x="-19" as="offset" />
          </mxGeometry>
        </mxCell>
        <mxCell id="YPNKjpNMcO8js8Rz8w9M-358" value="下载更新比较的逻辑？？？？？" style="text;html=1;align=center;verticalAlign=middle;resizable=0;points=[];autosize=1;strokeColor=none;fillColor=none;fontColor=#000000;" vertex="1" parent="1">
          <mxGeometry x="-1545" y="4157" width="190" height="30" as="geometry" />
        </mxCell>
        <mxCell id="YPNKjpNMcO8js8Rz8w9M-359" value="" style="endArrow=classic;html=1;rounded=0;fontColor=#000000;exitX=1.2;exitY=0.192;exitDx=0;exitDy=0;exitPerimeter=0;entryX=-0.3;entryY=0.057;entryDx=0;entryDy=0;entryPerimeter=0;" edge="1" parent="1" source="YPNKjpNMcO8js8Rz8w9M-296" target="YPNKjpNMcO8js8Rz8w9M-350">
          <mxGeometry width="50" height="50" relative="1" as="geometry">
            <mxPoint x="-1570" y="3810" as="sourcePoint" />
            <mxPoint x="-1520" y="3760" as="targetPoint" />
          </mxGeometry>
        </mxCell>
        <mxCell id="YPNKjpNMcO8js8Rz8w9M-360" value="updateDisplayMetrics" style="edgeLabel;html=1;align=center;verticalAlign=middle;resizable=0;points=[];fontColor=#000000;" vertex="1" connectable="0" parent="YPNKjpNMcO8js8Rz8w9M-359">
          <mxGeometry x="0.847" relative="1" as="geometry">
            <mxPoint x="-19" as="offset" />
          </mxGeometry>
        </mxCell>
        <mxCell id="YPNKjpNMcO8js8Rz8w9M-361" value="" style="endArrow=classic;html=1;rounded=0;fontColor=#000000;exitX=1.3;exitY=0.213;exitDx=0;exitDy=0;exitPerimeter=0;entryX=0;entryY=0.06;entryDx=0;entryDy=0;entryPerimeter=0;" edge="1" parent="1" source="YPNKjpNMcO8js8Rz8w9M-296" target="YPNKjpNMcO8js8Rz8w9M-348">
          <mxGeometry width="50" height="50" relative="1" as="geometry">
            <mxPoint x="-1570" y="3810" as="sourcePoint" />
            <mxPoint x="-1520" y="3760" as="targetPoint" />
          </mxGeometry>
        </mxCell>
        <mxCell id="YPNKjpNMcO8js8Rz8w9M-362" value="initVMCore&lt;br&gt;加载V8引擎" style="edgeLabel;html=1;align=center;verticalAlign=middle;resizable=0;points=[];fontColor=#000000;" vertex="1" connectable="0" parent="YPNKjpNMcO8js8Rz8w9M-361">
          <mxGeometry x="0.8218" y="4" relative="1" as="geometry">
            <mxPoint x="17" as="offset" />
          </mxGeometry>
        </mxCell>
        <mxCell id="YPNKjpNMcO8js8Rz8w9M-363" value="" style="endArrow=classic;html=1;rounded=0;fontColor=#000000;exitX=0.1;exitY=0.106;exitDx=0;exitDy=0;exitPerimeter=0;entryX=1.4;entryY=0.231;entryDx=0;entryDy=0;entryPerimeter=0;" edge="1" parent="1" source="YPNKjpNMcO8js8Rz8w9M-348" target="YPNKjpNMcO8js8Rz8w9M-296">
          <mxGeometry width="50" height="50" relative="1" as="geometry">
            <mxPoint x="-1570" y="3800" as="sourcePoint" />
            <mxPoint x="-1520" y="3750" as="targetPoint" />
          </mxGeometry>
        </mxCell>
        <mxCell id="YPNKjpNMcO8js8Rz8w9M-364" value="" style="endArrow=classic;html=1;rounded=0;fontColor=#000000;exitX=1.4;exitY=0.238;exitDx=0;exitDy=0;exitPerimeter=0;entryX=-0.2;entryY=0.191;entryDx=0;entryDy=0;entryPerimeter=0;" edge="1" parent="1" source="YPNKjpNMcO8js8Rz8w9M-296" target="YPNKjpNMcO8js8Rz8w9M-308">
          <mxGeometry width="50" height="50" relative="1" as="geometry">
            <mxPoint x="-1570" y="3800" as="sourcePoint" />
            <mxPoint x="-1520" y="3750" as="targetPoint" />
          </mxGeometry>
        </mxCell>
        <mxCell id="YPNKjpNMcO8js8Rz8w9M-365" value="" style="endArrow=classic;html=1;rounded=0;fontColor=#FF0303;entryX=1.2;entryY=0.55;entryDx=0;entryDy=0;entryPerimeter=0;exitX=0;exitY=0.717;exitDx=0;exitDy=0;exitPerimeter=0;" edge="1" parent="1" source="YPNKjpNMcO8js8Rz8w9M-298" target="YPNKjpNMcO8js8Rz8w9M-289">
          <mxGeometry width="50" height="50" relative="1" as="geometry">
            <mxPoint x="-2010" y="3830" as="sourcePoint" />
            <mxPoint x="-1960" y="3780" as="targetPoint" />
          </mxGeometry>
        </mxCell>
        <mxCell id="YPNKjpNMcO8js8Rz8w9M-366" value="" style="endArrow=classic;html=1;rounded=0;fontColor=#FF0303;exitX=1.3;exitY=0.333;exitDx=0;exitDy=0;exitPerimeter=0;entryX=0;entryY=0.231;entryDx=0;entryDy=0;entryPerimeter=0;" edge="1" parent="1" source="YPNKjpNMcO8js8Rz8w9M-296" target="YPNKjpNMcO8js8Rz8w9M-322">
          <mxGeometry width="50" height="50" relative="1" as="geometry">
            <mxPoint x="-1480" y="3810" as="sourcePoint" />
            <mxPoint x="-1780" y="3750" as="targetPoint" />
          </mxGeometry>
        </mxCell>
        <mxCell id="YPNKjpNMcO8js8Rz8w9M-367" value="&lt;font color=&quot;#000000&quot;&gt;&lt;span style=&quot;font-size: 11px;&quot;&gt;loadEngine&lt;/span&gt;&lt;/font&gt;" style="edgeLabel;html=1;align=center;verticalAlign=middle;resizable=0;points=[];fontColor=#FF0303;" vertex="1" connectable="0" parent="YPNKjpNMcO8js8Rz8w9M-366">
          <mxGeometry x="0.2372" y="1" relative="1" as="geometry">
            <mxPoint x="10" y="-7" as="offset" />
          </mxGeometry>
        </mxCell>
        <mxCell id="YPNKjpNMcO8js8Rz8w9M-368" value="" style="shape=image;verticalLabelPosition=bottom;labelBackgroundColor=default;verticalAlign=top;aspect=fixed;imageAspect=0;image=data:image/png,iVBORw0KGgoAAAANSUhEUgAAA7AAAAEcCAYAAAD+/Fh+AAAgAElEQVR4Aey9+dcVxbfmef+IXqtXr+7VtXqu6q6u6rpVdetW1b31RRAQUUEcEJnneZJ5RnHECRQEFRwQBEERxQH1j8ten4Qn333ijcjxnPec8777h7MiT2YMO3Y8mRlP7B07/+6f//ZY5j/XgWPAMeAYcAw4BhwDjgHHgGPAMeAYcAyMOgb+btQFdPn8JnIMOAYcA44Bx4BjwDHgGHAMOAYcA44BMPB3f//3f5/5z3XgGHAMOAYcA44Bx4BjwDHgGHAMOAYcA6OOASewTuB9AcMx4BhwDDgGHAOOAceAY8Ax4BhwDIwFBv7uv/tX/5T5z3XgGHAMOAYcA44Bx4BjwDHgGHAMOAYcA6OOASewTuB9AcMx4BhwDDgGHAOOAceAY8Ax4BhwDIwFBpzAOlDHAqijvhLk8vlqpWPAMeAYcAw4BhwDjgHHgGNg8BhwAusE1gmsY8Ax4BhwDDgGHAOOAceAY8Ax4BgYCww4gXWgjgVQfTVr8KtZrmPXsWPAMeAYcAw4BhwDjgHHwKhjwAmsE1gnsI4Bx4BjwDHgGHAMOAYcA44Bx4BjYCww4ATWgToWQB31lSCXz1crHQOOAceAY8Ax4BhwDDgGHAODx4ATWCewTmAdA44Bx4BjwDHgGHAMOAYcA44Bx8BYYMAJrAN1LIDqq1mDX81yHbuOHQOOAceAY8Ax4BhwDDgGRh0DTmCdwDqBdQw4BhwDjgHHgGPAMeAYcAw4BhwDY4GBRgT2f/g3s7I9R1/L3vzg42zW4lV96eAg6qxaNfif/t2cjHar8qWuU/Zf/Pu5rcun6vXzM3vFaxj3gmNuZmNO479256Fsx+FXs3kvrJuRz7X/b/bi7Njr72an3/4g+3/+2zONdbBmx0P9Ldv0SqOyXdvV+M3EtK3Ox0lX/2bW4uzombPZq+98mP2/f1vUg62Ne4/m9+x/Wbis5/w49c9l9fePY8Ax0BYDjQjs8i37sr/++iv/Xfnqm748NAdRZ0wZjz+/NjvxxnsZcv/++4Ps199+yz794uvsyGvvZLwkYmXsOUjv9oOnsm9ufpeX//PPP7M7P/yYk/m/f/z5yvL/2396Ituy/0T21gcXsmvffpf98ONP2SdXvsyOv/5u9szKrZXlrSz9OD546q3s7PlPssOvvjOpbXTCtdiPxYutB05m6LNsEaCsDiaJLIQ8t3ZnaR1d+lnWftgvJq5d2upX2am6F5rIix7f++hSjoXZS9Y00hOkCF1TftW2A43KNpHR83Z7AW565Vj+TP/p51+yf3jihRk5Th9fvlq82zbuPdZYB/d/+TUv//7HlxuV7druTMZ+W52Pk87OffJZgcut+0/2YOviZ1/k115/76Oe8+PUP5e127Pb9ef6m8kYaERgX978SvEw7ReBraqTCdXJN9/Pf5CmNoP1/Lpd2a+//V7ILhKu9ObtH7J/fPKlZN3/6z/Mz65+fT1Z/pdff8sWvLQxWf4/zn8h+/rGzWR5yPD+k28my7fpc1WZr69/m8vzzbffTWr3+s3bSVmlM9Lv797L/tuiFZPK03btOn68l+05dib77//136L1VPUjdb1u+/Tj5u3v+9p2Sqaq81X3QlX5QVxHNxrztz68UFtPLG6wwKOyLFoMQj6vs9sLfP7SDdnvDx5kPINYUJqp+rzx3Z0cq3/+9Vf29IpmC4r/9amXC5zzLGuiwy7tNmlnuuXtovNx0gWL3XqGPrt6Rw+2Vm47kF+DyDNHGad+uazdntuuP9efY+CfskYElknp7qOvZaz4/a2PLsRldWKd1AN8/e4jjR/SkNcHDx7kdfz2+4Psjfc/yjbsOZq9cvz17ItrN4q67977Ofs//8uT0fo/uPhpke+77+9mOw+dzpDl/KXPi/NYL/793MmWWKy7P/70c5Hvq2++zU68+V7ePtYpS6wPTCGJrUNgsVJfuvJlz48X6m9mMYB+MwkObyYRSPr32ZfXit8X167nxOaPP/4sdML4spqc0n9Yd53/qfatLDp++9zFSfLXaaPfeQZxf3WVUXpkjBj3f/lPT9XS1Usb9/aMrxPY0Xvh4pJ45+69fJzOvHu+1rh2xdOoll+ydmf2zrmL2Yqt+xvrAVdWvaMWrdrWqHyXdkdVl1MhVxedT4V8/Wpj8ertOS5jHiz/+z8uyFhwAXtt5kb9ktHrGb1nu4+Jj8lMwEAjAjsMhXQlsHLRYvK9ZE3vCiZuwbrOSwAXzrCPWFY1OcHi+H/8516S+9rZc8X12CSQfWUqf+j025MsjZC/nx+5n0EWwvYH9b8Ogf3ymxtReSAxuEKrXxDBUE4Rn1Qd/27Okuzg6bcyS2Tf/ejSpHrCeuv+r2q/bj0zPZ/0qLEGz3V0Ivc2lXMCO3ovVBZuGB88SOpso6gz7jMxz6m33s/1iBW7n4twM1GXdfvsOn/4PGErEvcwi+F1def5Ru9Z7GPiY+IYaI6BgRJYXuYQQAJVtB2cLgT2f/y3j+WTMx7wrK7HZHjs2dUFEcM6G+Z5/8Ll4jqW2/D6v/7booKA4ooXElwsrrSPm3JYVv8hbuTh9x/mTc0etC4EFrlx+ZUFmz3FYVArEZ8UgVXf2X+nVWT63zQIiuoJ07rth+XK/rfBM3ufwdi8F9dnHJfV3+ZaG5mw9P6nBS9lC1/enLvOc5+k2pYehc9vv6t2t6ZuJvMqQ1pFYJHpn55ens19Yd0kLKVks+fb6qFNm13HtIn+bR/tMdsSGL//+5+fTo6dzR8eE/jljz/+yMeojucH9zdumzzPw2dcWLf9r3LCGouG9nqd439+Znm+VQG9hfnBLtsY5jy3ZmD76dUmwZ1YcKQ9K8tnX3yd63GQWxF43hI4Ef3/z3//+CQ9IOP/8h/n5XpAX222ZLCo+OSyTfk+6GGUl55tOkydWznscVc9U1dXXUuez7+8lmPv8pWvophQPk+bT45dZ64zx8BoY6ARgWXihsWMySkuuBpcCCrn+G07cDJbtmlvvufTWtfu3vspI6iLyihN1ZkTm2ASzERY7YR1PbF0Q/YPTyztqZ8XPi6//HA5Ups25UUtF+PYS0B7lK7fup2cFOw78UYxWUcOWz96wtL4wvrdPedtHib3muzH3JBt3n4ddyWwyMG+Xckdus6J+FQR2LAeLHecY0KqsWa1PdXvzfuOF/nAnfI1aV9llHbBs+pggkLwIpEEYfejy1dy8khUSfqHC7bKpO4FrvdDJsgDQZloU+NG+vP9X7Ljb7ybxciF9Ij7vcqEYy35lVKX+ksfOU4RWKLesp/e1v/gwR8Ze7OJsqk6lfZDD03bVNttxlRlSdvoP+wvAdRu3blbjAX4t23UPWZBj3HB+lpGSFl8YRGPxTmNP2N649adfO96qj0CfrH1wpajPN4mRFWNleNZqXue2Ad4edjtF5SViy/PyTff/7infvry9ocXks/pWJuc23HodNEuiy9hPp7dbH1Q/0nZGsFzHwLdNphQql2rBxYaCAxl79l/+9izhYy0j1cEC6S615APXUCsY0G5bP0EIARTeBfZ/t3+4ceMbQChLvjftXyszvBcG53j4ST8lMXLwGOIfIwbz9yw7dj/Nnqmni66Yi6l/qQiDX9w4eH2JuYnMbn93GhPwH18fHwcA+0x0IjAMtHRS86u2vMS1Pn3Pr7cMxnVeaVhJL1UnUTsVZlYavd8yI2Xh70lMXWAgSVD9UMqbBlW2TUBi7kHKy+kVXWs23W4pw7lSaW8GEWSIdqpfP0+3w8CS8AS9Tsk6CI+dQgsfWOBg7ogL/qMxa07P+TnCAaU6j+LDpQLA1k0bd/W3wXP1ENADelX+rEpbl+KLslEU22n7gWud5WJOoggbeUIj2NBmqRHJtEiExATyRymWId+/Ol+3s6HFz/L2FtOOzECS7RXS/BDefjP4o9to6se2rRJ+23H1MreRv+2v2x34Bln9dSGwD60vj6sBxJoZbTHBDMSObNt2uNYBG8WOKrKxVzRwQt1Qw4vX314X9u2OOb5QDAbPS/C6/yHWNp+VB3jfkk59vyHlkcWSu1CbNie3j2cbxrAKdWu9IBnS0icv//xXtE3sEFU/FAm+x9iG35+RfUzRnoO2TI65tlEG6H+upYP6wv/t9U5717JroWOsO4XN+wu8tg5TJjP/m+rZ+rooisWY+gP25+sxd/KJgz9dH9iIdRe9+P2k2PXnevOMTDaGOg7geWBi0WH1UMsoPz4fI0mXqwkE3xAwEhN2jmPKxREVS8lJiac42frsJOZlKuw2gtTAlKpfqLA2utM9HSNlVR7zR6zf0z5jiWsCza/jrGuECSJsrjRNiW/qqdNKoJVFoW4inza/cO4F1o5RHyq6lCZC48+CYAunlq+Ja8L8iK94jqnvEpx3xYBCslX0/ZVJ6klDbTfBM9MgO2kEDdrvAnALFEj7TXqbkNgm8pEn8CvdMmYcF8RiA3M8V/Xwsm/9MhECWyTDxKBNdLqTMdMPlUXRCZFYCGEIrosEu068lruZs1iEJYUkWXuCzsB7zI2bdvsMqbSS1v9h/2F1BCVnWcV2yu4rjbqplhANUap776yECirOM9sLPfcl5BaFiNs8DmLBeIIaNGPMeQexn2Y+/fwq28XdVJ3GMGcBTzJRT/B4uzn1uTt2ijwYAJSiUzghTz2OQ75rasL8mG9ol3asOW4N/Teoi/gkr5IB3brA+WrPBNs3WXtWj1QL4tHPEPQP+2rHrvPnAVWAhZimcYN2Opry74TRRnKhvVjqd30yvH8ecD9i0eExgELn9pT2rW86omlXXSO1VVy741Eg+Y+VlRfFkVxBY7JEJ5rq2fq6aIryco7JJRJ/8EGfbbvEV3zdLQn3z4+Pj6OgW4Y6DuBZeJhX7IaIK0m8rC1ZCRFYFWuzh5YLKfUy2Qj5fak+mzKC18TFF7i9hrHSzfuKV6Iq7cfnHTd5teEDoJiz9tj9PLp1a/zn32xQZDCSYYtN4jjLgSWiQCRmDVZ4EUbyijiU5fA8j1a1QfRo758L+WjvcGn3pr8GRasTyoDTqwMap8X+8efXi39hRNPSxqa4hlCIJmwrLM308rFsSYd5LMTj7J7oYtMf//4cwXOmaz/X/91YY9M7KPU53JYELATO+kRAos7ou6XA6fin33S5Je+09cUgWWS/flX3+S/1Tsm31tMQKVHa03pooe2bXYZU3TQRf+2v5C+EKshtur8/+r6w096Yb2L5WdhTdsqIK+484f5iKSu8dGzESLL4gbnIXwhQaUOe59jvVS9YFCEkGdp+Cmb/2wWE8Hgixv2FGWpAwuVsMb3vVVvVcqihiys1gOH7SjC+r2f7kej7r/7yHJLf8kbu9dT7afatXpgIUC6DetBt7p/dh2ZHFgNsqvxgeirvK2f61gI8QLSdVJclK0FneeSrnctr3piaVeds99aYxn7NqpdXIs9c2IytdUzdXXRFc9gLc6WeX9pAbxObIJY//xctwm068/15xgYHgb6TmB5oMYGlG8M6oXKi0R5yibt5KlDYMnHJCu230fthCmr9pAHZGLChKU4zGNJWoyU2/y4alEX33u15+0xE3HpwKa48aUsIbZ8P4/rEFgmr0wE9CPIFQRdrr304eFkcvL+XhGfugR2pdHN9oOnCh0qSEXMjVgvb/ZrhbpR+1bPqeNwr6UlDU3xbF3fn17x0JIcysbkRBPENgS2qUwExlLfUwQIy5nyQPQks/QIgeWcrO58fiV0a7MB0djfR36RipgLsdqIpdarwe6Z7DI2sXbsuVSbXcaU+rvo3/aXhRgrb5tj7allrLHkxurAtVJYsIuNNi9kFYs8P3lM2D3xqecZxE1E1faHz8moTUts1SZy6/qFhB60jzMWy0D1hCnPddVrt6VA+nQ+9pkw6sGrQnmaBnBKtWv1UObeHfYj/G/vRfa46rqtn2dzSF6VT4vC9I9+6nzX8qonlvZD51qI+ySYh7D/XIvGoaU9Jkvdcyk9U76LrrjvhC22PaTk0byjCeZTdfn54U3EXfeue8dAcwz0ncDayaYdEPuyt/tg+0VgbVtVx+x7ZS8RLwhWbMPVfJW3K7apPMord8gUuSAfOtCkD1KIq5tW+ZEj5vak+vud1iGweoGmUohjas+xiE9dAgtpVTt2IsnLW+ftZNq6D1sLg/Sk9iGKuMGV/UKiaUlDUzzr80KMp7VkSi6lBBKhX20IbFOZ7MSQhQL2gYU/7knp2S4gSI8isHgtKF849lgKuMZeQlmj6hJYrC8QZ/ZSYx2x8hAUSnrrMjaqQ2ndNruMKW110b/tb9k2BvWpKiWSusaPRcUwP94V3NfkqXvvUoctx77NsF79hzCpfax/Oo+7sM5bwqTrfAJN15PfxHy0P7jJYoldpNS3zVmYERkuc9/EQ0Qy4VUhWeuksXYpZ/UgearqQ/fojMUpFkt4fjJ2ks0uvtr67XM2bEOfqaEOa4HvWj5sR//7pXN9m51FVtVNqvcLiyf2PWLzVB030TN1ddGV5EX/BESLyYY8eAiRJ9xCE8vv55pPkF1nrjPHwOhioO8ElhdzbMDty36YBBYri1ZpefCztygmL+es66Cd1If5rVUhZj0I89v/uCjJogmZlTXD5hnEcR0CS/AIXELtT4SbayIpMflEfOpOgvVNSsaElWvVSRu0xXnrRsyeLc4xIYlFaGzavtojtaShKZ619yxmFbZtsICB/G0IbFOZ7B4u2qz6Qdgkq/QoAsukSVFwL37+MGI0edmTLquy/RxVGYElWBdt6VuGKblSBLapHpCzTZtdxpQ2u+i/DhY1VnVSxhE9M/GNLbCwgKBxwPJcp07y2IUN+3wPy9sFS+uyq2A3eH2EZfhvyUAsUjAux5K7SSwB6cMGcLI6KOuLXZTtdwCnlB6sbliMwENFnkTqv01ZSOP9pHLSM2XKIvDa4FQKqkcdXctLjjDtl85Z3KP/uMDzrKId+qnnUJtvjbfRc1ddacsV777Q00W6+8cnJxZQ2J+t856O7oTbx8bHxjHQPwzMKAILGdL+L15yuLyVgYlJudzd2POVystKuSYNZUQ3Vd5GMbaT/1T+fpyvQ2Bj5FMTPvob23sl2UR8YnUoj00JJiUdhgGh+BwN16wbMS5inEu5gzVt38pShzSkFmSkHyZQqe810paiJ08FgVVb6AsX99RP19mnKH1Ij/RL5xR9msUMJlGct262uOcrryaOoVWM76/K0ke7/NhryN5ZLHiW9PWLwLZts8uYoocu+q+DRem6Tsq+SXStPcphGbv3uK4FkDpskKqYBVXtYLXXeFvXSLl3plwhRZxSxI4gYKq3rH3JoTQWwAkyUKcu6yWQcs1XO2Eaa5c8VXogD3vY+RyXZCRlfzTupHx33OKN+9e2rfqr9gnreUz+fpa3ddnjfukc7w3pRVuK5BIPGfwPDb6z3kXP9K2LrusEcLIxIJriz+rej/s3oXZdui4dA1OHgRlDYAnwoA/O84JLuWGG4JOrsd2vFeax+zet9ZCVXyys/MrIDPVpFR1rZ1j/IP7r8wtNAzAxKVCUUUL3E6giJp+ITx0Ci4uUAlbEJtZ2/zTuX1gEFCwmZSFp0n4ofx3SkCKw7P3UBIqFibBu/uNGie7INxUEVt9lDa0xMdnCc9KjJbC4b8t1jQjjlNGEK1xQSBFY9l9KT1h7bKRh6uN+0fV+Edi2bXYZU/rSRf91sBiOWdl/TapZIIjls3sfY54NsTKcs+VEHGJ5FYUba70sgDbYjR1rW15ypwguljXdT7K82fKx41QgJfu5I9zMY2U5x7ONNlnIKfNGCcun2q2jB+qygbBwXca9mveb2sGyjkUZ2ex9a+u33hMqp3SuCURng7V1La/6Y2m/dG73pC5evT3jWSXPkNhWk5gsOtdWz5TvoquHwageBkMrC+DE58wYY/oX+4a3+uHp1E2oXdeua8fA1GFgrAhsm28eAiZccLQ3hgc++3vqgoyVak1SrGXJlpc1k3x8xkDXbBAH3JB0Pkxxa5ZrbmqCFpYp+8/LjO/xvn/hcm4ZC/MSZVLtsZIfXhdpSZFPXHnpK7/Qsqa6qupQPiaI1oX04Kne736Sj/FTHtrG7Zu2IdJMFFSXTeu2b8vouA5pSBFY9nFKN+Ai5qYp92HyTQWBtQssTV3UpUc7EUZPskpiNbWB1myANvKlCKwsPPd+vt8z+dYY2HvHkpouY9O2zS5jSn+66L9Of6WzOqkWn1ITY+1jBpup5x0eEruPvpbtOfpaYdHCc0S4J2JwTBaIraIb2/btWCsCuS1vyYDFgs3DwhftY2G258uOU4GUrA5CbxDVZ4PsDCKAU0wPtI1XEFHr6SuLkDHigmu9xsK62Vs9l1lg5b7Kghf4U5+7llc9sbRfOkcfWtxkm4n28vL+0IJJrP3wXBc9U1cXXVlsWS8FKyPvRLwRGGfmNvaaH0/dBNp17bp2DAwPAyNPYO3k0e7Ns6DhZQOpITBNbPVdL2Qe9nbiZOtIHVvXyNiq9ZodE9+9DK1PWNo0gcdC9S//6anoi0bf10S+1AQtJV/qvAgfbreh9de6HsXcqEVaUgQWC+jPv/yavzyZkMYmrFV1IDfBtOx+ZPZWMpaxPmHpQz/0R+7DZZ8sqtN+rB3O1SENKQLLmCtAE/KyIEH0aRYNmNRYSwPXp4LAQhxoix96ieGQT0bhgsgPwiXdSI8hgbWTLGGNQGYh1oT/cKFD9WI9CD/rQx32u8D2nugyNm3b7DKm6LGL/uv0V2NVldpIvnyfNZYfYiqs4LYb5mGBjnuQPHwqBwsXeewe1Vj0XMpp7zRlbWAaWzZm8bQBnGLEjmeGFuRCnCEbrtBsd2AcbH8s0bPu0jaaMverLcMxVj4WXqSnWACnVJuUT7VbpQfKoh+1G3t2Yz1lXJQnFcApFcxI7raUD72OrHxtypfppB861zjduPVwMYNnljxFygJWxeTqomfk6KKrOgGc7Cf+IOrqu6fDm0y77l33joGpxcDIE1g76cLtkj1afNbAumzJLY2XbmiltW6DXMcSysss9WOyakHIZFoTNsoff/3dfCUXokxkYkUf5hoExZbl2ForqYcAI+zRggQ+u3pHJtc3ykNmrAX3Yfn3872C7BfkQ+1h/an/spBRL2SAgFRYMvhOrtyiuRbbO6OJforA0qZ9QccmuqoDua2u+d4trllMjljhRwb1HVKU6g+TDOVVWvbN31T7VhYdh/XUIQ0pAov8jK0l5pJXKeSfT4HwfyoILDLZ73ayT44FH6xLYOrwq28XgbKQx1q1pceQwFKn3U9OX7g3wvFLEVh7X3D/ci/waRbGQp9Okr76RWDbttllTKWPtvqvg0W1UZXyPVrplPs3lh9CqjEjL67BWO15fkBu9dkOrtmFDuqWWzxkEixAnua9uD5/ZssFmGthcKiq/a32WcN9F8pdFsCJCOOKYwCxsWX1jLQBnLhOG+wppY/qCwup/CD+9plPnjCAU1mb1J9qt0oPlMWKSJv8WDjiE2Donmcn7r4ibFwPtwyofpXnGcUWDN5HLLJJLq5zjXqtvrqUr9JJV51bOeVaq37iCRNb2KZMSq4ueqbeLrrSgntZACfen/QP7GoRyerAj6d2Iu36dn07BqYeAyNPYAEF+0L1MlIK+RBgLCGz4eQhg8pfNw2tQbTBJIyJvepgUmPJF+dT+2vYz4JMKptKIXqs7KtPShUBlQlVzB1V+cKUvsvVLNWmjQJqy4u0lBFY9nFJ70wQ7Uo/damOVNv2PHnrBF6xrtpMIsPFhlgfbDupYyZrtmwd0lBGYKmL/YN8UkmTZ7UNliGN2jM4VQSWCRyWIskRS3EvJZqs1YXGMUZg5cpNXdwTMeuZyFBoGeO7y7gfx+TgnF2U6heBbdum9NFmTFW2rf7rYFFtVKW4Heq5FXPVV3kWEVLjwnlwgvuw8ivFOlpVzpJelRO5TW2fEBloE8CJz2dJJj6NozZJhe3Qc4Zr1hKp8kpxUVVgOc6Fi4BlbZa1W6UHyU6QM8kSpli5teBK/1SGVPXjIVK2wIY7NotJtmzX8lU6of4uOrey2oBQ6AeSaq/b4zK52uqZ+rvoWvEEUp9wIhCV7mP7bLT98uOpn0y7zl3njoGpxUAjAsuqpCbkdgXfWklTUXhxF9XL1lpJU3VaIFCWQC+WkNlPJew4/Go+qcJ1ylrx7ORPbZel9I3PPNi2dUy9lkCpHqwOtK98qRSrA9FftQdN5ZlsYIXFxTRWVq5q4YfZY3nDc1hNYjKzahsSCltWL9DYxM7mswSGb9raa6pD/bQp48jkCkLF5xOYWNuyqWMbaTRFvlW2rH0rC8dh4KgueFb7SrFiYCHCwggedV57BnGh1bmye6EfMuFNgCVQljLpgckQ+6hiex6lRz5zJDmVsoghV/LQ3VB55F6MJ4TOKSWCMXsWtS8SebAg4S5uA93gYq8yXfXQpk21rbTJmKoMaRv91+mvbaPqWONRdf8QuEqLD8IJBPKTz7/scf8N24PYhhZKFjcIGhUjEowz12kjNRmXS2iK4Oo7vSwGhZY23hNgisWSlze/UuDI4iv26TPGCldoBZdDPt4PPIfxANLnWpDdegOhj1SbXEu1W0cP0jVbAFgc67lvHjzIt8fwHtF70i46hfuIWYxRfAeNL4uk6BLMqS2lXcuX6URtdNG56iC123pY/LDXwuMyudromfq76Ar8ao6Q2u7Eu5sx4z0eBr8L++f/p3ZC7fp2fTsGpg4DjQjssAeGAA24y8Qe2kwAeAEOWkassbz0IG/szYpZbMtkoA/sUyJCYoq0qjyuqJpcxCweyleWQg4hJrzUCQgBqa1LGMvqHcY1TRrRCf0YhgxVbbIAwkSdX7jnzpbVwkKToDO2fJdjLNcQORZl+LRMLBBMl/qblsVLAYxiIZ2Kexj5mrTZ7zEdpv6Fu9h+/nDcJCfPvCafH7HlGNPUvvawvUH9Z2EoxLj9bi3P81TbjP2c59bkpL1JP2Jt0kbddlPy2PM5hpesyd4KWJQAACAASURBVPf4Vt03NqiQ3UfMOwbvGbZolHn4dC2P3Cmd2D5x3FbnqkfeGyxcxFzOlU9plVxN9Eyd/dCVZAtTnttauEgt+IRl/P/UTahd165rx8DUYWCsCOxMAwYTCxFYJoIzrf+2v7hEs+KMPvgckr02SsdMCH/97fdcTjwC8B4I5dN3VOlLLBBLmN//T90DMabr6TSmivaKq2msrzPlnAKt4Q7M+E5Vv4fVrt1HHHP1r+p/1/JV9ffrug2A1HbRt6ssg9QVXxbgvXHrzg+NF8+79svLD/c95Pp3/TsGejHgBPZf9SpklACCxZSXFXtNR0muqZSFPXMEGbJ7tsI9Z1MpT522cElk3PjhIozrI26xuG3KJZdruGSmPtNRpx3PM3X37nQZU33jE9fX2OLKdMYUVkrcarVHlHswFkG43zoYVru2H1X7iG3e2HHX8rE6+3UOTxKCURG8SZ/QYaEgdCfvV3tV9QxKV7jA48bOAmksXkaVXH596t4XrmvXtWNg8BhwAjvCBFafjontP5wpN0e4n65s7+6o6IQ9ceyfY7IhIhum12/dzt14R0Vml6P8YTudxlSLKGWBnKYjHnCFtvchUbTD/auD6Pew2rV9UVCh1D5imzd23LV8rM5+nbPfeGd8CZQXRlDuV1t16hmErljoZDGU/q3ecXDGLmjX0b/nKX+XuX5cP9MFA05gR5jAbj1wMo/GSgCg6QK4pv3gE0DsE4XEr94+Xi9ugjcRnZo9WXy6hn2Hx15/N2MPGvu8murC8w//xTMdxpTAabgSbztwckZhkLgD3It4QuDZMVUWumG1a58XLPwx5nb/q71eddy1fFX9Xa6/9/HlnLRiXeedOewYD4PQFaSV8UsFyeyiPy87/PeKj4GPgWOgOQacwI4wgXVANwe068x15hhwDDgGHAOOAceAY8Ax4BiYvhhwAusEdkZZYfxhNn0fZj62PraOAceAY8Ax4BhwDDgGpj8GnMA6gXUC6xhwDDgGHAOOAceAY8Ax4BhwDDgGxgIDTmAdqGMBVF9Nm/6raT7GPsaOAceAY8Ax4BhwDDgGHANVGHAC6wTWCaxjwDHgGHAMOAYcA44Bx4BjwDHgGBgLDPzdP//tscx/rgPHgGPAMeAYcAw4BhwDjgHHgGPAMeAYGHUMOIF1Au8LGI4Bx4BjwDHgGHAMOAYcA44Bx4BjYCww4ATWgToWQB31lSCXz1crHQOOAceAY8Ax4BhwDDgGHAODx4ATWCewTmAdA44Bx4BjwDHgGHAMOAYcA44Bx8BYYMAJrAN1LIDqq1mDX81yHbuOHQOOAceAY8Ax4BhwDDgGRh0DTmCdwDqBdQw4BhwDjgHHgGPAMeAYcAw4BhwDY4EBJ7AO1LEA6qivBLl8vlrpGHAMOAYcA44Bx4BjwDHgGBg8BpzAOoF1AusYcAw4BhwDjgHHgGPAMeAYcAw4BsYCA05gHahjAVRfzRr8apbr2HXsGHAMOAYcA44Bx4BjwDEw6hhwAusE1gmsY8Ax4BhwDDgGHAOOAceAY8Ax4BgYCww0IrCz5szNzrz+Rnbh4sVs1Zp1fengIOoc1qrB/Cef6otOhiV/13bnzJufMZ5d66lTnnbmPvHklLRVRx7PM9qrldPpORPD2slTp7NXXzuTbd66bUbdEy8sfSl7ecXK7Mmnn5lR/RYG5sydn61Ztz5bv2Fj9tjj8xrrQPpb8vwLjcp2bVfyT6d09tz5ORbB47wF4/NuGtexXLrs5Vzf46Tr6YR378toz3lmwvg0IrB79x/I/vrrr/x3/fqNRi+8lDIHUadt662338kuXbqcvXP23b7Ia+t+6pnFOaG/eetW9ssvv+R6uX//fvbll19lb79zNlu7fmPf27Ttj8IxfXzv/Q8y8PDgwYPst99+z65d+yY7++572eLnnq/s/5LnX8zOf/RxPkYfX7hQmh+CfOrV17Lbt2/nbf3555/Zjz/eyxdUnn/xpdKyg9BVGbbAG7iL/VgAgnCguzLCX1bHBx+ey7G3c/ee0joG0e9xrHNQzxmN0ZtvvV0Lf3te2Vdg4pnFz9YqU0ff3Hs8mz88d65vddZpd5h5mMCePn06O3bsWDZ3/oIZ02+r8x07d+Y6QA/ow16rc3z8+PG8/NZt2xuV7dpuHdnGLQ/vIMaB36JnlzTS5zD7Ogpj+eRTT2crV6/Jtm3fkR06dCj/gcnlK1dlc+Y9EdXlzl27cl1v3LQ5en2YOvW2ndw5BgaPgQ4E9npfHhq9E8vJdS5dtjx7/4MP818bQnjz5q18Yvfd7dt9kVeg3LFrd/brr7/mdYvUh+mDP/7Ijp881dd21f4opJCn33//PamDH374IVu2fGWy/7v27M1+/vnnojyT8FS/sG5fv3GjyBvq+rfffss2bt6aLJ+qt8v5Mmzdvn0nKauV/d69e9nK1Wujctev46eczP7tsTnRerr0cbqUrXrOtO2nxujbb2/W0j2LHhp/nm1t2w3LzTQCu/DpRdnJkyezU6dOZYuWPNc3PYZ6HfX/Bw4eLEhT0wWR+QsWFmVXrFzVSIdd2h11nbaVb936DYU+yxYm29Y/qHJDHctZs7PVa9fl97HIf5geOnQ46m31/ItLc32zCDNr9uON8DsoXXq9gyctrmPXsTDQiMDyUH7tzOvZRx9fyFatiU+6VXHdtKrOrdt3FBO+I8eON35IlZGMujKG+fbs25/98ccfhVyQsHPnz+e6+fDc+ezGjW+La0xW0VdYx7j/h3xC0Onf7w8eZFhPjx47nr3+xpvZjW8n+o9umGza/uL6i6VIE3mlZQT2s88/L/LfvXs3O/3amezI0WPZlStXi/P3f/kle2Hpsp62bLv9Pi7DlogNFumvvv665/fdd7d7iD9yb4isIqsOFgmuffNN8UO/WJ6xQEt3pFj+Q133u8/jWl/Vc6ZtvzRGTmCn7qU6e+687PDhI/nkdcPGTVN2v7fFyCDLLXr2uWzzlq3ZkhdebKwH3IdFFp5Z3Mxi2KXdQepjmHXv3rMn1+fBg4caj8Uw5R7aWM6ane3d+0qBwSNHjmSbNm/Jra7c1xBX4ZP7/Z9nze7RK6RV1198aere+8McK2976t4zruvR13UjAjuMAR01Assqt7UafvrZ51ls7+v+g4d6LLRYK4ehv0G1efWLL3LyBLnCGm3bwdVX1yFWWL90fcWqNRkETsQLInbru+/y/ykCi2VV+bFYPvlU7363c+c/Kq7jjqy2Bp3WIbApYvP0omezCxc/KeSGoIbyVpGjJS8szd56550eInvp8qeT6gnr9f/9ezBXjVGoa7fAdtc9hI2J6/HjJzL2HYY69v/1dDyuFsNRHd+27tij2p9By6UtANzLuAuHVmsWqvYfOFCQ1KcXLZ50rx85cjS/zjNh0PJ6/fWeK64n19NUYWCgBBZrEOSDfY5tOzRVBPbx+QuytRs2ZstXrs7KXDHZeygydefO9xl7N1J927Jte5EXQpfKx3ke3i++9HK2acvW3KV0wcLmAaEoTxCXlCsZbbz08ops05ZtuWvv7BZBP5CVcrjsoodPLl2K9mv12vVF3+3e1rfPni3OY1WFyEG6qCtFYD/97LOiDFbeUI+sIMudmzpCghvm79f/LgQWGcCZrNXIHQalqkuOjp04WegHPeIh0K8+xuppc1+DPe4t7rGwn7E2wnPsL1u3cVM2b8HCaN9wx92waUvyelhf2X97L1Y9u+qOkdqrS2Cb3qvgh7GvsweWvfsbN2/J95zx3JNsVWlTmWL1VT2jYmXsOQK24DbMpHfV6jWlsnN/4Sb71DOLsllzmrkYTpRdnM0jWFxg/bEypY5Z2HyCwH6xsrNm59fy90fseh+jYBLciXs2lGWqLIa8yxY+syj5XkXX6CG2EJzSrT3PHkkw3XYfdNfyyAIuZQ1csWp1gUveleAvDzTUYpxHBUPSd9VYKl9lOmt2dujwQwsr1lUwECuDe7H0GpvX7NmzN7++a3fvInqsLj/nxMoxML0w0IjA8vDCbZHf62++WTxwmOTp/MnTr+YT6Fu3bvVYhn766efs0JGjRRkBKVUnk/LQRZIJmtqJ1aU6bVpGMsiHZZQgTHKHpY3cZfPaNxnWQlsXx1gAlSe1d9GW+eqrr/P8yB3b84a1koBHP9+/30NCcFH+/MrVfJJp6+M41DcBgX64e7coH+67pQ2CzeCqiuz6EXiKAExcD9vgP4Rg6cuT9+kRgRo3Xn4Hce2JTLZ4IUmnX319rcgDgUW/jK/KVRFYFgqQ+fadO8kX3RtvvlX0C7lV9yDTMmzVJTYE/9F4bNuxs0fuunXQR1sPrsTq99r1G4p75v0PPyzO67pSMKN7SwQ4xBnn697XqhfSSYAv3MzVT7DNnvSjx09Mkidsk/tc4095ZMQlnwkvGDtx6nSPRwR137x5c9IWh9RzRnKSMtnkPgnvxXv3fspYREE2m5/jJmNE/ioC2/ZejRHYUJcPx+J6MQ7oExd3FuXKiGwbmcK2q55RoV5T/2V9PXHiRJKULlj4dG7RYY+sJr+Q3gMHDmZVez0pu2379nx/rcqSYl1bszYeeX/lqtU5qaYNSBRukEePPrQMqaxcfB+f/0R+3cpGXzZvaf7MItotbebtRiKyL17yfLb3lQkXTWShLYLlQKrbWgxT7Vo9QNiwqhFgS3rssZbPmp1HkMXdFvmVB/kg1jEyaut/fN4T2bLlK7LDRx66kqs8pGjxc/GIyl3LpzDJee3HRA4COOGebfeWcv7osWPZS4lAW1a2UcCQlSc1lmwjE/7yxZHIPADdvPLKvjwfWBBRnf/kxP5rPAFSut2y9aG3Bfrj3gnzgTGuHTgw4eUV5vH/04u0+Hj6eAoDjQgsli1NQm3UTawjOn/50896Jqs6r5SJjBonTdXJxFRlYin7H209qeMyksF+XibEqt8ecw6iZV1/mQAqL8Q01aY9j5snVlF+WBvtNY6xYKrOWAphfiHY32H1jWU3lDsksES9jdWtcxcvfjJJLrnlUrcITSh72X8sLaqffcHKi7txPoEyL7syAovVR5Pzjz5OuwdDWtXe4ZrYkExt0zJs1SU2fJZKcrOv2MpStw6VYZGIuiBxNgomwbQ4j7u28oYpiwzkwZItS4jFWdP7mvqPHT/Rs1dc/bQpLtBWlrBNLYLYMhxDKC0ZDK/j5r9sxUQAsdRzxrbNfRDWY/9DZNcHey6bjpGVObag1eZepQ+6R6wF1uoSLwieZ7Y/9jj2DJBu2shk267zjFJbZSkTaZEdSGIsL1YaETMmtrEfn52Jl11SWRbyFpYlcirtQL527X64DzJsF7m5J48YYhvmCZ+LYTvhf0vmw2sQKOkqbIf/7DHU+SpSH9adald6gJyHxJn9jaoH8mldQyWHTSG2uJCqDKnqZ3x1bMvomHGgDVu2H+XD+ux/6469Zeu2QreSSSljEvvkk/ozKhiSPGVjyb5T9Su1aMD8R3kszvAKED4hoVaXOmaRUnmIOKzzNhXBhRzb837sJMcxMP0x0HcCy6QIyx6WWCx1/LDyiWRhBczdph4RmNTEkvNYQCGqmmhhZeMcP1tHGVBTJAOLjCZ0TOwhVlghcLHle4qSl4BMqv/wkaOFLGXWLOWvSt997/2iPvaBQu5Z1YQwXvxkgtgySbbk104O0Q2TVyI1s9cUl2uuq22CKkl/7MdEn7RBX/iva+hWZUhFhriechO2+cNjrGSq2+6BDfPxv4zAvrxiVVEPfYmV5xyf7FF7Z997L5kvVb7N+RS2qKsusbF7hflkgJWjbh0q88WXXxY62Lx1YlIASZRuYpGaccGG9JLHEpkQZ03ua0iwLJngk8UiyB8LDXxiyu4jx1KkPoRt/vjjj7nnBrphX7nqVH94nmDJ5fr2nbt6AqjRjupNPWd0Hcur6sTSf+rR8wsPA8i7rn3//fdFnZRtOkZlBLbtvYocVQRW8jO+fMoHyzyLJ+hX1/hElfShtK1M4TiWPaPUVlWKBVST4RgJ4FumsmwyocX9kH1zkFq+kwo5UPnw0xxYSFUW6ynPSMri+rp6zdriGnlCaxOf/VC9XMd6xfuJ8jZIDXmYkNMPXHrJwydAVBbyW6UDex2rE2Vpw56HWGjiT1+QHxdb6UHtKW0awCnVrtUDdUNM2OeIHvhJRn3+hDz0f/GS53LrGjJafb0UeP+E9WOpxaLJeEDY9+x96E6qttWe0q7lVU8slTu2dLpv3/7cwoxFH28E+6kaLJJhHVa2UcCQlUf6DMeSZ6r6G1vYwcp/8FGUbOqT9VV9tzoDo7onsbQuX7GyuOfY5xpbkKAeWWDZD696PZ3+xMXH2McYDPSdwDJRYY9lCLCLn0xYN9h/petVE8tB7YHdd+BgMXGLuSMz4f7m+vXsm2+uF3sqrbWsTURk9ZmUaLmaOGJljX0z9eMLE5bTlMUb18zQ9VTtPPfi0oKIMylngqBrpExomJAjBwTG7i/Easr53AIbeeHaesJjrNZaAIgFJwrzlxFYJtvS04FDh3vkD+vRgsTnn18pzReWa/u/C4HlZU4kZfWNwFahHE3JkSVhkD3Vx6KM2sFdVOeVYrHXde43nbckpOl9zV7u/P65fj3qZn7GLKxwL8baxBocWqXsvnIwhleEypKy0INbLP354osvi2tlzxl7L0KsuW9snRwLo9Rrg5ZpjNgTjut21Q+3e+naWmC73KvIV4fAnv/oo0n9Yq+67hvqsNsJushksVP2jAr1XPYfUsCEGetdmG/O3PnFhBfyGlvghLRrwo3Lp+pg4mwJX0hQyWf34tnIx1iSVCcEmWeq6iXFaqzrpJOe87NmF+7GTOht2bJjIrBK5vUbJ743PveJBcV5XFZjfQkthHi5lLVlr6XatXqAgFn92vLIA9HkB0mx1ziG6Epf6FzXbf1cx0IY7i3GRdla3+2+567lJUcqPXbs4fd0kY2+hZ914XmvPZ/ksfi0so0Chqw8ZWNJnwoMbpjAoHTE4oLGMrb9gvHZuq3XWk17KsMx9+xjJfhk7yv5cddWu546uXEMzAwM9J3A8smQGHggNZq4WcJYNrGknkERWPtdSCzEMZnDc9ZiGrNkhfnL/tv2dwcr6CpHsBtZqtgPq/N2cnjVTNJ1XSmWXOk8RXItkYd0qCwpLw87ybbXUsdr1m0oAjwxMcYCn8qr8yIHTKB1Tqklebhh63wslass+zRj1/t9rg6BxUKINVo/XDkh2JKV8YGIxTAgcpSKZBz2B9Kq8caCaK+zEMO1mBsx9yzX7v74Y08Zi7Om97VtO3bcYzF/d8JibtskyFdYlsm2CGpqnBUY6/vvfyjKlz1n7D1gybRtG/dP9qpj3bf3ksZIem+S2nur671aRWCxtFpyavtmrazc87rWRSY7jmXPKLVVlUJQNbGN7ZkjoJOuEzQnVh9EFfdhftYiyCKJysYsu9RlP9mBNU31472gspbY6rqVe8fOuBuk9nE2CURjiZ79hIgl2lh5JYdN8Y6QzE0/+ZJq1+oh5d5tZUgdY7GUbOxxVT5bf27BTAREgsyrvLZCUEfX8pIjltpFisOHDyf3ZkPYJZtdyLCyjQKGrDxVYwl+6JO9J9AR5Ba3ca6lFmZ4JlO/dBKm1I0sMZ3rnNpvcu+orKczg+T4OE/fce47gWWSFwMMkwRN7uw+2LKJJfUMisDitii3SeRi0gtZwiLBwzfWBxsoh8ldLE/dc0yEpQ+7XzEs/+VXX00iHnZyaINphWUZC7UBuYEkhT/GQnliLoRhnWX/2ffKPkHqS5GyWPkyAstih+SLkTxbn9xLU2TL5u3HcR0CK9lTKaQxhSWRo7oElvFTO+Eecfaj6ppdfGGCoPsgvHctzsJr0l/qvtZ1pQQDY4GEfb645Vrc2QUk22bKZVzu7ZcuX47egyz20FcWCdR+2XPGLkxZd2aVLUs1RliLWZio+snjAfksge16r1YR2NhigPplrdo2sFYXmXrG0QT8U5tNU54tmuAuWjJ5Ugtx4HrMPbOqLVnG2LeZzDtrdtF+bv17tAUGd2HJZQmT6rFkIGaV7LFoRqxYqidMcdlUu4WVddbsIqhRWV9YGFXZ1P7DsD39j7b7t8dyt2nVWchj4hyofJgSzAcXZty/IeKMn+rpWWQweraEPazP7kW1Vk47Tm3Kh+3Y/zaAE66w9po9hpCrb9YiaWUbOoYajuX2HQ/3f4deEURipq9YaO04SB+WzGNpxXUcd3J+r+ybwAB1KACaytpUFtsqom3L+PH0JTQ+tjNrbPtOYCGBMRBZN8ZRILDICHGIBYm5f/9+RhAja40gv3W1tC69sf5WnVN0YiysZXnZayviocm1nRym9E2duDOqbJ2U75KWyVJ2jRVlOzm3UYbLynGtjMDawFmhVdHWy4tffWTs7LVBHdchsFihicJrf3Kv5lrKSoLMIkd1CazdN23dXKmLduQqat2Ij5tP8LDf2OqqDs5S9zX1sDADpn766eGihsYnTFMENoXtgsBe6g+BVQAr6rX9r3PcdIxSe2C73qtVBNbuBw77xdYCjYm9d7rIVAc7oRxl/xU4iAlruMDIc1HEINw3WVYn12zZZcGeS1sWd0e1wX5aXVOwm1QQGUtOYp+PwuVY9eLKrnqrUukDl1PlrdsXnpVq0wbWUT1laaxd8lfpwdbJYgSfP2HfouQIU4iPdcNV/fTXnrf1cmyDU+EKq+tdy6ueWGpJMy7csTycY5+++mmf+5JtFDCEnFXy2P5pX7rFIS6/9IW+xoilXQRhW0BswYNFBrknswc2dBdHBj5vJX2WLRxYef14ZhEcH+/pPd4zmsACbiZaBDBiD6KIhSZz/Ld7XbEe6RpRULvcHCKwVZPmLgRWE3Nkxt0y9dN19lC26RMvYz5FJN00JfdlBJbVW9X7/gdpV2+CrihfV0tyXR3UIbAx8nnp0uVC1tNn4gs+yNCUHPFpGukgDAhFfZc/ffi9XetGLBzaYGXqfx0SkiKwfPMV67LkIWVhiE/i4O1gydGwCaxkwYKvvtdNm45RisB2vVerCGwY7dn2L0Vgu8hUBztWhqpjBeiJ7XWTtYfJbGwyXFa3JZhYA1N5sRBqskwwG+VTsJuUC2MVGbCkpqx9tac0FkiJSbxkLKsLoq58/Q7glNIDcuP+v33HzqJtZGBBAjdQrG6UlVyhRU96TrmjSi/79z8MbHUoiJfQtbzqj6UKRhS2GeZVIKeQhEu2lO6mEkPIXCWP7Rf3ucZMn0nCRZ9zLFDonMqw+KB9yox7jJgqr/pNXbF9sCxWqe2mOFYbnk5vguPjO73Hd9oT2NuPJvWxIDkhuFkNx9WWwEOaeENitV8lj1z86HuW7CmLraiHdRJ1FUsSP7vCbt0WS12IH1lRLemoOzmEGNAP+hBzTQplbfMfHVh9pVxNy+ouI7CUk1ty2V46u/8ztD6Wtd3lWhm2yogNrqMiHET2DQO/SKayOpRHKZMGuQJDEnXepnYfOm7E4E5lrFeEytTBWYrAEhVb9xBWPXkPqG4ifuv6sAmsdZXlsw+SsU7aZIyoL0Vgu96rwlPqMzplLsRErNZY4GqufneRqQ521E6dFHLAZDX2OQ0soprIsh+xTn3KY/dMxr49qnyaTDP5lgXQBrtZm/g0TxUZUEClJlFUaV/WKRvAye4nLLMEWjfdfgdwSukBPdr9ubgu415trekcQ+4YSyy90r3Vc2z8lY9tAsIBe6J1vmt51ZNKFcAptriiMhA5jZm1SlrZUrqbSgzVkUd9ImVOJJ2zEMY+c40hi0M2L8d28aTMlZu8NkK3IhTb+vheM21zT5YRYVvGj6c3ofHxnVnjO1YENvy+KUFJ+MQF1lC+GxuC99nnXyisqleufjHpepjf/reWT8iRrkGiNNkjMI/Ox1LkU7AeopTaT+HYwDGpvZ2Qw6ogTik3S+SxpM5+ViUma5tzTH6uPNpviE7aflqoisBeu/ZwQQEiTpComKyyhiKHXSiI5a1zriu2qogNbrzCkXXptbJV1aG87C+1brqQJF2zKeOlfLSJmzcyQH5iJLoOCUkRWFmDsbrGFnpYZFD/h01gbbCiVKRrPAGITE4k8rXGhbTuGGkcUgS2671aRWDLgjjZiNBr10+4x3aRqQ52pJM6qfa6bdjUG3WastZtNLbfjjzzFyzMXTixeLJ4ojY3bp74jE2K/EJsY+1X7W+tQwYgPUzCsTBLpqo0FUgJ3YhM0N9YPXwWSHlyC1iNfaqqJ9VulR4oD+kW0cutq5EgTNa1lGO1a+svs8Bu3vIwIBBE0X52pWt5yRFLbQAniGYsD+fwEJLebZAxK1tsj/RUY6hKnkn9mzW7uDf4lJEwyIKTXZxQOetuXbZwz7tKbsi5XkO8zJpdXGcfrur3dGYRGB/vmT3eI09gCfyiiW5sj6Ym5Fgo7cQEYJftWcVSgUvt9evXo4THlsVypRsFeSBSkslGVFYe0tmPz8ssSbGWEa6/8FLwGR3zLUzVU+czOmUEFkuf5GSibQm02uAzNZBsfpaoMxGE4ECuYy8iyttPI8U+0aE2qtIqAsvihPqBu2dYH0GBdP36jRuTrof56/5viy3qryI2vLwJ/IPc7MNeZiZskq+qDvKxn4xou+r/D3fvRoNmqE5Z1bhf5D6c+uxQHRKSIrCSnT6Gn2/iPrXfrB02gcXqKv1BuLk3pS+ldn8xWwl0Xv2MuYorj01TBLbLvUr9VQSW/tn9rZKJKOGK6kwdNlJxF5nqYEcyVKU2ki9EIMxv3XCxlIbX+a6kgjzxXVSezcpjIxBby5iuU1YWMAgIUXJ1zbofxyyeVWSgx5JqFkWoH1doAt3ErMKW6FmX6aq+ILtIAX2JBXBq1a4JsBTTA/3hvAgcckqHSrGeMjbKkwrgxHVLAFXeRqEOI+LacWpTvkwnNoATdcdIKJZG9St0jbayxXQ35RiqMZbSuVK5s3P/yMqcCrxkvSViEZepk/tCngnoLWapXfzchEs/n+uRLJ7OFWz/swAAIABJREFUbELj4z+zxn/kCSzR+jS5xN0Sa8GGTZuL4DefmP2ETIoJ+oM1CWIm11PK209fAHJZn7iG9Q6SCmnjRYoVhoks10jthIeykDXJxKSPiSEBnyi/YtWavDzk2OZhMhjeXNaNmPwnTp7Kv3uJ7BcvTnw3l2+4WvLZZHLIvlHJcfPmzbzfTPiwtLx99mwR2AcLsbXCfX7lSlEutHzTD+siSv1Hjx3P9wuzZ3jS7+ixSTq0uqgisBAeCJf6gd5wXYJYQ7AVfZjrKfdhrMNYofhZK5OVIzxuiy3qqUNs2HutPsVcPFUHMludghP2K+MNYBdTGEMbYTjsD//tXmG1Dd5ieevgLEVg7eINBHn7zl0ZRJG29EkftT9sAkvfbYTxO3fuZAQM415GXjwtJCtjYnWlMepKYKmz7b1K2ToElj6wKAYBJ9o6+6/td2mxMNu+dZGpDnbCtlL/cR8UAYi5JfJ8tuQHt1oIEJ/E4VmnT21QR+giTt0idUy+ceOk7MKnn8nYWyvyyrUwQJTciikfk72XnEx2beZ5q35ZrxGe9Tp/wHwjWW2kAinh6SBLsfrC4hE/7nurI+oPAzi1bbdKD8gNKVGf+LwK+4jRPRZhyKfkJg+yk1/9Vf0qz3jiisq2GIjSlq1bi7oPHjyY16uypF3KV+nEWhSR78jRoznmeD+x9QiSRn+4hv7tgoOVbVQwJF2l5LF61bFceTU+BOjStTBdvGTis1PkB8uQdFysmXtBRnXPcZ09zTH3YLufOJyfhW36/5lFany8Z854jzyBBYxEcNUEUqk+E8KLH2Kr87H03Pnzkx6ovPwgdDa/JQOcZ1KoduxNwQMTa7AtmzpmggiptuXtsSVJsTog4aFFqMnkEJKHm3Wsbp2jn9aqhHyW/EOmrczoXGXrpqEVztZXRWDJu37jpuL7srTJWIXjVbb/Fsss5X5/8CCbl3CvszJx3BZblK1DbMCg1XP4nVvVUUfH5IVwhX2I/bfu1pD/1ASgDs5SBBbLnhaBYvJDanV+FAgseuIbvZIpluLOHy4QaIz6QWDb3qvIXkVgsSArT6xvPIdiWGkrUx3sxNqLnps1uyABMQssZaxFRhNpm0KQILOx+kMrmi3HMWVD4ks9mmj3O/gOllHJwDdiQ5mx4nGdT4+E16wlUnUohUhZy1YY+KZtu1V6kIx82keyhCl1yEoeWilVP+7DENSwrP7jjh3bK9mlfJVOFMAJUs3+XMkSphDbWBwKyTYqGKqSR2NpU+5J21+IqL0eHluPCVsuPMaiS/TvsDwL2loUSO0bDsv4/5lDanysZ85YNyKwrCpq8oP1SECxVtLUp05wdVRZa9FL1am6SSmLldMS1cNHJ1a9IYh2Uq52cI0LXXdtvUzcsWRZEkFZLFkEJkrtt1QdWMUUyEdtKr3/yy/ZJ5cuTXKfVFmluOxhUQwn+5CzK1evZitXT3aZq6Nv1U/KAx/rjtUfctIG38yM9fPV187kE97YpN1OTtXfqrTspSYSz2derNzhMeQhNs70C3nD/Pa/9IvbrD1fddwWWwQNQyex6L62TesJ8PXX13pkUx0x3dJnyBOLEyw+NAnGgqVNdcYWdyRfHZyl7mvqWLZ8ZfbN9es9n6qCREFYmcxpAYJvIjdpU/crpEzlbIo1m/7xWSedr/Oc0fPAWvSpB+ywhx7cqz6lGqOqcVZ+a+m1Vjddb3OvUlafSLL70O19ylaDjZu35HjU2JNSjmdrbJ9yF5nqYEf110mx2jHBtUGLwnK41oZWRixJO3ft7nH9Dcvxn0l1WJZJMqTEer+orLUopibRWE+ROUVOmKBzPQzghMskpPnosWMZelSbpLSryXvMBZMFB+vKKVKwa9fu3GtJnz3hfPjMaNNuHT1IfiLJogtrbeWYfZNY4LRHNhXACT2z51SkUX2jDvqMq7naUhruIW1avkwntCHMQHTpgyyYko2xwkIZ25NcR3dTiaE68kivNsUKrv4yDvZa6hi9EnnaYoE6wPyu3XuKwJmx8nJDJljU7LkT2wFief3czCEzPtYzb6wbEdhhAwSyh7tJGNEUuXgZQ8TYD0kkTYhH+IIuk59JCmX4FiaTgLK84TXc8fbuP5AHkiI4U8xdOCwT/mfyjDWLSSb1lRG+sGzd/7QBqaANPnNi97vF6oBkMKGOXRvmOayxLGBA/nAZLrPuIif7TTVpJwhPU9m7Yqtpe4POb6PugvlBtwc54t7EKjuKeAr7b+9FCHp4fSr+N71XYzKFBFZ5cF3lHmI86nojULYfMkmGpimTXSa4ZVFo8zpnzc6/D4kLcGOsmbIseDChbypnv/LnbYeBa4Lv1sYWQNQ+liu2tLDvtUk/urar9stS3q/IhTtt1bs2tQcUYspzv6qOruXpR0onqT7yvuDTcui/ie5T9bU9n5Lbfi+4DENt221Ubtbs3NWfd7QNvJWqg2+/ivSmFo5SZf38zCM4PubTe8zHisA6GKc3GAc1vrjmisAyaR9UO+NQLxMWBe3By2AcZHYZ2933KQI7jvpUpGFcHMdR/n7JLOsjlj1IXL/qrapnWO327iNuvpjatXyVXsbx+rDGsh+6kkv3wUOHGhko+tG219HuPeR6c70NCgNOYBt8RmBQg+D1DvYGxyIPgcX1dKbqmgjTBO2yEYvDwGYzVTfTtd/TicDikSI3xVhk3uk6hvQLKyVutdojih6YyA+6z8Nq1/ZLLrlNggr1s7yta5yPR2Esu+oPd3qwj+uwjQbetV4vP9j5l+vX9TsoDDiBdQI78InQoMBbt172XEJgU3sm69YzzvnCfZ1le8PHuZ8u+8TLcjoRWMZ13/79+QQ2Fchpuo497tAi76T79u2fEuvTsNq149gmqFA/y9u6xvl4FMayi/7YQ3z8+PH8PuC51qUuLzvxjnBduC7GGQNOYJ3ATvuXwclTpzN9ymWcb9YusvOJKQIqQeL5TFSXurzseLz0sFqe/+jj/LdlCix2g8YFe/cI+LNs+YoZhV/2B2KJJHhNLBryoPQ+rHZtf+gzYx77vqrNlzruWj5V77idH4Wx7KIzSOtMvPe76MzLjsd72sep/Tg5gXUCO6Mmg/6waP+wcN257hwDjgHHgGPAMeAYcAw4BoaNASewTmCdwDoGHAOOAceAY8Ax4BhwDDgGHAOOgbHAgBNYB+pYAHXYKz3evq82OgYcA44Bx4BjwDHgGHAMOAaGjwEnsE5gncA6BhwDjgHHgGPAMeAYcAw4BhwDjoGxwIATWAfqWADVV7uGv9rlY+Bj4BhwDDgGHAOOAceAY8AxMGwMOIF1AusE1jHgGHAMOAYcA44Bx4BjwDHgGHAMjAUGnMA6UMcCqMNe6fH2fbXRMeAYcAw4BhwDjgHHgGPAMTB8DDiBdQLrBNYx4BhwDDgGHAOOAceAY8Ax4BhwDIwFBpzAOlDHAqi+2jX81S4fAx8Dx4BjwDHgGHAMOAYcA46BYWPACawTWCewjgHHgGPAMeAYcAw4BhwDjgHHgGNgLDDgBNaBOhZAHfZKj7fvq42OAceAY8Ax4BhwDDgGHAOOgeFjwAmsE1gnsI4Bx4BjwDHgGHAMOAYcA44Bx4BjYCww4ATWgToWQPXVruGvdvkY+Bg4BhwDjgHHgGPAMeAYcAwMGwNOYJ3AOoF1DDgGHAOOAceAY8Ax4BhwDDgGHANjgQEnsA7UsQDqsFd6vH1fbXQMOAYcA44Bx4BjwDHgGHAMDB8DjQjsrDlzszOvv5FduHgxW7VmXV+IzyDqdGANH1jjPAbzn3yqL9ieCh0senZJtueVfdnbZ89m73/4YbZz955Cdr+3eu+DeQsWFrqZirGZ6W28sPSl7OUVK7Mnn35mxup9ztz52Zp167P1GzZmjz0+r7EepMMlz7/QqGzXdmc6dkel/7Pnzs/vIe6jeQue7MEA19asXZdja/bc5tia6j6Om7xTrR9vr/d9PSx9LF32cn7PhffbsOTxdtO4aERg9+4/kP3111/57/r1Gz0P07ZKHkSdVpa33n4nu3TpcvbO2Xcnycs5rsV+kPSTp05na9dvzCACtk57XFbHBx+eywk/pKKsDlvfII+XPP9idv6jj/P+fnzhwqQ+nTv/UVQXMf1wjrGLyVvVTqyMzj351NPZhYufFHK8/c7ZaBvK34/0qWcW5+N089at7Jdffsnxff/+/ezLL7/KaB8M9KOdftexbMXK7N69e8U9yb3J+KqdQd9bamdU05Wr12bvvf9B9tXXX2eMJ/q5e/du9tnnn2evnXk9m/tE74RwVPsxjnIxCTh9+nR27NixbO78BQUmx7EvXWTesXNnrgd0gU6a1nX8+PG8/NZt2xuV7dpuUzk9f3qS1UU3z7/4UoEfFittXdu27yiuLXt5ec81m29UjsdN3lHRm8sxmHsrpdedu3bl99XGTZtH/p5K9WGmnO9AYK/3ZXB7J9mT61y6bHn2/gcf5r82ROLmzVv5xPW727cnyXv79p2eyb/IeZhCEpgMx0BRv46fcpL0t8fmROuJ1d3Pc7v27M1+/vnnor8PHjyYJIfIW9j/1P+z7703qY467ZT16/xHHxUy0u6t776b1EZZ+abXduzanf366689bYb9ffDHH9nxk6cGKkdTucl/49tvC7nv//JLdvnTz7JDR44WclbdW23aHJcy9P23334r9BOOKf9ZsOD5Evap6zMnrK/t/1GRo6n8C59elJ08eTI7depUtmjJc5P027S+cc5/4ODBgmQ8s/jZRrqYv2BhUXbFylWNynZpd5z1Pd1kX7d+Q4GBcBF83/79xbWQ3A5DDytWrc6Qd9nyFVGsjpq8w9DRKLdZNX5TIfsoyPD8i0vz+4rFw1mzH49ieSp04W1UL1w0IrA8QLFcfPTxhWzVmjiha6r0qjq3bt9RTEKPHDveGEx1COxvv/2eW2mw1Oj33Xe3s99//71oG4KwIbIiIwJL3mvffFP8IBc//ngv+/PPP4s6mDRj1WOC11RPbfNjZfrw3LkeGZAjRmCxTH197Vrp7/bt20VdZ9+dILBN2kn1ZduOnZP0NUgCu2ff/uyPP/4o+gPBP3f+fI7xD8+dz27cmCCI6Azcp2Sf6vNz5s3PxxC5rt+4kc2OuCdW3VtTLfNUtXfs+IliTNEP9yWW2NNnzuRjyH3JeX7c14uXPN8zrl2fOf3q56jI0aQ/uDIePnwknwBs2LipR69N6pkueRc9+1y2ecvWbMkLLzbWBe7DWG75PbO41/pWpZ8u7VbV7derJ1b90tHuPXvy8T948NAk/EBawRYT7n6117YeFuZZtAKrWFpj9YySvDH5ZvK5OuM3aP2Mggz0EdKq5+6LLy2LYnnQuvD66z1jGxHYYSi16ySuDoH99tubUZA+vejZ3J1Vk10mwqEORGBTdSx5YWn21jvv9BCzS5c/nVRPWG8//q9YtSaDiEt+Ju4QQv7HCGydNiFxlIeYr167Pu9HP9phf+IPP/yQ1w2RvHXroeV8UAQWa4i1SH/62edZbO/r/oOHeiy0do9pHX0NKg970DWuZ954c0rwNKi+9LNeiLzGFcu5tUirnSefeia3Vkt/r752pkd/XZ85aqdrOipyNOkHE2pe/sePn8jY89akrOftfWmXWd9cV726mq76aOtCPtX6YFFek/6Vq1b7fT9mwUFHYfxGQQbdN0eOHM3xzPtM5zwdvWfuQAksgNy4eWvGnsi2g991EteFwCIzq0Jy1YT0hfvmqgis+n3sxMmCcDBxxvqna4NKCeyjSTrWVQg55JlzbQjs0peXFxZL6pPc/WgHC5lkxf3z2rVv8v+DIrDsT1Z7d+58n7H3Vv0J0y3bthd5r37xRTIfFs8XX3o527Rla+5yvmBh82BQde+ZtRs2FjIdPHwkKVPYl9h/5GQxYv3GTVkbmWN1NjmHzjZv3ZalXCzR60svr8g2bdmWLVu+MmptVnvLV64u9PLFF18m9YKe5TqOK7HKk7Z55iAjbTMu4TPC1p06jumgqRxN9NREjlTe8DxBL3AbZiK7avWaHp2GefnPsxU32aeeWZTNmtPMVWui7OJsHnuZZ82ubC+UgQWrJwjYFis7a3Z+LX8uxK73cYJKcCfwGMpSZn0L+9LlP/f8wmcW5eMRqwddo4fYAl8sf3huzrwnMuIMtNkL3aVsKIf9P8w+IUedfnE/iRTiWmnlr3s8cZ80u8ea6oc9uJIV639d+cJ8E/K2v6/RLXjmeRjW3/Z/U32E7dQZ77CM/d+2PDpAF4/Pe6JUF03Hr6s+6Fv43GkqA3XkeHnyqfz5go6szuochzKozJ49e3M879q9u3GdqsPTwRPeRgSWwcbyxu/1NyesPhBUnT95+tWcnGFB45xIwk8//Ry1hqTqhPDZ8qpH7cQsKzHAdCWw1PnmW28X/cDN1bZTl8CG9eBKzLm16zcUuiOKrK3bHrMHU30Pye+GTVsyyKXNzzHEEtdmdKlrXQjsxYuf5HpADhuFums77G3WWIsYD5rAKvgR+kntb5bOSL/66uui7+G+Sdx5caf++VGgIGEV9+TPr1zNVkYm823vGaKAS1dqh1TYwE1WcqfuLV3HO+Dyp58WixKq58rVqzlhxJ2aenGzVRnIudravfeV4ryuk0K8lIc9xroW9pkgaT/cvVvcW+E+Y/RKkDTat31lrzYLHlxX3Uq5F5SXRQqdj6WQZizs7NvmeptnzrqNmzIC2v3+4EHRLuPOnvujx09Mar+ODprK0UZPdeSI6azsnKyvJ06cKCWkCxY+nRGUSC6HTHwhvgcOHMyq9npSdtv23rKUx1JFRNaYfFiEqJ8fJGrT5i3Z0aMPV9hVVi6+j89/Ir9uZaM/m7dsidYda0/niBxbtBsJGIbr+t5XXikm/shCW/nzYtbsvE+caxrAKdWu1QPkiHoJskUb/Hos5rNm55E4cV2lD8qDfBDrGBm19TNhZi/k4SMP3clV/tDhw9ni5yZHVO5SVvquTKe4T8jTpV/ai4fuwj2u6FbYikVLbXWPtdAPE32LD42zZINgoIc68na5r7lvifQNviQDKfdXmwXFHEst9NFlvLviJZf5Ealbu259dujQoR5dcK+v27ChZ8Gu7vi11UfYp9hzhzGqgyH1j1TvgbAce//DLUF1ZOh59jGH2bY9192BA/FApVYWPx48UU3puBGBxfVOk0NInSolUp7OE0jGTuZ0XimTVpUjTdV54tTpok6VtemRo8d66rF12uN+EFhIg9rWZFdtNCGwlIHIUxeTXL2U5DqLi6/qDdOvvr6Wl8NqZFfCiRxMfRCGkNhCHkLy1JbAvrxiVUF0Pv3ssx45u7TDCuHNmzfzPkBMmFjT90ESWEiHxhNiGuo69h+yB+HhhyXb5vnk0qWiPtVrU8jyC8Feirb3DAtHtu7wGKxKttS9xXUwpHsjrIP/P/30U/b551fytgiGpDo3b52wRod4U57tO3cVMlqXa9tnLNlg1rYdElgigdvr4TELKmpT6ePzFxR7g3/88ceMNnWtKm36zGGvrd1DHcrHf7YP2Hbr6KCpHG30VEcOK3fVMRMTTSYgiKn8WNnlFmknmvaYz87EyrMPtKos5C0sq+inkK9dux/uKbTtcYzsPI+PGGIb5gmfpWE74X9L6MNr7G+VvsJ2+M/+YZ2vIvVh3al2pQfIeUicjxyZ8OKAfO4/cKBoX3LYFGIbfrpF9TNGOrZldMw4hBYh5W9TNux/7P8w+oQcXfpV5kLOggr6RJehB0Gbe6ytftgqoHENUwiUxqJc3u73tSLHhjLwH1IjOeqmbfXRZby74oXyeHGwEBjTg86xUCA91B2/tvqwfUo9d+rKIJmfXrS49D3AM4R5gPLXkcHm5XjL1odbYSD94TX/PzzCGuq+7wSWSRtEBEssVjp+WEs0WcWaYt01U5NszrO3EqKqieEbb76Vn+O8rSPslP2vSXpZFOLU/lXVw2RbMiwPokE2JbBffPllURdkgDaY5Kp+XK7VrlJccjRRDiftIsSUh0ipTCptS2AvXb6cy8g41gngVbed06+dKfoOIZDcgySwh48cLdoss3pLlrL03ffeL+rC3ZkFGvQDubv4yQSxBSeW+FoCwdjVvWdwxQP/+w4cLNqFtHKOH9clb+reYlX88ysPySlt4yKP1Y8JOhZJEVdhchAElrpxYyfCOC7jWG0t2Xz9jQmizv3JcwC9Mnb8l2w8E9RfpQQi03UWD06/+lqxMKI8sbTJM4cFAFnc6QfB7XDBxgLMp5e0Dxc57IpwOO4xHTSRo62e6sgR01HqHNZPTZBS333lW6aybDIxWL12XcZkhAk31hMm46ojdAfDQqqyWE/BAmVxj1u9Zm1xjTy5K65x8bWWCK5jJeH9Qfm9e3stoJBK+oJLL3n4lIJkgvym+h87z+o9ZWnDXicwiMgrfUF+7lvpQe0pbRrAKdWu1QN1Y2Xg0z7ogZ9ktGSA/i9e8lyGhQsZrb5eCrx+wvqx1L607OV8PCDse/Y+dMtT22qPtEtZW0/qeBh96tqvMhfy/Y8iELMQYfvc9h5rqx8WrrCGCas7du7K5j+5MP9ZEpGUt0/3NffT2vXr82Bnc59YkHGP2cUu7merp6rjtvroiuOu5XWP8SxlrsoiE9sz8HqQ1wnPQFnG645fW33E7oHwuVNXBupiLqz3BItuLO4tfPqZ/PyWrdt6cGjHONRrKIPNy7EssJDr8Jr/n8YElgkZe9XCQb74yUP3UyZ0G80KfWqSrfJN94GpnNIuBJab3BIsAiKpXqVNCSwukZpcQxaoh/19Ohdze8QypevoQ22TEi2Xa7kF9pV9PddsPh3XJZbKT4qLrRYgsLDba6njOu0widanTsIAWYMksNai3iaytfr8wtJlxbhAlBY/1xvNlnwfX5iwIqa8FpreM9RbZw9s6t6yFmj2/8Ze7oyzMDcIAouXRuiOL70+9+LSAm+379zpIeXkYaL//fff5/KxsEMAMJUlxdptXZN1f7Ctge/kQv7t5MqW5bjOMwdX6m+uX89/sT3IBNaS/mhPbVjiWKaDOnJ00VMTOSR7Wbpv38NPemC5i+WbM3d+QTIhr7EFSLZTaCJsI6tCZi3hCwkq7UGGVdZGP2Z/qc4z8QE7Vj4mT7pOOukenjW7mPhBKGzZsmMiWUrm9RsnviPN5Frnjx47NolsU6ediCFTk718qXatHpjAWv3afqBbJsH8lkes2RBd6Qudq6ytn+tYokLLIG56llRo33OXsmq/LB1Gn5Cna7+OHYt/A5h5iTC0YdNEpO+291hb/UjnvD+ECRaHdF5pUt4+3dfgWZ5bapPULqo1WQRqq4+u4921PJ8s0zjEPFGYr+jetlsAqsavrT4YA9unsudOlQzUxfODOugjhHSSa/is2dkr+/YVOtA7vq4MFjvsfaWdNtZ7W48fD5bs9t0Cy2doYoOGK6EmdHb/amqSrTrqTCaVN5bWIbBYhYmuq9/HFy7kVii59moCHNvz15TAQlqlh1OnXy109c031/PzMTdidEqZuz/+WOS3fWXiF+7LtNftcR1iafNzTIRe6aDOflHK1GmH/a7US7RYrIe23UESWGs1jVm8rRxlx/Y7qzFsUJaHrKxx7IdVfZZANL1nqKMLgbUuqgSokkw2hRQqyNEgCOzVkgBLWK91j6RIrrVAQyat7BxDYrEkszigumyKxRsy++zzk/fjdX3m0D5ESO3Zz03ZcS/TAXVUydFFT03kCHUb/mfirIkTbo/hdf4T1El5CNoUywNRxX2Yn7UI4hmgsinrrv30wY6dE3EKWLFXWUts1b6VHeuRzttU+zibBPSwRM9+isES7djCEe1i3ZfMsc+nWNnC41S7Vg9lLt5hfeF/a22z3/u09b/CQmoi8BVkXn3TVpguZUP52vwfRJ+Qo0u/7MJKGMCJ+0c6xIKuPne5x1RHLE3pR3mrgu+k5O3XfZ2KFEtgPOkp9dxQH5qkKX10GW/a71qe+1H9tc+cqr5VjV9V+ZQ+wj6VPXfqyMDiiPqHlT8mF8RdefQOsXotk8HWx3OXepo88215Px4scZV++05g7WRNjZDysNKEzu6DHQUCK7lSKcSRyaLtj46bEthTr75W6MHu47XfrrSkiptP7sMp3UqWOmkdYmnrYTI5YX2t//mfqnbsggZWadsmx4MksDYoV2pcQ3li/8++914xltrPHMv35Vdf5fns4oQlEKlxTd0ztNGFwF4wwbhC66WVH6s498QgCKwNAmfb5Bh96F5kwYfFgfDHM0R5uKfCOvSfcWE7A0HTwmBQlL/z/fc9rsuUqyKOqtumBFGDSLNHHouslY8tFMprx71MB3Xk6KKnJnJI9lRqJ4pYAWL5Dj8KrpKTG+PeG8sbnlNgltBdsiffrNnFxCW3/j1qo3fSMzkquJ3cxKySPRbNDROW1J62I/2xEyksGHn+WbOLoEZlfWHRS5MwXNmq2rLXo+0+CiakOgt5InLbujhmooj1CtdUJsWMn+rRBJF8Vs9lk2e7r1NW+C5lQ3nr/J+KPnXVSVUAJ40B5EF97nKPqQ7SuvpRGUiB5MHapfNKLbGy8vbrvmYbgdqyKdsMJFe4JcHmqzquq4+uOO5aHgur+ouFnmcHWy9iY2L7XDV+Ni/HdfVBXtunsudOHRn0fXH6yAJx7GddnYWLujLYfsrSW5fw2rJ+PDXkFT33ncDichsbQOsmO2oElki0RBK1P5E2rqVWyulnUwJr90XaCK20QVtMqq0b8XHz+R0CKcV02+RcFbEM68JqiEzoI7SShnnt/7J2mKDJun337t1JLqDUM0gCa12yrVuvlb/OsSITY2Ety88+W5Et7Ye0BKLpPUNbXQjs9Rs3cnlSFn31Rd/8HQSBTfWZtiGb0ledFEIumatS9IYFXvca9V+/fr2nfF0CCzmmbQJelcmZIrBlOqAfVXJ00VMd/FXpUtcVNIiXvvZW6RopmNfEKtw3afPFjm1ZVuljeTiHO6raYD+t8imoSioYzzteAAAgAElEQVQYh53cTHJJe+SurnqZIKreqlQ6wW1Zeev2xVpg+x3AKaUHyUjKggTRScuCqzBBhtyrnPRMf+15XVdqg1NpYt2lrOqtSqe6T8jTpV+W6Icu5LGASBZbTe8xZG2jH+lc2wcOHTpc4EHXSKvkHcR9Tbvbd+zMnwkEZrPy1Dluo48u441MXcvj9aA9sHpmKeV+Zh96zDOiavyQrY0+bJ+qnjtVMlj3aPWpKtWihfRaJYNwwWfZVDfxCXTe06kjpnV17QT2r7/yoDChwi5dehi0iImp/TRJmK8pgSWYlCa7YUAoPmnCNWupE0m6cePbvtxIZcQy7JvdK0m58HrZ/7J2rAWUADvLVqyc9Pv2UWRi9joqQBHW+rI2617DSqYxCCMq162DfBobAmmVlRs1Aits47qtfSIx+RX5eqoJrNpljNi3mvrpesyCH+uPPcdiEG7E1IGHg9wZyVNFHMnDN19ZABCOSO/fv5+xp5igWJZcDorAdtFTPwmsJk2p/UK4QGpCULYKb8dHx5ZgsvKv82GKhVBtWLdKBe9IuYJVTW54RqvesvZDeWKBlJgM1anLutM12buHDLF2OV+lB/JAlDTpl5wsSuBOx94y7QvjWrjXWfVX7RPev/9hYCtLdrqUDfUe/h9Wn6zO2+ikaQCntvdYF/3QRxasZK3iXgr1z/9YAKdB39e0S5AfsJraGhCTtYs+uuK4a3n6w3hAVMGPxkX3MilB2Wy/q8aviz5oR31KPX8ls2RNYcjihXGF8MZ+9JH3EO8k9bOODMpLygKQdNb0+Wvr8ePBE95pT2BvPyKMTQMwsadU++eY6IbBPwTOJgQWd1y5AzPRVR1KrVstbsRYeJTfWq2Vv01aRizD+r744mHEZKyvTNjD62X/y9qRVddO/usc90sHfB9Vn3riUysxy0vYN6LLYjHjJ0uM3Utb6kL8yKJoFybqEIiU1wKydbHAsmggfdOvsK/8n/34vILgpQisgpCF5e3e4NRndMqsjxA+5AN3lliG7cT+E+mZ8SHAUey6Pad2aEsRwbleh8ASPVk65FNWWEBs3SwM6PqgCKzkb6OnOviz/Sk7hozwwsd9K5YPi6gmBOzti+VJnbN7Jm3gkTC/iChBgmQBtME7+C5iWIb/VZMbBVRqEo2yx+3YBHCybnIEc4rJwznrpssEMpUvPJ9qt44eqMvuz8X9EPdqa1HnWBFA7b5DW38KA9TPAqRwwH5NznUpG/Y/9n8YfepHv5oGcGp7j7XVj3RdFXwHzMQCTg36vibgj7BGHyVvVdpWH11x3LV8rF88D3gv7dr1MCCR9GEXravGr60+kMf2KfX8JV+VDOSxnhtNnol1ZbD64zND6Ip3ScxibfP68eBJapmOx4rAht+JnDNvfka0VKxoBKYJO0qAFiZ3TCSvXP1i0vUq8okrryah1q3XtlNVh/KyR866Gr71du/3IcnHjak8tMenTWgfIp0i0Kq/blpGLG0dEGj1HYudvVbnuKydYRNY5CeAjvqHq2xZn8CZXJ4hc/ocjg0k1CWIU4rMDYrAsldTfSfIWWwfrNyHyWcJLJ/FUtlXE9sFrIW9DYG1gc4ssSwbI11T1Gfueyz7Oh9LtReY/qxdP+F2agls+MxRPfKkwOoaWwBhe4D01A8CG5Oji576SWC1em4jokpPpHbyoX2P9jrH8xcszD/7gMXTTrA2bp74jE2K/EJsYzJU7W+tM7lhNZ/JjF3RD2UP/6cCKaEfTSLpb1iO/+zbUp5BBHCK7fOlXSa7Ik25dTUShMnur+VY8ls9l1kb5UoKoeG7kpTvUlbtp9Jh9alrv9oEcGpzj3XRj3RuvQX43JLOK00FcBrkfU3b7I/UfYR3huQpS7vooyuOu5Yv6xfXtm6b+MQMC/jKXzZ+XfRB/bZPqecO+cpkkJx28Y/nts5XpXVlKOqZNTvD1RjsbN8R9ygo8taIIeB5B0twR57A2sl2bK+bCB/WLTvxAThVex2ryCdWNUVixd0yNiGuqgM52D/w/fc/FBNaPvGRmsjJqkJ/5KJKNNXUjUA9EF0IlF0tT+UvI5a2jNqGCISuzjZf6risnWXLV2YQ5LKfCAK6Uj4eRqn2mp4HV1rcgGjYyNi2LiyRdiHjw3PnChmIdCuSkn9GJ7DCUY8IFfnsfts6BGJQBJY+KUATcuGKChlnwQfideHixKd/uG4JLIss2j8afvqI/oJH3ZOUbUNg8X6gLD/uLy0Y2HHZ88q+fFGBhQVrCbbkEwzSV1tOx2BaLsRY4+39WPXMoQ7d9zwf7Ld3ucZzyH7vuS2BrZKji57q4E+6KkttFF+CpsTyWjfcmIsY3xhVABq+VWjHzEYqjQXUoKysqEw6bJAY63YWs3hWTW6YwMl6ZPfV0kdcofnMTMwqbImedZmu6guya/JEX2IBnFq1a1y4Y3qgP5zXhB85w3HEeqrvSJIvFcCJa7Eo0zZCro0SbceoaVnJmNLJsPqEXF361SaAU5t7rIt+pHu7VzfmbpkK4FR1L3S5r5GtLIDTdMML1ma504bPKY2TXNJ5vujzVVwrG7+u+LD3AHVJljAtk0F57fMDT0adtynvBxb9Dhw4WASuqiuD6uF7uXoO8g1rnfd0sES0rX5HnsDyfS9NZplw8n3FDZs2F4GVPjF7VZk0sm8TayUT3Hv3JoKrxD7HoUnot9/eTAL1jTffKtrnsy+holUHrqh8U1S/EydPZezNw9JniRJkAEIW1qP/PHjVX6X0RdfD9PMrV4r8MStNmL+MWCovn1ZR2+hX55ukddopq0+fFbr13XfJ9tlbit75WQtaWb322vmPPir6iZUbV1A+SQSZYd/tgUOH8/2X0gV5ws8VWTdi9moy7rycGbOLj6L9Up7vmVoiVodADIrAogMWZ+yiivqoFGImF3JLYCmr/cnkRYdgFrdd+kw/VQdpGwJLG+9/8NCNmDpu3ryZL9IwSWOc3z57tiDRyBZ6J9hvwLKFgHFERibh6zduyl4783rx/WH1weKi6plDXruowQLT9p27siUvLM11IOxKD20JbB052uqpDv6sTlLHBMrQC5/JQiwfhNSSH9wHIUB82oIx1ScLqAcd2jqoX6QOMokrGmX5eD37/kReuRYGr5FbMeVtnTrundxMdm0GV+qbtg1QlvtY55ksqT6lsQBOXMNSL0ux+sLiBz/waXVE/WEAp7btVukB2SDr6hN7zNhHjO6xCDN5lNzkQXbyq7+qX+UZT6wquP8TBXXL1q1F3QcPHszr7UdZ6ijTybD6hFxddGIn9KG7pKzYeXAwYyVvc4910Y/Gz1pS2T/NopA1JKTkHeR9jWzayx0GcJqOeMHNVc9I7sFiYW3W7HxBz2Ix/LZz2fh1xYfaTT1/62KIfCxo6BvSPH9wbeY9gLcCzxi77YLv/6ruujIoP4tr6JD7yy6k6rqno0VkR57AAhiiA2syqFSfoGFiIUuKroXpufPnC0BbAIp8lhFYXsKWCG/euq2nLtURthn7T946kXz17Vrq+Pn+/dIbycoGYbL9ix3XIZayzkG820Y+rtNOTD6dEwkoI7CKposFLeYGq7pSKQ8o60YaGzOdI1oyiyOxuuwiivLblDHCWmvL1iEQgySwyMLY6hvDVl6i8kIUPzx3Pr/vQgK7acu2gkDacjq2AYzaEli8CdgeoDpjKQsKBOSyeuUYMsAe81iZ8BzffLYTLtVV9sx52Ma6PGhTWJ/+Q2p13JbA0k6VHG31VAd/0kVpOmt2YaVE76m8dmVbRMemECTIbKy8tUjZMjqmbEh8qUfkNhVApGpyY61aNoATllG1zTdiQ5lxweX63r2vTLpmLQmqQykTM+255Vxo0WrbbpUeJD+f9pEsYUodspKXBXCCoIZl9R93bIiL2rNjhIWoaVnKV+lkGH3q2i9Zyw4eOtSjK+qNBUTiPL8291hb/ahNuwikcbaeA2XyDuq+RrZUAKfpiBf6y8Ke9K+U54mOSbFQhl56VePXBR91nztVMghrBKey/Ykds/ij/KR1ZSAv8wDprGzPrq3fj4dLaBsRWHznNSnDMqnBs5aCU6dfLc7rOilutCprLYWpOsOyWMcsUT18dGJVHWJhSZ/a+e233zPr8mnr5JjATuStivCrvajk/frraz39Ux1q06bIC2llIs5EO1xNDeXRfyxEqidFvpWXfYhM5PmUS5llV/lFtnAD1TmbEtRHbfPJH3utyXFVO1V16TM6jGsqL/sPkRV351SeOuexmivYl/qulG+HfnLp0iQ3UVsve2SxxEoelWUB4MrVq9nK1ZMn9l3uGdpes25DMU7WhdbKVefeIj8Bj3C9xYoIsVEdkDv6gjVW55SCZyzOCjJGPogu3zbF20E6sJ+KqtNn1U/KCwULo73vqRe9so8aHdj89hgr+sVPPim2AEgepSxIlAUF43lV9syhLVzhv7l+PWN7gerlXoSwsvAlzwu+FyzZmuqgjhxt9NRUDskfSzVZxLIau65zuNaGVkZW53fu2t3j+qv8NoVMhmWZbBA0CKuKzcuxtR6kJiNYT5kEpQiu9l2FAZz4zimk+eixYxl6tG3TriZB7Eu01zhmAkm9yqNJGIFWCGaC9UDnwvdFm3br6EEyPjZnbq4La23lmL27uClqj2wqgBN6xiIiAqZ+UAd9xt1cbZGGe5CblFU9ZTrJ25jiPvWjX8K5JYLqr8Ymtd+86T3WZswlCykYBeeSizGHkCiPzqfkHcR9jUzCXhjAaTriRbp+efmK4jvT6j+WRBbSUkEmq8avLT6aPHeqZFD/SMGWtTbTT70HwgW/JjJQtwKh5dbXufGtR1YWPx4ueUX/jQjssAcMooCLShjxE7m4CZjQHjx8JDt2/ERuLePcsGVu0/7Zd98rJsQpq5+tl8lyzIpk80y3Yx7IIg1nXn+jL+O8eu36jAi6BARjT2joLlylQyy6WE03bt6SUVe/PvtT1W7T68iFmzi/sj5qUQiSlmoDkoxbLhORQbncUO/DfdNb8mjYPAdS8sTOE0CNcWXhDHIdIzyxcpwre+aoDK6hPHsIcDWo+7COHF31pP40TfnEChOJsgi0RZ2zZmd8Zw8X4Ma6MmXBHROUot4pDqiRt21cOCWH/R6ndTvWdaXsQ2ORhX2vTfrRtV21X5ZCspGLvYKhxSYsl9pHDDnFNbqsji5lrRwpndg8U9Un2uxXv6z8jY7NfVL3Hmuin6gss2ZnkJ3ZbSb+Rt6puK+nO14YB97xLAhFxyr2rKwYv874iLUZnquQoegLeFnAO2RRHvyvH5GCeSdpsSW14Fm0H8rt/+vjrM+6GisCOxMAxKQHyzHkLBYkZybooE4fceUWgYU41CnjeR6umEH+FYgJyz1WvlA3LApIvzb4VJjP/w9/FXLYY6AIqLhrDVuWYbcv6yNWgSbRMrvKPax2rftfWaCWWP+6lI3V169zXeXqWr5f/fB6pubZ3HW8u5b3ce4+znItx21/XA1fMxEHTmD7vCLQFkS4gRKcxgbWiQWealv/dCuHlR2Cxf7S6da3qegP7rEiqLgIE4kY11dc1q1bPC7UWFenQiZvo/uLeBg6ZLVfLmuxqLzDkGkq28Q6gVut9oiii5j7Z79lGla7th9V+4ht3vC4S9mwrn7+7ypX1/L97IvXNfhnatfx7lrex7jbGLMNhGc2rsM2ir3rtZtep0J/TmBHhMASrEmEgrRs7+5UAGPU24Bsoacu+3RHvY+DlA/3G/uJH4s9HRNRGNfdQcrhdY/+S6LOGO3bvz+fBJQFcqpTzzjmwR1aBJ6UT1pMxSr+sNq1Y9QkSIotx3GXsmFd/fzfVa6u5fvZF69r8M/XruPdtbyPcfsx5nvcim5s43+4TtvrdCp15wR2RAgsnwBiryGEjM9+TCUIxrEtAvDo8yXjKP+oyEzwJj73hC75PA4RhAlIhUfAqO7hHRXduRwTLzn2fhKohe8+zjS94JKPFYUgILFoyIPSx7Datf2hz4w7EWXt+TrHXcrWqb9tnq5ydS3fVm4vN/E8mkpddB3vruWnsq/TrS1I60x9b02HsXQCOyIEdjqAyfswnBeo69317hhwDDgGHAOOAceAY8AxMFMw4ATWCWzjlfOZcnN4P/1F4BhwDDgGHAOOAceAY8Ax4BgYLQw4gXUC6wTWMeAYcAw4BhwDjgHHgGPAMeAYcAyMBQacwDpQxwKovvI1WitfPh4+Ho4Bx4BjwDHgGHAMOAYcA8PAgBNYJ7BOYB0DjgHHgGPAMeAYcAw4BhwDjgHHwFhgwAmsA3UsgDqM1R1v01cVHQOOAceAY8Ax4BhwDDgGHAOjhQEnsE5gncA6BhwDjgHHgGPAMeAYcAw4BhwDjoGxwIATWAfqWADVV75Ga+XLx8PHwzHgGHAMOAYcA44Bx4BjYBgYcALrBNYJrGPAMeAYcAw4BhwDjgHHgGPAMeAYGAsMOIF1oI4FUIexuuNt+qqiY8Ax4BhwDDgGHAOOAceAY2C0MOAE1gmsE1jHgGPAMeAYcAw4BhwDjgHHgGPAMTAWGHAC60AdC6D6ytdorXz5ePh4OAYcA44Bx4BjwDHgGHAMDAMDTmCdwDqBdQw4BhwDjgHHgGPAMeAYcAw4BhwDY4EBJ7AO1LEA6jBWd7xNX1V0DDgGHAOOAceAY8Ax4BhwDIwWBpzAOoF1AusYcAw4BhwDjgHHgGPAMeAYcAw4BsYCA2NPYGfNmZudef2N7MLFi9mqNevGQum+ijO8VZyZihf6PfeJJ4d6f8x/8qmhtt/kvlv07JJszyv7srfPns3e//DDbOfuPYXsMxVDKf3NW7Cw0E0qj5/v7zPvhaUvZS+vWJk9+fQzM1L3c+bOz9asW5+t37Axe+zxeY11IP0tef6FRmW7tuv3QX/vgy76nD13fn4PcR/NWzDxbuT8mrXrcmzNntscW11kalN23ORt00cvMzr3TduxWLrs5fx+s/da27pUbuwJ7N79B7K//vor/12/fqPRy0hKiKXvnH23qPfSpcuZ/X308YXsyNFj2dJly/vWXkyGmX6OMUDvb771dt/0PCi8VI3Vk089nV24+EmBo7ffOVvaJxZkLOZSx4eOHE3WM2fe/OzUq69lt2/fzh48eJD9+eef2Y8/3ssXe55/8aVkuaq+1L3+1DOL88Wlm7duZb/88kt+P92/fz/78suvMvq/dv3GgctQV1abb9mKldm9e/eK+5/ny/mPPi5kHRaGrIzDPF65em323vsfZF99/XXGeKKfu3fvZp99/nn22pnXh75QMkzdTEXbTAROnz6dHTt2LJs7f0GBy6loe1Ta2LFzZ64D9IA+msp1/PjxvPzWbdsble3ablM5Pf/gJu68A8EPPxYspett23cU55e9PPpzvHGTV3r2dHDYHkXd7ty1K7+vNm7aXNxrXeWcZgT2et8Uc/v2nZ4JrEhymEKamah3HQgvP/lm1hh8++3Nvum3l3z04oUFifc/+DD/9Ztcnf/oox483fruu2SfsFSGOEv9t8TKYog6rt+4kaznt99+yzZu3pqUwdbV5njHrt3Zr7/+mmyf/jz444/s+MlTA5OhjdyUufHtt4Xc93/5Jbv86WeZXSgow1DbNselHH0HOyk8cp4Fi9ji3iDvryb6GxU5msisvAufXpSdPHkyO3XqVLZoyXMjd+9IzkGnBw4eLEjGM4ufbaSH+QsWFmVXrFzVqGyXdgetE69/8hyiTCfr1m8ocIBXjfLu27+/OG+Jra5Pdbpi1eoMWZctX1HIaGUYNXmtbH78WFY1flOho1GQ4fkXl+b3FYuHs2Y/HsVyU12MPYHlwcOqP1bRVWvW9kUpKFHkiQkZlgb9rl37Jrc2YM3SJO7mzZvZ04uavUSbDtRMzK8x6CeBLcPL1u07ijE9cux437C0bcfO3PopvJCWEdhly1cWctD3r69dS/5Onn41KifWMLWHdez0a2dyr4ErV64W5yFnLyxdFi3fBW979u3P/vjjj6Kdn3/+OTt3/nx+n3547nx248YEQURG7t0u7fWzLFZrrNXIxQLA7Ih7YhmG+inLqNV17PiJYkzRz7VvvsktsafPnMnHEOu+MAe2Fi95vmdcB3V/NdXTqMjRVG7cGQ8fPpJPAjZs3NSj26Z1jXv+Rc8+l23esjVb8sKLjfWA+7Asb88snrC81dFJl3br1O95mpHQLvravWdPjoODBw/1YAjSCraYcHepvx9l//bYnHzBCrxiaY3VOUryxuSbyefqjN+g9TMKMtBHSKueuy++1J9559gT2EENfhV5Wr5ydT6B04Tt4wujMwkflE6mut6qMei3PIOY2LI/8Icffsgn9hC5W7du5cdlBHbTlm0FEWhDMLGsCpe4wj75VO8+uXPnJ6zBKQtuW91iDaGfav/Tzz7PYntf9x881GOhtXtM27bdj3Lso5fsZ954Mzph6Ec741YHRF7jiuXcWqTVF3CGtVr6e/W1Mz36G8T9pbabpKMiRxOZycukmgnA8eMnMva9NS3v+R+So5TlzfUzdeRxFHTd1o18KmXH40KT/pWrVvs9P2bBlUZh/EZBBt0zR44czfHMu0znuqR9IbDsJVi3cVOWCuaBy9aGTVuS18MOYOGAIK7dsLHv+6kYTCb4S54vX7mtQ55wHb5376d8wgZJCfsR/n/xpZezzVu3ZSmXJ/pNnk1btmbsM1uwsH7QG1u2qm+hXJR96eUVGcQJ61/M6hSW4f/j8xfkY8RYscoTyxM7V7dcnTGw9dcdW1vGHg9iYsteQU3ocb/Egs//MgIrF1Ws/HXHwvbj088mSMTRiCUZK4Lce7E2hgTX1tX0+IMPzxX9vXPn+4y9v6k6tmzbXuS9+sUXyXwW203vC7VdFxs8czReBw8fScqkestS7t/Va9dn6zduanQvl9XZ9FrZM6fJfc89Lr188cWXSb2gZ2ELV2Irb5v7Cxm7vAti/W8qRxM92f7a45gc9nrVMYEvcBtmMrtq9ZoevYZleRbjJvvUM4uyWXOauWpNlF2czSPo26zZpW2FbfOfBasnCNgWKztrdn4tfy7ErvdxgkpwJ/AYypKyvMX60uUc9//CZxYl343oGj3EFvjqtDtn3hP59qW2+6C7lo/JOC594n4SMcS9MtaXsnMT90m7e6zuuLMHV3Ly3i6TqezahLzt72vqBzNgmmdiWXt1r40LXsL+0H/08Pi8J0r10Gb8uuokfO60lYHnEhyHMQ/7X/U/lEH59+zZm+N51+7djetUHTZtRGAhRkyq+eG6yCo8k1RNbDiPOyA3J4Nw4tTpYtWePLgV4m6bcvWFBLOn9PdHLnwq893t29nR4yeiHUZRkun1NycsJqGsuDVi/SKv5P3pp5+jlgQUVJc8fXhuYsL+3COXk7Dtk6dOZz/cvVu0G+77w23x7LvvZT8/Cogi+dDX51euZitLJiwQHIIdhWUh1hCZMjJLu5TF3U9tkhJwB+LFdQsWHWMtY3KKJUblfv/995ycrViVnlw1LZcag1C/TcY2hpdjJ0724EJ9Eq5i1iYWZJZWBHhgH63whksv+qtDYMELMmDxks6bpLonb9+5k5w8vfHmW8XY0Zcm9ZflVfAj8ADZLMvLta+++jqXAz2F+ybb3BdtsUEkc42Vxp9UGMBNVn2JYUjXSJe8sDS7/OmnPW7U1HPl6tV8oQh3av5z39lyLFypvd17X/n/2TvvNiuKpo1/tHddBEQUEAOScw6S05LMigFQggoo6iJRMT2G5/lw816/We7ZOr3dE8/ZPWepP87Vc2Y6VFdXz9TdVV3d80z5AF/Kwz5j3Q/7XfbOaTPvkRHxhUUKtRtLWaTDwn7g4KE8X5v51fRbUKf/Telow6c6dMR4VnVP1tezZ88mQemSpS9nBCVij6yUXkDvsWPHs6q9npTds7e3LHVgpSIia4w+LELUzw8QtWPnruz06akVdpWVi+/zi1/In1va6MvOXc3fPUSNLdqNRFbHdf3Q4cMFD6CFtvLv6Nh43ifuNQ3glGrX8gFgRL0E2KINfj3W8rHxPBInbqv0QXmgD2AdA6O2fhRm9kKePDXlSq7yJ06ezFa8Go+o3LV8bOx77o1gn7QfD/7Zfa7wVrIVi5baeo415BGKvpUPjbNoQ79mDOrQ23ReU2+PzCx+IY/IjIyJDlLmWKuTDRryYgY9czQH4PnmLVuzEydO9PCBub5l27aeBbu641fMo448ib13GJ86MlTQ8H/PZfoOhOXY+x9uCQrHJUZDz7vv/57L343IzrFjx6LfFEtLnetGABZLq5QYXMUsgNF9UoDThx99XOS1z7hGMSfSpyWQ/VV231xYhv8ffvxxTxnKYz1SXhutNqTVgmLlV4qyZ2nhOgWewnwovqqHvY48t21jWULhVB7SEMBev3Gj57nNyzWg4PWEz/i1a9cryv6WW4BCuvlPpNuwLfufusNy7De2/bHXlAW4xNxB25RLjYHlL3LYZGxj8sJCi+13eE3EacsHueDSd8CzfaZrVuhYrKEuFgRQbHlWB8BydAvlZKXFYo0lD76ueLV3X6HaU0q72sP5xZfTkXP1XKkFJCeD/ilP0xTQId4BTOuUB+wBePiF+8jbzIu2ssHil2iPpcxz9ScmQ3rGquW9e1Nu4rF6fvvtt+zmzVt5WwRDUjnSnbunLdIpudq7/0BBp51ntt9V75w28x4ZlFw9efIkf8dZ2suum86vNt+COv1vSkcbPtWho4xXsWcoBlIoAImxPHj1yCXSKpn2mmNn4mVXVpYFvIVlFf0U8HXgran9hLY9rqEbgHDKANswT9kCbdgm/y2YD5+zv1W8CtvhP3uHdb8K1Id1p9oVHwDnIXA+dWraiwPwefTYsaJ90WFTgG14dIvqZ3x1bcvomnGIWYRUpm35kA/2/6j2KeVGzoIK/ISXoQdB2znWhkdsE9C4hikASmNQTm+7eU3dkhn4oOixIR38B9iIljppG15YetrKsPrTtjxeHCwExnigeywUiMK18TwAACAASURBVAd1x4/8XXmSeu80oQE6Xl6+ovQ7AO/QA9RHUvE1RYPNy/Wu3VPbYAD94bM2/1sDWJQzFBmsU2vXb8hX3EMrIBYGLKc8R/GywVvsMSIofSqLkgTYwe0OJZt82ntFm+EqQEqZtIoE5QARWI3Z48YPC6PAF3TmLk3GfSkFnkImY3GmfupSNOKwbfpEdFtcQ7Gg8Fz1fPLpZ4VCCmABTGOhRoG9dn0a2EJPqODbo36wtp1/2j9cH+1etMePHxftqd333p9W2AkUBEij3ZOnTmf8p0/8sNSpDJYnACr3CdiCBQiBxv2Y/W7iJ+OsMqRty6XGIORvk7GNyQv3sBzDA9tv7vELZQPLvfIBsmxfdU3QJOVBIdf9OgBWMsVxM2fPnc9se9TJsTifff75jJcJbaxZt6FolzFWu2EKEBZ9Fz/9NJkvLFf2H9lRnZydWpa36lnbedFWNpi7jPWRY8eLPgBaJQOa29AdkyHus0J789YUOIUPRDPG6oeCjkVSwFU8GhSApf7UO6fNvNdYEUxMtLOoduHtd4qFGeWJpU3mV9tvQTjusf43oaMtn+rQEeNR2T0soFKSYue+cpapLJsoBhs3b8mVERRuzklFCVX50B0MC6nKYj3lG4Aig3vcxk2bi2fkyV1xzTfSWiJ4jtWGdyXlDx3qtYACKukHLr3k4SgF0QT4Let/+IzVe8rShn1GYBCBV/oC/cxb8UHtKW0awCnVruUDdWOB5Wgf+MBPNFogQP9XrHw1wzINjZZfbwaePWH9WGrfXL0mHw8A+8FDU255alvtKe1aXvXE0lHtU8qN/OjTCMQsRNj+dpljbXjEohXWMMnqvv0HssUvLs1/FkQk6e0wr+m3lRnm1OatWzPmy8IXlmTMM8CMaGNOW16VXbfhRUgP7c72HNAc410KnmGRie0ZeD3I64R3oCzjdcePvvWLJ+F7pwkNuKfrO8GiG4t7S19elnF/1+49xVgjh3Z8rZzo/RN796kMNJIPcK17XdLWAJZ9TuHKqd3TBpjBImOJA4D99dcUALL7qHCd+3FyMv/F9p0RTEWKEwqmrTOlTFpFAmWG/Z22HNfXrk9bL7cHK9sp8GTrYF+T9nvJWsZz2zbWQVlmbVmuCdCjfqEQxqxrX16dtpJaC7MtC8CX+7Jt48ZXXxf1W3dD8gpsAnytck55PviAXmjDKq69zVa5j7nVsvCQj+OPkz37KtuWS42B5W/TsU3JC/2uuzeOSLrwBh4ePHxkhlxBn44aIVKrHZM6AFaRglWHZCRMcUkN98hCj/IdO3Gyp21LB9dajABYhc/a/LfeCF2iOFvZbjovusgGfa6zBzYlQ9YCjRt37MNuF5YGBWBT75y2816ygBeI3QqhOcDWDIKBMc+tcqVySuvMr7bfAjvuqf7XpaMLn5rQIXqq0iNHpo71wHoX5l2wcHEBMgGv4WIb+Teb40JsZFXArAV8IUClLGBYiqqNfMz+Ut1H8eGbYWlDedJz0hnftrHxQvFDGbVly66JZCmat26fPkcaxVr3T09MzADb1GkVMWhqso8v1a7lAwqs5a/tB7xFCea3NmLNBuiKX/BcZW39PMfiEVoGcdOzgMLue+5aXnTE0lHu08TEzHOAAR+SoW07pnXXLnOsLY/gN98PyQSLQ+EYJOntMK9pw8oMMi3vMdu+XVSruxDUlheWnrmYAxxXpnGIeaKgr2hu2y0AVeMHP/vBk7L3Th0aeH9QB30EkM5wCx8bzw4fOVLwQN94Oy5lNFi5Ye8r7TS13Ns67HVrAKs9fbYyPggCqCg19pmudcbi48fVQY9Upsda9EmvtSilTFpFgiNwVJdNccGTsh8CshR4ojyADqCg6LLUwR5W1W3bvl0S8ETBeiif2vOGMMkCzX5YtWFBIde6b1Nct6ALC5sF0Vh31W9735a19aNU8szSiwXb5i+7blsuNQaWv03HNiUv0F9HwVY/UQrDPZt6piNscLHHgqf7pHUArOYIY8TYY8HF5Z6VP9zPORZH43f9xlc99VvLL265tu3wWvKbmqth/qr/1mra5YxZKy9N50UX2aB/XQCsdVFlMS/GL94dWvQaFIBNvXPaznvbD0AsCx4sHEkGbYo3BGD2lddm7sdrMr9sm/Y69S2w457qv+qpoqMLn5rQIXrKUpRnKU+4PYZ5Ceik5wRtCp/zH6CK+zA/axFkAVplY5ZdytqjD/btn9oiw31W5lXWAlu1b+kOV+2VR/s4mwT0sEDPHsVggXZs4Yg2se6L5vDoFNGUSlPtWj6k3LtTddr71tpmz/u09R9msTQR+Aowr77RT9XdtbzqaZMOa5/s4ooN4MT8EQ+xIqnPXeaY6kilKR6Rvyr4ToreLvOadq3MpKLFYrwRr1LvjlSfU/dTvLD0zMUcYD6qr/adk+qH7leNn/KVpXV4UvbeqUMDiyPqH1b+GD0Ad+XRN8SOSxkNtj7eu9TT5J1vy4fXrQFsyj1R7o43vupVrNUwIAyFpyxqL8FxAE0EAcEiq6A2lAuBUwqQWEXCgkvRQcpEl/IV7oMVeOI57rL6sYdN1kuVxapiV3Nt2zawlG2ba4Cl6rCBBMJ83925k+eDBj2zYCF0q1aeVAo/1C6ujYCE8Gd5fv7td/J2acfuUwZoAZjYnynXiVibbctpDMJzYC1/m45tSl6gu0qxjfUtvGcXRXDxDp/XAbCycrHIE5MLPh647zOGjIe1urAQo7FNgT/RJLf91CKA8tVN8RBQ24CAuuXCfF3mRRfZgI4uAPbq0/3ovB/ktRD2jf9Y5eHToABs6p3Tdt7H+oBcsiUDN/cwCBx9e/T4cc9WCepoM7/qfgvsuKf6r35U0dGFT03oED1lqVUUsQSEeU8+DaySK3bGvTfMF/uvoCyhu2RP3rHxQnHJrX9P2+hVeqYBk8pa5SZmleyxaG6btqSqfCq1ihTWizzf2HgR1KisLywGSwnDlS3VRux+tN2nwW5UZ0FPjXFAUcRyhWsqSjHjp3qkIEKH5XOZ8mz3dNrvQdfyMV6k7o1Kn8oCOGkMAA7qZ5c5pjqU1uUR+QEFogdrl+pQaoGVpbfLvKZuKzNsJVB7NmWrgWgLtyXYfGXXdXlh6ZmLOYCFVX3FQs+7g60XsTGx/a0aP5tX1214UvbeqUODzhanjywQx37WzVkyYceljAb1jVSW3rqA15aNXbcGsACXWIUFgA0sQ8qbArAoRCiAAEQpwbG0DYBN0creTbVRBmCVJ0yxpLBf0YJX+mmVmFTb5FMEVqxs4k8sZT+h2hZYvfP91H40+B0rU3YPpVP11UkZF9UHMIkF7/rjjz8yghthmVRem7YpVwfApvibGttBAlgUJFk1sZLGQEwdAMuCABZM5Mjy0F7joquxs8F8rBsre6JtGXvNKr3KM272WdtrrMOq07q7N62vy7yoM/dSsgGdXQDs5N27ef9/efKklJ/a4zwoAJuaE13mfdUYwjcW1eSWjhxMTk728KEKOKqNNt+COuOu+qvo6MKnJnSInrJUgYP48IeLhHwLpFiF+ybL6uSZLcsqfSo/7qhqg/20yqfgHalgHFa5meGS9nSbiupFQVS9Van4gduy8tbti7XA9juAU4oPopGUxQiik5YFV0FBBtyrnPhMf+19PVdqg1NZxbpredWfSkexTxbsW90tFhDJylbTOSaeteERZbV14ERiK1AVvW3mNe1KZspkeu++/fl7geBs6medtA0vRM+czYGx8Z595npvkTKf2Yce84yoGj/xqwtPysaI+qtosO7Rtl9l11qw0LhU0aB+ciyb6iU+ge53SYcCwHLOH0qflF9SABH7yLDyWYViLgAsyrj9oSASZMq+/Owg1FVipKhXgdAYgBVPsKLZtutcC/zCZ9xHUz89Dy2J9I/gTg8ePJxhjcb6lNr/2LTcqAFYa4EkwA1uv+Hvp6eRidljrABBgOo642bzYJnSfLFWaFbfdZ9AT7aMvWYFVflkYbfP21zjMaE6iUTepg7KdJkXdebeoADsjRtf5f1ngUf7RGI80PybbQCrdhmj1Jznvp6H8z7Wl/AeQcRwI6YOvAOsO2MVcKSutt+COuMuWqvo6MKnJnSInrJUwUNie4Zwf5RCUHcFXG1ZgMmqv+6HKRZCtWHdKhW8I+UKVqXcsB1C9Za1H9ITC6SEMlSnLutOV3ffntqPtcuzKj6QBz1BCr/oZEECdzr2lmlfGM/Cfc6qv2qf8NGjU4GtQrDTtbz6H6aj3KcmAZy6zLEuPGKxStYq5lLIf/7HAjh1ndfUK5lJzW3yEOgHeU1tDwjp7cIL0TOXc4DxAKhCg8ZFc5mUoGy2z3XGrx88KRujOjRYeWFMAbyxH33kG8T3SP3UuJTRoLykLACJZ03fv7Yeez0UAJYIvVJ8sQax6mWJRBnU89kGsKH7qqUrdV1XibFuwDFXUdUvsGpdiK2bG0eRKG+dFB7CT8CmVTDrlA3zELwDN2S5Rape3BDCvPZ/nXKjBmDlXSBZrZta6z9BmVDi+VlXMMs7rq2McRaxfc4ZwLRdtheQMRN9NsCXrafpdR5t+uneSFycY5aXsE4ijbMgxE+WmC7zwvIlZYkcFIBl0UI8pV9hX/nP+ArglQFYxidW3u4Ptpb3Ov3uMu8JwMf4xILFhXSqHXjB0UB6XgUcydf2W1Cn/3XpEP1t3o9N6BA9ZSmAhI8+LlxhPiyiUgjY1xc+L/tv90zawCNhGQFRggTJAmiDd3AuYliG/1XKjQIqNYlG2eN2bAI4WTc5gjnF6OGeddNFeUzlC++n2q3DB+qy+3NxP8S9GuVS7XCNdYmxtHsObf2x8Vd5FkAlB+zX1P2u5VVPLB3lPjUJ4NRljrXlEfyuCr6DzMQCTnWZ17RrZSY1twn6I3mjjzH5CO+15YWlZ1jmAO8DMMqBA1MBicQLu2hdNX7wpx88SY0R9dehwXpuNHkn2nEpo8HKAccMwSu+JTGLtc1b93ooAOyDhw9zxQ+ra0zpRcGWYohyYTuXcgmto0iUKbIp8GTbTl3XaZuyNlBSar8i/IgFcbKBRlLRZgFARAYmOiwufqLXgherYOp529RailMKeKzuVLnUGNThb2psU/ICXVbBDs/qjdEd3usHgLV0lx1vw95wzQnG2NIiN2UU8E1b4i7d9qxSAUdbR9trQLPowlW2rJ4FixYXLteAOR0T1WVedJENaO3iQsy+ffUd/sZcyOU+TL4QwHK8l8pzLFWMd9bK3xTAdpn3ioaOTIVneId0ai8wfdm8dfq9U2d+tf0W1Bl30VlFRxc+NaFD9JSlWu23UVGV3yofqcWuxUuW5sHfsHhaBWv7zuljbFLgF2Aba79qf2sd5YbVfJQZu6KvfqXSVCAleCMlkv7GyrNvS3kGEcApts8XOlB2BZhy62okCJPdX8u16Ld8LrM+yZUUQMOZkv0qr3rCdJT71DSAU9s51oVH8Nt6C3DcUjgGqQBOXeY1bViZS8k0xgnNJTw0QtrC/114YekZpjmgPu7eM33EDAv4ul81fv3iSWqMoKOKBvLYxT/e26K/KrXjUkZDUc/YeIarMXKzd1/co6DIWyOGgPIOBYAVUGFPaXikCx/db7+bVornE4AloqcU1vy4kMDyzCBJcSQfyqsGDqurygL8qUvPlNpzZHHv1H2i56osvBdw0HNSRVlmT6fAKJY+XAzZ2xYDPXYPpFWu25aTXIRW8DpKogWC1sJZBmAtALH7fi1fuEZZ5HxPFh3sSvrqtevzvavsX039pKATqEl5eBnYNuRmzMJFzOJFfvGGcQwjHdtouFjvbd1cW/DLvs3weZf/8BCQI/kKo3urbiyRn1+6XOSzVuQu86KLbEBbFwBLn6wnAq6ogHEi8rIId/Xa9JFY8CcEsKyAag9pePwStCF3NkaAnWN1+t123tO2BX0cz0VfNZY2BSjJwsxxNhZY1Zlfkuum34I6/RedVXR04VMTOkRPKrWRfHH5D/NZN9yYmyFnjCoADWcV2jGzkUpjATUoKysqSocNEmPdzmIWzyrlBuVN1iO7r5b+4QrNMTMxq7AFetZluqov0C7lib7EAji1ate4cMf4QH+4L2UfOsMx5HukcyTJlwrgxLNYlGkbIddGiaYdO05tyqd4Msp9QtnWeFivt1RApLZzrAuPGDu7Tzfmbpmit2oulM3rUGZSMl0WwCkmM1140VWGu5TH0ix32vA9pXkMqEaeeL/Y46uqxq9fPEmNUR0ZIo99fxClXv2yKd8HFv2OHTteBK6yfC2jQfVwXq7mHWdY637XdCgArFVkOaJh7/4DGQANEPXjj5OFkovSN58ALINn3SUBh2fPnc+jI9P3a0+jmtJvzmsNgaa1xjx69CgjaA9ghrLW0oNSGAoK+yMFMu7du5cDMl7WWEw+unixUKRRsnXGH6Btusz9DAUaBZWPMFZggDTPSa2y1LaclNnZArCcd6b+oYRz/vC2HTtnnOd589atIl9TS63k2Z4bHI6NdUUFsOA2ytjjEsLYUlZ0AibC8iz64G6uPMgYq4OAbUC3og/zPOY+jEUcF2B+1oIWtpP6f+WLL4q2OW5Fwb2QFeQTWdFeS2ggT3gkUdt5UQdApBY36E8XAEt5lCKiR4v3YQow4wxs7ocAlvJavOA5fERZYLGIcecdYOtrCmCpv828pxw/RceGhocPH+bjCH3Mf2IC4AlAn0Qj9KssaZ351fZbUGfcRUsdOtryqQkdoieVEixDH30UhjAf71gLfnAfBABxrAXvch1ZQB3hNhPqFqgDTOIGRlkOr2ffn8Arz8LgNXIrpnxIE/97lZuZrs18T9QvuxDKO073UZbCumMBnMiDl5IsxeoLC+H8kE/LI+oPAzi1bbeKD9AGWFef2GPGPmJ4j0UY5VF0kwfaya9+q36VZzyxqrDthyiou3bvLuo+fvx4Xq/KknYpX8aTUe0TPLHAwrpMyoqdBwczVvK2c6wLj6DTWlLZP82ikPWgSNHbZV5bmUnNbfJoP3cYwCklM1140UWGbX9azSFjNaR8sbA2Np4v6FnawrOdq8avHzwpG6M6MkQeFjR0hjTvH9ya+Q7gqcA7xm674Oxfyli+VtGg/CyuwUPml8UGet42HQoAi+ucwI+UH5sCavV/vgFYBo6zPNW/WMqexpiFlbJfXr1aWhYrHpa+UEAAMxz/E2tP9wAW1nLLhxOwq+ek1trGf8qcOt2r2LQtN9sAFh5NTk5FkrV9DPujPabkYZEh5G3Z/zoAlgluFyBES8hrzptNvQwAFBZMUDYsb4M/WZoVTRcLWswN1uaNXUOTdSMV/bGUaM1ETo7V02Ze1AEQgwSw9INARhxNFPYXzwUWBC5dvpI/iwHYHbv2FItHYXn+az88120AbJt5r7EBDBBYL0ZXeI/3klW4VEfV/Gr7Lagz7qKBtIqOtnxqSoelacb12HhhqYT3M54TTdisbEtJsykACTAbK2utUbaMrikbAl/qEbhNBe+QYpdSbqxVywZwwjKqtjkjNqQZF1yeHzp0eMYza0lQHUpRzLTnlnuhRattu1V8EP0c7SNawpQ6ZCUvC+AEQA3L6j/u2AAXtadU9GElalq+iiej2Cf4IovZ8RO9MQZiAZHEx7ZzrC2PaNcuAmmcredAGb1t5zXtSmZSc5s8qQBOZTLTlheip40M2/60Lc/CnvivlPeJrkmxUPK9oD39qsaPfF15UjZG1F+HBvIRnMr2J3bNwo/6RqpxqaKBvOgB4lnd/bK2rbLrRgDWrlynjuiQco/7aqxhlG6UHaKw2ue4X/44OdlzRAtgCMAKAJLyHe4LxLIk5YnIuKqzDq2Er1bZ0JJGhF2e3b37U1Gn6q5K67Rt62AvIBanEMTT51u3b2frN8aVF+oALBAt1FrVoJu6bt3+tvQoFgQLS4Nc/sQL2mU/Z2z/pNrTOKsMyjhuj7Eyls4m5VJjUIe/qbFNyYvGg3JYDC1PTgaAnP2JyGZqcUB1xVLtT2WPZOy5vYdFS/ufxWdS3M0BQSnwqjpYuLB7XVUHfUvtsaSs5JBowKqrTUo0aix1atemnB16/caNGVsGbDtt5kUX2aBt5Fd0ynXe0sR1lQwpP+7fuN7iUQKw0X0tOmGN1T2bsmiEhdqeucz84nzTPfv2F/RZ63mdfquNNvNeZbGiX7t+PYN28cmmLEhYl32VU1pnfrX5FjTpP7TUoaMNn5rSIb6kUimLWFdTeXCtDa2MgMf9B97qcf2NlQdMhmVRNgiYgkUlLGMtByllBOspSlBKudG+qzCAE2c8AppPT0zk1nrbNu1KCWJfon3GNQok9SqPlDACreC5gvVA96zljbJt2q3DB9H43IKFOS+stZVr9u7ipqg9sqkATvAZi4jAl/pBHfQZV3O1pTTch9y0fBlPaGMU+wTdknULBrmvsYntNed5mznWhke0xQ8ZRc5FF2MOINFz3U/R23Re520ab4HU3IYuyV8YwKlMZtrwoqsMdy0vXq9Zu644Z1p9x5LIQpp1Q1f+nJcV40eeNjxp8t6pkiFLL7LFN0P9I9V3IFzwa0IDbSgQWm59XRjfemRpaXLdCMA2qbhtXtyBUCJZiUeBaFvPKJYDkGAd2r5zV8ZZoLjm1e2HLYtyVrcc+Sg7tX9zVx79FuBQpzwKDtYzLE7hClRZ+bblyurs9zN4gNtOGBFb7bCoMlvyiUywb5X9pFyLhrop1lhAOK7cgJ5wn7mthxeyAAnBv+yzttfIMm7Q7M1lT2joLlxVr5XtpvOiqu5+Pme+7tqzN/+V9VGLCizYlbUPUGbsUEbgQVneNs/aznu1xVFOjCuLfwDrGOBR3jCtml/kn41vQR06uvIp7HuT/xyzgjJRFoEzr29sPOOcPVyAG7+XTFlkDgWlCY39zJu3bVw4Vbc9j9O6Heu5UvahscjCvtcm/ejartovS/lGQhf7BKu+l6l9xCjlvL+r6uhann6keGL7OGp9srQ3vjbzpMkca8KjGTSNjedAZ7yN4m/ona15XSUzTXjRVYa7lg/HAsDJN57FoPBZ8n+N8WvCk2Q7xvo7I08NGvIyyMsSviHLszwYXuQ9PKPusnb/77n8m6TFltSiSNM6bf6hA7CWOL+edklwXjgvZkMGdu7eUwBYFpFmo8350gbgX0GYsJzHFpJYFNACgQ3KNl944P3o73tKUVBx2XqWeSvrI1YBQNxs8WKu2rXuf3WCpIT86Fo+rK8f/7vS1LV8P/rgdfT3/VbGz67j3bV8GW3+rJ4cyK0cl/3Q86UfPHQAW7GC0A8mex31hN35NPd8mjhzNgdYuHr7eDQfD9zPBVBxsyUSMdsgLl+5ksklnue4UGNZdR435/GzxDNW/OXWFYvMO595gWUCt1rtEYUPoevnIPo/V+3avlTtI7Z5Y9ddy8fq7HqvK01dy3el38vP7ru663h3Le/j3W282U7DOxvXYRvFvp98dQDrANaVaJeBQgYAWwCs1B72fr585mNduN/Yo68EZm1KNGFc9udj/71P3T76Mf4dOXo0VwRSgZxiZebDPdyhBd5JOdJiEKv4Ia/mql1LR5MgKbacrruWVz39TLvS1LV8P/vidfX/PRfytOt4dy0f0uP/6485LsiKbmzjf/Sbhw5gHby4Iu0yUMgAAXh0lFW/XzbPUn0EbyK4GrzkaByiBxOojcBQTfa2P0s8877GFQT2fxKshbMfnyUe4ZKPFYUgILFoyIPixVy1a/tDnxlzIsra+3Wvu5av206TfF1p6lq+Ca2eN/4umk2+dB3vruVns6/zrS1A62x8sxzAOnhp9YGcbxPO+zP3HywfAx8DlwGXAZcBlwGXAZcBlwGXgSoZcADrANYBrMuAy4DLgMuAy4DLgMuAy4DLgMuAy8BIyIADWBfUkRDUqpUYf+6rdS4DLgMuAy4DLgMuAy4DLgMuA/NfBhzAOoB1AOsy4DLgMuAy4DLgMuAy4DLgMuAy4DIwEjLgANYFdSQE1VfT5v9qmo+xj7HLgMuAy4DLgMuAy4DLgMtAlQw4gHUA6wDWZcBlwGXAZcBlwGXAZcBlwGXAZcBlYCRkwAGsC+pICGrVSow/99U6lwGXAZcBlwGXAZcBlwGXAZeB+S8DDmAdwDqAdRlwGXAZcBlwGXAZcBlwGXAZcBlwGRgJGXAA64I6EoLqq2nzfzXNx9jH2GXAZcBlwGXAZcBlwGXAZaBKBhzAOoB1AOsy4DLgMuAy4DLgMuAy4DLgMuAy4DIwEjLgANYFdSQEtWolxp/7ap3LgMuAy4DLgMuAy4DLgMuAy8D8lwEHsA5gHcC6DLgMuAy4DLgMuAy4DLgMuAy4DLgMjIQMOIB1QR0JQfXVtPm/muZj7GPsMuAy4DLgMuAy4DLgMuAyUCUDDmAdwDqAdRlwGXAZcBlwGXAZcBlwGXAZcBlwGRgJGXAA64I6EoJatRLjz321zmXAZcBlwGXAZcBlwGXAZcBlYP7LwMgD2LEFC7N333s/u3rtWrZh05ahBmNzQeuCRYsz2n1WJ/PiF18aqb4vf2VldvDwkeyjixezzy5dyva/dTCnfy5kZ5hlZtGSpSM1rsPMy7q0vb7qzWzNuvXZiy8veyZ5v2Dh4mzTlq3Z1m3bs+eeX9SKB+Lhytder12+H+3WHWPPN1ilb3zh4nwOMY8WLXmxkAHub9q8JZet8YXtZGs2x27U6J1N3nhbg51DTfm7avWafM7Z+da0Ds8/XGOq8Rh5AHvo6LHsf//7X/6bnLxbfBDUwbbpxxc/yW7c+Cr74MOP+lbnoGgN+7h56/bs088+z+DHP//8k/3119/ZDz/8mF385NNsxauvJfvDIgB9rvqdOHU6WkfX8mE/2vx/admKfEHj3v372Z9//pnLxR9//JF9992d7KOPL2bwpk29s1Fm9br12a+//lrIM3J95Ysvc3pnS3Zmo59t2li/cXMu03e+/z5jPOHNL7/8kn1z82b2zrvvZQtfmFYG29TvZco/UCgBFy5cnwqPFAAAIABJREFUyCYmJrKFi5cM7Rwa5Dju278/5wF8gB9t2jpz5kxex+49e2uX70e7bWj1MuVzog1/XnvjzUKGWKxUHXv27ivur16ztriv58OWjhq9w8Y/p6f/cyvF0/0HDuRza/uOnUM/r1J98PtxeZlnAHaybwL68OGjXEn+6ad7fauzF4T00rpq9drss88v5b8uIAuL3d9//90DggTwSX/++eds9dr1M/qEpdLmK7sWqLKTqmt5W1fb630H3sr+85//lPbjn3//zc6cOz+j/23b7Ge5uz/9VND+x59/Zl99/U2mxYIy2eknDcNYF33/66+/Ct7EZJMFC+ZQjP5+za1Y3XXvDQMNdWkN8y19eXl27ty57Pz589nyla9GeRyWmY//jx0/XoCMZSteacyHxUuWFuXXrd9Qu3zXdufjWIxqn7Zs3VbIgPWMOnL0aHHfAtu56ue6DRszaF29dl1UToeN3rni0zC3WzWGs0H7MNDw2hur8rnF4uHY+PNReZ4NXngbcRDahS8jD2D5CGCB+eLLq9mGTZv7JpyDALBltO7eu69Q0E9NnGnVjwMHD2UANBT8v//5J/vy6tXs9MSZ7L33P8gsOPr9998zlFIrOIBaAQNA+/c//JD8nbvwdk9Z6ula3tLS5vrgkaPZv0/7Tj/o4+UrV3LZuHT5Snb37jQ45Dny0qadQZXB1RtrObRN3r2bjQcuimWyMyiahqHeiTNnC7mENz/8+GNuib3w7rv5GD55Mm2xBvSvWDnTw6Afc6srL4aBhjZ9wJ3x5MlTuQKwbfuOoZozbfrTpczyV17Ndu7ana18/Y1WfMB9GOstv2Urpq1vVTR1bbeqfn/ef8UqxdO3Dh7Mx//48RM9MgRoRbZQtlNlZ+v+/z23IF+wQk6xtMbaHSZ6Y/Q96/fqjOGgeTQMNNBHQKveu2+8uToqz4Pmhdc/mHfsyAPYQQnGIABsGa39UHBvf/vtFHj9++8Ma6RtD4Ck5wABrFr2+Y5dewqg8Pqq5pO8a3lLS9NrrCEAVvrF7+tvbmaxva9Hj5/osdBqf2nT9gaRn/3bov/d9z/oGZtBtDcKdQLiNa4szMgabWl/8aVluaVavHv7nXdn8K4fc8u22eZ6GGhoQzdKNR//M2fOZux7a1OHl5n6eKesb86fwSg3w8jXNi7ks90PFrel8K/fsNHn/AgG+hyGMRwGGjR3Tp06ncs03zPd83T037t9AbDs69iyfUeWCqyC+9y2HbuSz0NBwtq0dv3GbPO27X3f28ak2r5zd7bytfJV9KYAtm69YV/1v6uCi7IvN8vrN25EJ+nGzVsLkIR1Vm2TykX1v//97wzrn82Xuu5aPlVvnfufX7pc9OvRo8fZiy+93NM3W8euPXuLvAB6+8xeI4NvvLkm27Frd8b+yyVL2wWDqisXyLpA2PGTp5J0WRpj19DJOG/dvqM1zbF6m9yDbzt378lSbpbw9s016zIWPbDch9ZmtcU7QDz59tvvkjyBx3Idx5VY5ZU2nVtd3z+x/rehoQ6P1MdYGqMjli91j6AXuA2jzG7YuGkGX8NyrLjjJvvSsuXZ2IL6rlrT5VZki9jLPDZe2VbYNgtWLxCwLVZ2bDx/lr8XYs/7rKAS4AmZDOlJWd/CvnT5z/xfumx5Bk9j9XAfPsQW+GL5w3sLFr2QEWeg7T7oruVDevg/Kn1iPgkY4loZ60vVvem50nyO1R139uCKTqz/VTSVPZ+mt/3cRmaQad7LZW3VfdZVXminixy3LUv/4cPzi16o5EPTMezKk9h7pw0NvJd4v8CjuuNp88Xo4PnBg4dymT7wVq9hx5b169EDtI0ALKAPgMMPN1IsIgAGKZncxzWTFyUT4uz5C4UFhTy4eN67dy/p6gsIJvAQ7q+qkzIPHj7MTp85GxVoBFY0vffBtOUqpBUX0/v37+d5Vfdvv/0eteogyCkA26XeGK0TZ8/10CTa1KfQ6sRCwKpIkAcseAS14ZcCQIyJXIzvfP9DDz/Pnb+Q8xyLV5uJ3LV8mzZVRoGP2PsL2NT9VHrnzvd5X+FxuG8SSzXBrn5/GihI44Ec3rx1O1ufUOTbygURtKFD7SjV+OMqSz9ismP7t/L1VdlXX3/d40ZNHbdu387BIu7U/MfN1pYDoKuttw4d7nmmfIAv5bGW/bDPyMDPv/xS9CXcawxvCY4GDeonKcG2CDrGc7VJiqwrH4sU9ll4DWDGwo4bvZ41nVtN3z91+t+UhqY8oq916BBPmqSyvp49e7YUkC5Z+nJGUCL2yUrxBfgeO3Y8K9vrSbk9e3vLUR4rFRFZY7RiEaJufoCoHTt3ZadPT62uq6xcfJ9f/EL+3NJFX3bu2hWtO9ae7hE1tmg3ETAM9/VDhw8XPIAe2svfGWPjeb+41ySAU6pdyweAEXUSYIv6+fVYy8fG8yicuK3SB+WBNkB1DIza+lGY2Qt58tSUK7nKnzh5Mlvxajyactfy4nsyHcE+aS8e/LP7XOGtZCsVKbXVHGvII5R8Kx8aZ9GG/sB41KW3y9xm7hLtGxkTHaTMr1YB+xryQnLXRY67lFX78Hzzlq3ZiRMnevjAXN+ybduMBbu6Y5jX34Intk+p904jGnLdZuo7EMoee/9jW4KgvQ4d4iEp70fk59ixXs9Dm8ev5zmAxdIqhZIAMwJDuqf062++yT786OMir+4rBSQRcdUKDHvd7B5G5bXphx9/3FOG8rgQKo+NGBzSakGx8itF8ba0cJ0CsF3qjdEKyBcdsfTU6YmCtstXvsjzAiYA5CHNVf+xyKgN9oXa/BzbwrP7Dx7k959fvCS35OFmWxa5WHV0La96mqaADvUJYFqnPGAPwMPv5eW9wViwXqu+WApYfj2yj6KtXLDoEmtH9wC49CkmO+orq5b37t1P1vPbb79lN2/eyp9jpVc50p27py3SKZnau/9AUbd1u7Z9xpqNXIpu0hDAEqXaPg+vr1273kMbMqh9wU+ePMloz9Jedd1kbrV5/9TpfxMa6E9THlGmDh1VvAqfo5xIoQAkhs/1Hyu73CKtommvOXpG+ZWyB7SqHOBN+ZUq+ing68BbU/sJbVtcQzcA4ZQBtmGe1EKU2glTC+bDZ/xnf6v4FbbFf/YP634ZqA/rTrUrPgDOQ9B86tS0Bwfg8+ixY0XbosGmANvw6BbVzxjp2pbRNeMQswipTNvyIR/s/1HtU8qFnAUV+AkvYx4EbeZYGx6xTUDjGqYAKI1BNb3d57Yix4Z08B9gI1rqpG14oXq7yHGXsrSPBweLgDEe6B6LBKKVtO4YtuWJ+lT23qlLA/S+vHxF6XeA9wd6gO0j13XosGV27Z7aCgPwt/f9evRAqx2zRhZYqyihfKJUYiFcu35Dbv0IrVZYWrCc8hwl2AbS4UgTEYICrrIorARlwgUSCwz5tA+ONsMVmZRiH9KKlQerMZZKflh8pHBDZ+5eZlzJ6gBY6GlSb4xW7q3bsCkDqEqhf/+DD/N73Ld0YTFWnpSbsHgaS7GOq3y4B1bPOG7m7LnzmW2LMg8fPsw++/zz6MuEtrqWj9Fb597JU6eLPnFuap0yqTyffPpZURdAnoUNAoMB7K5dnwa2yEYIfNvKG+4yjPORY8eLtgGt3OPHc+iNyQ73WaG9eWsKnDJOBOvC6oeCjkVSwFXjPigAS/3MXSJpI1tYbeGJeE0gMdFAkDDkHd4yfvzXM2RfZUgJJqZnLB5cePudSvd/la87t9q+f8Ixj/W/Lg3Q3JZHdegQT+qmWEClJKXOfeUsU1k3UQw2bt6SKyQo3FhPUMhVh3UJw0KqclhPkQMUGdzjNm7aXDwjT+6Ga97L1hLBc1bieUdS/tChXusngJJ+4M5LHo5RED2A37q8IB8r95SljbAcgUEEXukPfWDeig9qU2mTAE6pdi0fqBcLA0f7wAd+otECAfq/YuWrGdYt6LP8ejPw6gnrx1L75uo1+XgA1g8emnLJU9tqT2nX8qonlo5qn1Iu5EefRiBmISLsb9s51oZHLFph6ZWc7tt/IFv84tL8Z0FEKb19mtvMp81bt+bBzha+sCRjjtkFL+Z0yKvU/za8UF1d5LhLWdrXHOM9ig7NIhNbM/B6kNcJ70BZxilTdwzb8iTsU+y9U5cG3NP1jWDRjYW9pS8vy7i/a/eeHjnUeCitQ4fyksoCC7i29/36GQWw7DkLV7Ht/kLAIdYxKyAo/ZxJikJq97Thxvjj5GT+i7m/EtRGSiyKvq0zpdhbpQ7Fkv12thzX165fL+rdHlgZ6gDYpvWmaIWWOnvksJrCh9wCe/jIjP6E/bP/sZwJsBPJ1T7j+tat23nd2kcrfocpLqmxPYtdy4f01P0P2BONbaM30xaBq1QPQClmdf7y6rQF0Vr7Kd9V3qr2wKZkx1qgceePfdjxllDfBgVg8XDYs2//DLmCN6++saqQvYePHhWgXGOMov/48dRWBLww7F56rN3WLZl+IMdsB+A4J94HVrlSnTatmltt3z92zMv6Dy1VNHThURM6LF/Kro8cmTrWA+tdLN+ChYsLoAl4tQttyr/ZHBmi6KoAWQv2QoBKWYCwlGgb+Zi9pbqP4oPcqC1SFCc9J50xh8fGC8UPMGHLll0TxVI0b93ee440yrWenZ6YmAG4qdcqY9BVdy9fql3LBxRY8TbsA7xFCea3NmLNBuiKX/Bc5W39PMfaEVoGcVG2gMLuee5aXnTE0lHu08TEzDOAAR+Sn207evWltnOsLY/gN98PyQSLQ+EYlNLbp7mNTLMtImzbLqrVXQTqwosuctylLP3muDKNQ8wTBX1FczvcAlA1hm15YvtU9t6pI0e8P6iDPgJGZ7iFj41nh48cKXhgv/FN6JAMsfeVtppa71Xe0+EEuq0tsN/cvDnjBcOHWQAVBTM26DrO5fHjn6PPY2VQRKSAsz/R5kkp9lapu/N93LUUUKd6w72mdQBs03pTtNKfKgVXfUYpDPdt6lkq3bRlWxHgiX2iWKDDvBoX+IHFG5dK3LxZ+cMVlL214tX1G1/1vXxIT93/1mpKcK665cJ8CkJFH1N7QXnJyhuA/bC2jq7y1hbAWhdVFpAsTboGECrI0aAA7O2SIEtYsCU7KZBrLdAAStFOCojFksyCkeqxKV4QgNlXXovvx6s7t2yb9jr1/rFjXtZ/6qqioQuPmtBh+5W6RnGW8oTbYywfQZ2Uh6BNsTyAVdyH+ckqyKKnyqUsu/bYg337pxdFWJlXWQts1balG+uR7ttU+zibBPOwQC88hsGC7djiEW1j4Rfd4fEplrbwOtWu5UOZe3dYX/jfWtvseZ+2/sMslCYCXwHm1S/6qPq7llc9bdJh7ZNdXLEBnJg74iEWdNvntnPM1hG7TvGIvFWBd8ro7dfcTkWKZQuUeJV6d8T6W3avjBdd5LhL2Xwc1q4r+hq+c8r6k5ftGIQrxRPbp6r3TpUcsTiiscTKH+sTwF159P0gXxM6VC/vXepq8t5XWU+HE7wyLq0BLO5usYGV6+mNr2aCHPKj+KN8/vxzGsASpAglloAsWGQVIIhyuP7adlOg0Cp1IehVeV64UoTDfbB1AGzTelO0Qk+Vgiuam6a89H/99be8n1iuUuBMVi4WFmyACbVHPbiMwy+sZKHFpWt5tdM0xRKqMUzt4axT58VPPy3qifVfdXx3506ej/NHdY+0q7y1BbBXr015ETC21nJpaeMaqzt8GhSAtQHUwraZJxoj3JqRwfBn5/j5t9/p4a3qY1zYBoCbexgIivofPX7c47asck3nVt33jx3zsv5DRxUNXXjUhA7xpCy1iiKWgFjek0+Dq+QAx7j4xvLaewrKEnOXLPKNjReKS279e1p/r9IzDZhUzio2Matkj0VzW68lVXXEUqtIYb0o8oyNF4GNyvrDwpcUMVzZivIVfEu1a/nQQ09FfSiKWK5wS0UpZuxEl1UQbf1lyrPd02m/B13L1+UP+UalT2UBnDQGAAfb97ZzzNbRhEfkBZiIHixdYV0sdOh5SG+/5jZbCcJ2+c9WA7VttyTE8qbu1ZUXyneR4y5laRsLq/qKhZ73BlsvYmMS9rVqDMP8dXli+1T13qmiQWeL00cWiGM/6+ZsZaIJHeqrrL1VwFv5PR1e0GrHpjWAvRA5b5GKCwAbsdLxPAVgUU5Rxgk4I2U3lrYBsClaOaZCbbQBsE3rnW0Ay0tBrpn0k72RdvDtNUevYMFEGbb37TUuuuKXDeZDnq7lbTtNrrEOi6bQrbdJPYpMjIW1rBz7bNWe3Y9tQURTuaC9tgB28u7dnJ5fnjwppVt7lAcFYFN9pm8ATvGsTsp7oGwM9AyeYYHHq0D1Tk5OzihbBR6pr837p86Yi9YqGrrwqAkdoqcsVeAgPvp2f5XKIPdSrsK9k8oTS205VuhjebiHO6rqZy+t8ilwRyoQh1VsZrik/d9zucux6m1y1rX4gduyaCGt2x9rge1nAKcUHyyNLEYQFbQssAoKMuBe5cRn+mvv67lSG5jKKtZdy6v+VDqKfbJg37qQpwIiWdlqMsfEszY8oqy2Dpw4cbKQB9VJWofeQcxt2t67b3/+XiA4m6Wp6rotL7rIcZeyeX/Gxos9sHpnKWU+sw895RlRNYbU34Yn6lOd904ZDdY9Wn2qSu2CRRM66CtHs6l+4hNUyYs/Hw3wyjgNBYDlvEcUcCmhpH/88Ud+RA+urVa5cwBbT7hwZ+NMTPG0C7jThMYypfpS1mfljaVdy8fqxEovmoh+HctT554ALAswZfmHDcDeuPFV3n8igtt9ImEfODYJPs0FgFXbtM/WgtRPzzlqJ6S/7P+adRvyYGqUxzvAujNSrgo8tn3/NAGOVTR04VETOsr4qGcKHpLaL4QLpBSCqpV41UlqASar/vaZvcZCqPqtW6UCd6TcwKoUG7ZDqN6y9i0tXKcCKaEM1anPutPV3btX1m4VHygLSJLCLxpZkMCVjr1l2hPGs3Cfs+qv2id89OhUYKsQ7HQtH/Jf/0e5T00DOLWdY114xGKVLFXMJfHdpqkAToOe29BAoB/kNbU9wNLJdRdeUL6LHHcpq34wHgBVZEfjorlMSlA25VVaNYZdeKI+pd6/dWmwssKYAnZjP/rIN4jvkeomrUuHyrAAJL41ef+qvKf1MMdc8GkoACyRS1E++XFUDKuPlhko5nruALZamLA+yGUUvlWBTYIyocTzs65gdgy4torypcvT53J2LR+20+Q/56PqiCRcnGOWl7A+oltjMeQnS4zdS1vqQvzUmljmQpyyRpZZ/NtaYInKq7lBv8K+8p/xYZ8o+coALO69sfJ2f7C1vFt5SPWZ+piztI2bcwguY+3pHkHfGB8CHOleKlUbtMPRQDZfFXhs+/6p239oqaJB9DflEXU3ocPyJXUNIOGDjwtXLA9WUSkE7O2L5Ynds3smw8AjNr+AKEGCZAG0gTs4F9Hm13WVYqNgSk0iUfa4HQcBnKybHMGcREeYWlddFMjweex/qt06fKA+uzcX90Pcq601nWtFALV7Dm39qfGnfryJJAPs1VQfupZXPbF0lPvUNIBT2znWlkfwuyr4DzKTCjg16LlN0B/JG32MyUd4rwsvushxl7JhH/Sf9wF68YEDU8GIxItw0bpqDNvyxPYp9f4VrVU0WM+Nuu9D1d2EDpXhqCH4xfckZbVWXk+r8cUw8WgoAOyDhw9zBRerawyA7DvwVqGkPwsANjw/s4nA8EJQRGCU+TpHy1hgxV7QVHvsR6ZOfhx1pHxdy6uetikBdEQXrrJl9SxYtDjff01+wJyOw7FBhFL7hJHNOkGcUmDO8il0WW8LYNkrrr5zFmxsH6zch9Vnyx8Ceqn824ltAXafcRsACzBWGyG4tLSE14r6DKgLz40O82ovMO1s3jrtdko+Cx5jc6vt+6cJcKyioS2P6F8TOkK+xf5rtT+Miqq8VgFJLXgtXrI0DwCH1VNK1vad08fYpIAvwDbWftX+1jqKDav5KDLhir76FUtTgZTIC3+kSNLfWHn2bilPvwM4xfb5QgPKrgBTbl2NBGGy+2u5Fu2Wz2UWWLmSAmg4U7Jf5VVPmI5yn9oEcGozx7rwCH5bTwGOWwrHoCyA0yDnNnSwHUrzCA+NkLbwf1dedJkHXcqG/Yj9371n+ogZFvBtnrIx7MIT26fUe0d0lNFAHrvwx3tb5eqkTejI6xsbz3B5Rnb27ot7FdRp1/MMJ7AdCgCrgElEStW5lxIYlJ9vv5sGKPMVwFogktoDiLLIPlYAll1NF69I7dFAV774ovbL4ad7U2dxAtBiFi9eHBonQAJnlNp2u5a3dTW9hneAHIGkMKK06sMS+fmly0U+a0Um0q3K58foBF4A1CFARb7QJbsOiBgEgKVP1tqOKypgnIi8LPxcvTZ99A90hxZYFjy0hzR2vBIyZ/eltwGwRM0Wb5EhLRpoXEgPHj6SLywQ3E2WYAv6bnz1dfT4JsoCkmRhxhofgqqquSW5bvr+qTPm6mMVDW15RP1N6BA9qdRG8iVoSiyfdcWNuRpyzqgC0HBeITJKPTZKaSyYBuVkRUXhsEFirNtZzNpZpdigvMl6ZPfVqn+4QnPUTGgZtkAvdJeu6g/0S3miP2EAp1Sb0JRqt4oPlIU/UvahUX1UivVU50iSLxXAiWexCNM2Oq6NEk39lr425akjxpdR7lObAE5t5lgXHsF3u0835mpZFsCpai50mdvQVhbAqd/y0lWOu8wBLM1yp429p6BN7ui8W+zxVVVj2EU+bJ+oh7ZSvyo5su8PItTH6uH7wILfsWPHewJXNaGDejkzV+9CzrGOteX30mM57LwZCgBrQQXHZezdfyBb+fqqXKn98cfJQvlFCZ6vAJZzz6Tko4xz9u22HTt7zvW8eetWkSdmSbKukNR1euJMRuCl6O/0RKFYIqTWFRXAgtsoQAN3EMDF/QcPirYBE6Fgdy2PpRgXYH6hBS1sK/YfsC7+cdwKrugcOQSYAWwfO3Ey33tp84THEVk3YvZpnj13Ple66f+1p9F+Kc9ZpiEIqwMiBgFg4QUuz0SPVt/CFGDGucvcDwEs5bX4wHP4iLKA6y79pq+2vjYAljY++3zKjZi67t27ly/EoKQx1h9dvFiAaOiz53squjXlHj58mI8j9KGEb92+I/cEoIxojC3aVM2ttu+fOmMuWa2ioQuPmtAhelIpwTL0wUdZiOUDkFoAhPsgIIijLRhTHVlAPbzHVQd1C9ABJnFFoxyH17PnT+CVZ2HgGrkVU1712bRXsZnp1oxMqV/aNqDyzGU9Q2HSfdJUACee4ZEha7H6wwIsP2TU8oj6bQCnsjbL2q3iA2UB6+oPe8zYRwzvsQajPIpm8kA3+SnHT/WrPGOJRQXXf6Kg7tq9u6j7+PHjeb0q24/yKb6Mcp+sQm9dJmXFzoODBVbyNnOsC48YO2tFZf80i0LynuB5Gb2DnNu0rf3cYQCnQchLVznuNIeMxZA5WCyqjY3nC3q27tjZzmVj2EU+1G7q/QvP9CujgTwsZugMad4/uDXzHcBTgXeM3XLB2b+ql7QJHeRngQ0+Mse0kGrr8+vpcRtFXgwFgMWNEfdhKaFhCqjVvfkKYBGeycmpiLLqK+mp09MKm47D4T6AygocSpktV+faWruZ3NbVVOWtZZN7nP8bexF0La9ouljQYm6wtq+xa9q3bqSiP5Zypu2W7b2HxqtOzriNldE9xgBrrfIrrQMiBgVgoYFARpxLLDqVEpUXkHjp8pX8WQzA7ti1pwCQKmdTG0StLYDFY+Crr7+ZQZ9th4UHgnKJp6QAgUePHpeWUx1fXr3ao3DZesrmVtv3T50xr0sD+dryqCkdlqYZ12PjhaUS3s94/lRRsSvbAjs2BSQBZsPy1hpl8+uachb0qrzAbSqASJViYy1aYQAnLKNqn3Ni1SYpLrg8O3TocM995bHWBNWhFOVM+265Z61aZW2WtVvFB9HFsT6iI0ypQxbysgBOANSwrP7jjg1oUXtKRR9Wojbly/gyqn2Sxez4id4YA6mASOJlmznWlke0aReBNM7Wa6CK3kHNbWhLBXAahLzQXhc57lKWtlnYE/+V8i7RNSkWypgXXtUYtpUP9Sn1/oVu/apoIB/BqWx/Ytcs/KhOpU3oYPFFfKvat6v6PZ0ex1HgRSMAa60I5y+8PUO46LBA1rXrN6LPAUAonBzvYhm0eu367MfJyYxoqlJIUWgBrKz+CkiFezTZA6D873/wYVFnHVoJJa6yoUXzwYOpfbl37/5U1Am9XepN0So+QA+WQ7lDQttJA2DZowhPcPPlyBuVI7VKrPpUlWLFsnVwzd5W7fO05XGrBQTFwKuto215LWAQDdjW1/QaazOWOku7rjk79PqNGzPc1G0b7JHFEit6VBb5u3X7drZ+Y1yp7yIXtL9py7aCZrnQWrqqZEd5cf/G9RYvBmRC9wF39AVrrO7ZFOCI1ZkovuozYJfzTffs21/cwy1Z5er0WXlJ+aBgibXyTVvwluO14IHNr2us6LjGQ7tosykLEuGeYpVVWjW32rx/mva/igZobcOjpnSIJ6lUyiKW1VQe7uPmGloZWaHff+CtHvffsA7AZFgORYOgQVhUwvzWcpBSRLCcogSlFCztu4oFcOKsU4Dz6YmJ/P2u9mlXChB7EnXfpiiR1K18UsQItoL3ChYE3bPWt1Sb1J1qtw4fRNtzCxbmvLDWVq7Zt4ubovbIpgI4wWcsIgJf6gN10F9czdWW0nAfctPy1FPGl1Htk2TdgkH6qrFJ7TUnT9M51oZHGj/kEzkXXYw5YETPdb+M3kHMbeiS/IUBnPotL/S1ixx3KSs+k65Zu644Y1p9x4rIQlpZkMmqMWwjH03eO9BeRYP6iWzJI0d91HfALvYpf1M6FAgtt74ubLbXVm16OtyAthGAnY3BxC0LRRariHVfmY22h6UNQBTuO2E0ZugDzM8GX7AWErSJ/aRcN+VNk/K8kAVI3n3jLmChAAAgAElEQVTv/cZtxWjjXFrcoM+ev5DvCQ3dhWNl7D2AOn3YvnNXfsZtDOzb/HN1DV279uzNf2V9JMATPGaRqIxWgDKuuSgiVYsVZfWUPaNeACO8JfI18l6W3z7jKCbGlQUngHUM8Nj84XXZ3CLvbLx/qmiAji48Cvvc9D/HrKBQlEWhLeocG8/P2cMNuNF7yZRD5lBOijrNav5s3cvbD9w47VmcodtxSBd70VhoYd9r3b7E2qTeJu2GdIT/AdjQxD7BmMXG5k/tI0Ypx1unqo6u5UVLii96Pop9Eu2tUjNX6s6xJjyaQdPYeAbQGW+r9Bt6Z2Nu91Ne4EUXOe5SdsY4AKYXLMy3y7AYFHuevFcxhp3ko+77uYKGnHZkZcmL+WJfHggveAcn+1dBA2e/asEltejZtm4vNzygdugArAvH8AjHbI3Fzt17CgDLwsVstTsf2gH8KwgTlnOsfGG/WBTQAkEYfCrM6/+fvfkXjrkioOKuFT57lv7L+ohVABA3W32fq3at619VoJYYL7qWj9XZ9V5XmrqW70q/l5/993GXMe9S1se6f2Mt13Lc9rEIO2/7x9th4qUD2IqVnGEarPlKy8SZsznAwv18vvZxkP3C7VwAFTdbIhHjen/5ypVMrvA8x4Uay+ogafG6R/9DgVVfLl1hVN75Pr5YJnCr1R5R+BC6fg6CB3PVru1L1T5imzd23bV8rM6u97rS1LV8V/q9/Oy/T7uMeZeyPtb9GWu21PDexnXYRrJ3/vaHv8PERwewDmDnHNAAtgBYqX3TwzRhhpEW9trZI34EZm1KNGHcdoeRfqdp+D4sR44ezZWAskBO83HccIUWeCflSIvZWMGfq3btGDYJkGLL6bpredXTz7QrTV3L97MvXtfsvCe7jHmXsj6+3ccXN2RFOLYxQJy33Xk7jDx0AOsAds5BDQF4dHzSME6SUaGJ4E0fX/wk5yVH4xA9mIBUBIUa1j28o8LbZ41O9mESrIWzH5+lvuOSjxWFACCxaMiD4sVctWv7Q58Zc6LJ2vt1r7uWr9tOk3xdaepavgmtnnc4lOwuY96lrI9/9/EHtD6L361nVXYcwDqAbaWsPKsTxvvd/SPjPHQeugy4DLgMuAy4DLgMuAy4DLSVAQewDmAdwLoMuAy4DLgMuAy4DLgMuAy4DLgMuAyMhAw4gHVBHQlBbbtC4+V8dc9lwGXAZcBlwGXAZcBlwGXAZWD+yIADWAewDmBdBlwGXAZcBlwGXAZcBlwGXAZcBlwGRkIGHMC6oI6EoPqq2fxZNfOx9LF0GXAZcBlwGXAZcBlwGXAZaCsDDmAdwDqAdRlwGXAZcBlwGXAZcBlwGXAZcBlwGRgJGXAA64I6EoLadoXGy/nqnsuAy4DLgMuAy4DLgMuAy4DLwPyRAQewDmAdwLoMuAy4DLgMuAy4DLgMuAy4DLgMuAyMhAw4gHVBHQlB9VWz+bNq5mPpY+ky4DLgMuAy4DLgMuAy4DLQVgYcwDqAdQDrMuAy4DLgMuAy4DLgMuAy4DLgMuAyMBIy4ADWBXUkBLXtCo2X89U9lwGXAZcBlwGXAZcBlwGXAZeB+SMDDmAdwDqAdRlwGXAZcBlwGXAZcBlwGXAZcBlwGRgJGXAA64I6EoLqq2bzZ9XMx9LH0mXAZcBlwGXAZcBlwGXAZaCtDDiAdQDrANZlwGXAZcBlwGXAZcBlwGXAZcBlwGVgJGTAAawL6kgIatsVGi/nq3suAy4DLgMuAy4DLgMuAy4DLgPzRwYaAdixBQuzd997P7t67Vq2YdOWvgCfQdRZJaALFi3OaLcqX+o5ZRe+8GLr8tS7+MWXOpVP0Vb3/ly3X5dO5Vv+ysrs4OEj2UcXL2afXbqU7X/rYM6/uZAf0TSs6aIlS+dUtoaVL4Oi6/VVb2Zr1q3PXnx52TPL9wULF2ebtmzNtm7bnj33/KLGfBAPV772eu2yXdsclDx4vc0VpPGFi/M5xDxatKT328qzTZu35LI1vrC5bM32eIwavbPNH2+v+fwYBM9WrV6Tz7lwvg2iLa9zOMZ8vo1DIwB76Oix7H//+1/+m5y8W1vRKGPaIOqMtbd56/bs088+z6D7n3/+yf766+/shx9+zC5+8mm24tXXKvsC6D3/9jvZw4cP8/L//e9/sydPfs3B/GtvvFlZHpoOHDyUff/DD9kff/yR85D0zvffZx98+FH2/OIlteqI9a3OvZeWrcgXH+7dv5/9+eefRfvffXcn++jjixn8qVPPXORZvW599uuvvxayhwxe+eLLnN7Zkp+56HfdNtdv3JzLNrIk2frll1+yb27ezN55973Oiy116XgW86EEXLhwIZuYmMgWDngODzN/9+3fn/MBXsCTprSeOXMmL797z97aZbu22ZRGzz84JYxvKLLDj8VKy+s9e/cVz1avWdvzzOYblutRo3dY+OZ0DG5+xXi7/8CBfF5t37Fz6OdUjH6/N7vyMoz87gBgJ/si9L0AZGadq1avzT77/FL+awuysNb9/fffPQBIQJz0559/zlavXZ/sD9bKybt3k+X/+uuvbPvO3cnyWAlvfPV1sjw03Lt3L1s1oI/zvgNvZf/5z39K2//n33+zM+fOJ/swl8J796efCtr/+PPP7Kuvv8lOnDqd01olP3NJ92y0Tf+RPyvP4TWLFsyjkJ5+zK2wzqb/h4GGpjQr/9KXl2fnzp3Lzp8/ny1f+eoM/irfs5AeO368ABnLVrzSiBeLlywtyq5bv6F22S5tPgtjMkp93LJ1WyEDoXfUkaNHi2chuJ3tPq7bsDGD1tVr1yXldJjonW3+jEJ7dcZw0P0YBhpee2NVPq9YPBwbfz4pz4PmhdfvQLStDDQCsHxYsOh88eXVbMOmzX0R+Ko6d+/dVyjnpybONG4TqyfgDKX+73/+yb68ejU7PXEme+/9DzILjH7//fcMhTTGSCxZAgVYti6882526vREduvW7eI+wOr1Vauj5bEWqjxAEkvwxJmz2Ycff5w9fPSoePbzL790cm2O0X7wyNHs36f9hwb6efnKlXwcL12+kt29Ow0Oec7YxuqZq3tYvrGYQxuLCOOBe2KV/MwV3bPRLjIkuSL94ccfc9m68O67+TjiIaDnyOeKlb2eBl3nVj/6OAw0tOkHrownT57KFYBt23cM1Zxp05+uZZa/8mq2c9fubOXrbzTmBe7Dsr4tW9FrfSujq0ubZfX6s9lXqN46eDCXgePHT8yQH0ArsoXCPZdj83/PLcgXrJBVrKwpWoaF3hR9z/L9umM4SB4NAw30D9Cq9+4bb8Z110Hyweue/ffsfON5IwA7F53vquDe/vbbXInHAosl0vYBcKTnKPpYs+xzrrGsCgTgxvriS7373C5f+aJ4LrdWW8emLdsy3I2pA/C48vXejzB7ab/+5puiDlkWbR1tr7GE0Kbo//qbm9G9t0ePn+ix0Gp/adt2+1mOvdai/933P5gxPv1sa5TqAshrbFmgickNsoq1Wvx7+513e/jXdW71g1/DQEObfqBQ8/E/c+Zsxp63NnV4makPeJn1zXn0bCg5bVzIZ1s2WOCWwr9+w0af8yMYAHMYxnAYaNDcOXXqdC7TfM90z9Nn4507H8Z5oACWiQoAXPla81V5MbeLgouSL/fK6zduRCfoxs1bCwUf66zaVWrBJZZb3VeKFUDuuVgKQ4BrrbdYbVXOpqzY/vLkSb43FUBtn3W5/vzS5aJvjx49zl586eVk3bv27C3yVtGA1fONN9dkO3btzth/uWRp84BUdWVj87btBV3HT55K0l+HT9DJeG/dvqMVzXXaKMsDz3bu3pOlXCzh65tr1mU7du3JXdpDa7Ote+36jQVfvv32uyRf4LPkE1diW0fTuQV9tMuYtA1iFvKgKQ3Q34RPtr+6DmnQ/bopQS9wG0aZ3bBxUw9PY3Ww4o6b7EvLlmdjC+q7ak2XW5EtImjc2HhlW7H22QLxAkHjYuXHxvNn+bsh9ryPSirBnZDHkJYy61usP23vMf+XLluewdewDu7Bgy7B7RYseiEj1kCbvdBdyoZ9sf+79qsLXXXLMp8EDHGttPTXvZ6eK83nWN1xZ/+t6OS7X5e2WL5petvPbfiLPPM+jLXR5t5cygv01pUZ2zf6Dx+eX/RCJR+ajmFXfsTeOW1o4L3EuwX+2L7XvY7RQdmDBw/lMn3grV7jTt16PZ+D3bmUgUYAlkmANZHfex9MW8MAqLp/7sLbGW6r9+/fLyyPWIB+++33qJUoVefE2XM95WVFUjuhxWnbjl0z9pBivcPll18K/PCCkovxne9/mPFyAPjRNq6+5I0N1vsffFiACehQHl6sAg+4v+r+bKUKfIT1GaBZ1e6dO9/n/YDHsT2TWKwJevX70yBUGhNclG/eup2tjyjzbWWDaNfQoTaUavxxk6U/KfmxfcXq/dXXX/e4UlPPrdu3c8CISzX/cbNVOcC52nrr0OHivp6TAr6Ux1r3wz6fO38hwz1cfQj3GsPXjy9+krevPKQE28LdnOe2Xa6RM+VloSJ8bv8DmrGy407P/aZza8v2HXnwM1zw1SZj/uDhw+z0mbPRtqt4gLzAO9WnVPwM5zd0N+VTFQ3hOFielV3L+nr27NlSQLpk6csZQYnYJyvFF+B77NjxrGyvJ+X27O0tR3msVERjTdGGVYj6+QGiduzclZ0+PbXCrvJy8X1+8Qv5c0sb/dm5a/r9lWonvE/k2KLdSHR2XNcPHT5c8ABaaCt/X4yN5/3iXpMATmVtWj4AjqiXIFu0wa+wmI+N51E4cVuFfj2HNkB1Coja+lGa2Q958tSUO7nqOHHyZLbi1ZkRlbuUDfme/N+iX13o6lKWPmgvHrwL97jCW8lWLFpqqznWkD8o+VY+NMaiy+oFdehtOrd7+Lv4hTwaM/IlOkiZX20XFVnYYj41mQc9NDWcA4x51/LwfPOWrdmJEyd6+MA837Jt24zFuiZj2JUfqXdOIxpy3WbqOxDKHnv/w+1AehdYvqboUF5S3o3Iz7FjM70PbT6/dqA6jDLQCMBiXZSiSeRcdYgIgrqPy6JVdHVfKcq8ypGm6jx7/kJRp8ra1Foz5caL8gt4tvVXXWONUb3sCbX5AaDaf/nFl1NRb+1zXVswcdJYWbfvnAYZ1v0VcMiRMFg9Y+BE9XZJAR3qF8C0Tl0APcAOv5eXzwzEghVbdcZSAPPrwV6KtrLBAkmsDd0D4NKnlPyov6xc3rt3P1nXb7/9lt28eSt/jrVe5XbunrZIp2Rq7/4DRb3W7dr2GWt2CNRC4MSxVOpXLL127XpBl+gjarVk88mTJxlt6llV2mRusc/W7qGO0cde7rDNKh7cuj3l2h+rj3t2fqvupnyqoiEcB7VTlqIUSKEAIKbyYmWXW6RVNO01x86E5dkDWlUOZTMsx39FPwWAHXhrak+hbY9raAcknDLANswTW4iKtad7FtDrnlL2t4pfYTv8Z/+w7peBetWntKxN8QFwHgLnU6emvDgAnkePHSvaFg02RaGPHdui+hknXdtyumYcQquQ8rcpq76XpW371YWuLmXpS5kLOQsq8BNehh4EbeZYG/6wTUBjGqYAKDse5fS2m9viLzxQ5NiQDv4DbCwtda7b8IN6RVNbOe5SHg8OFgFjPNA9Fgls/+uOYVd+lL1z6tIA3S8vX1H6HYDvsZMrxNcyOixfdu2e2goD8Lf3/doB6yjIQN8BLMonliMssVhA+WFFkhKPlcu6sqYACPfXbdiUK7JScrF0co+frQPrrvKkXIVTg0HQIpUN98CuWbeheEbQp1QdHMOjOi5++mmRj6BTuo8VDwsY1mDdI8U6CsDEmpeqv839k6dOF+1wbmqbOmyZTz79rKjv/oMHGQsRBPIC3F27Pg1sHz581AN+LYigv3VlA3cZxvnIseNFu4BWjT/PoS8lPzxjlfbmrSlwStsE7cL6iIKORVLAVeMxCABL3QBNImkjX4yzBZvIldr/6ad7ubzDV8aP/3qG7Nvx4JojmfScxYMLb79Ty12/7twC/MvaTh8I4Ib7NQs2HL2kPbjQEK4Ih+Me8gBXbsYSoKo+pOY3fW3Dpyoa7DiEvE39xwIqJSl17itnmcqyiWKwcfOWXCFB4eacVBRR1WFdwrCOqhyWU+QARQb3uI2bNhfPyJO74QbuvdYaQR5W43lPUsehQ70WUEAlfcGllzwcpSCaAL+p/sfus3pPWdqwzwkMIvBKf+gD81Z8UHtKmwRwSrVJ+5YP1I2VgaN94AM/8lggQN9XrHw1wyoNfZZXb0Yiw4f1Y619c/WafEwA7AcPTbnlqW3Lky5lbT2p67b96kJXl7L0o8yF/OjTCMQsRNg+t51jbfjDohWWXsnpvv0HssUvLs1/IYhI0tthblv+Mp82b92aMVcWvrAkY44BZkQb89nyqeq6DT+o09JE203mQNfyml+8R9eu35AvMrE1A48HeZzw/rOW8bpj2C9+xN45dWnAPV3fCBbcWNhb+vKyjPu7du8pxho5DMc3HJcYHbaMLLCAa3vfrx3AjoIM9B3Aoqiyhy/s/LXr1wtFFcuknpcBEPLU2SOH5RQlOLfAHj5S1K02UilWMwFrIriG+bCSSrk+duLkjOc2v47pARTpPgq/yuMiqutYSnkssirbNQXsqZ020Ztt+0RXVl0Apdi5uV9enbYipqzzTWUDGqr2wJbJj7VC4woe+7jbIEeDALB4I+zZtz86rq++saqQP1zUBcrFexT9x4+nXNixgi5asrSnHqzd1jWZMUKecd8noBjgP1SwVDdp1dzCjfrHycn8F3PBx6tAckFbtm4LHst4UEUDdbblU10aLN1V10eOTB3pgfUulnfBwsUF0AS82oU25d9sjgxRZFWArAV7MYAKEJaiGkY+Zn+pnqH8IDtqjxTlSc9JZ8zhsfFC+UMZtWXLrolkKbq3bp8+SxrlWvdPT0xEAbdVxqCp7l6+VJvQafmAEiv+2j7AW5Rgfmsj1mxArngFz21ZWz95sHiElkFclC2o0L7nLmUtDanrtv3qQleXsurHxET8DGAAiGRo247pSN9t51hb/kAn3w7JBAtDot2mSXo7zG3LX+SZbRG2Ta7tolqTRaC2/LA0NZ0D0NulPMeVaRxinijoKprb4RaAqjHsBz9S7xyNWRUNvDuogz4CRme4hY+NZ4ePHCl4YL/vlq9VdIge9r7SVhvrverw1MHuXMlA3wHsne/j7qqARSm7dn9bGQCBKXUUXPKhFMb2baYYS3RgBXgCPGIpDvNyXI5oxq02fG7/c5YseQEPus9+UZUXwL1x46s8GjIKJi6o1i0SemJuhaqvSWotpmVn1NapE8uh+pHaD8qLVhY59jeqXgsimsoGdXQBsNZVNrU4ACjUPuVBANjbJQGWsF6LrymQay3QAErxVSkglkUTFgdUl02xeANmX3lt5n68unNLbYVpj+fBJ9OeB+Sz417Ggzo0tOVTXRrCfqX+ozhLecLtMZaPoE7KQ9CmWB7AKvOcnyyCeAWoXMqya4892Le/d1GE1XmVD8EtNFjaYyv35NE+ziYBPSzYs0cxWLAdWziiPSz8ojl2fEqMd9xLtckzy4cyF+9U3dy31rbwvE9b/2EWSxOBrwDz6hv9DGlrWraM3rrPUv2ayz7ZhZUwgBPzRzzEgq5+tp1jKp9KU/whf53AOyl6u8xtOzapSLFsgxKfUu+OVJ/L7qf4YWlqI8ddyjMf1Vf7vinrh57VGUPljaV1+FH1zqmigcUR9Q8rf4wOgLvy6PtBPsvXKjpUL+9d6mryzldZTx24zrUM9B3AAtpineIlLsXa7oPtF4CNtZm6xwv/119/y+nBYpUCZQBt0ZzKozbkamlBGu7EKk/62eefR3mDi7XyATxVZ5cUK6jqTO3hrFu/7UcYZMPW8d2dO3mbnD+q+xZENJUN6ugCYK9em7L6M8ah9VL0kWJ9h1eDALA22Jltk2u7wIFLMzIW/pgrGsfzb79T8DWsi3HBbf+77+7MCAZF+UePH/e4LlO+Dni07axaszaPPI0rPBZZSxsybPPacS/jQR0a2vKpLg2W7rJrqyhiCYjlPfk0uEqu2AUuvrH8uqegLKGrpJ7n6dh4objklj9Tf6/iMzMquFVuYlbJHqvmtmlLak/7pj3dt8oUFgzRKTBc1h8WvaSI4cqmOqvSaJtPabN8KOiJ0G3bQFHEcoVbKkoxYye6rIJIGVt/mQJt93XKCt+lrKW37nXdfnWhq0tZ+lEVwEnjAHhQv9vOMZVXWpc/5AcQiBYsXarDphZcWXq7zG3LX7YS2PZ0zVYD0Wa3JOh53bQuPyxNTecAtHQpj4VVfcU6z3uDrRepMbF9rzOGNn8bflS9c6po0Nni9JEF4tjPujlbmbB8raJD/ZS1ty7gVTlPHbwOgwz0HcBitYx1jONBpIjPJYDlhSC3TOhhT2SMXu5ZF9TzF95O5mOFXX0joJTqsy6WPNf9WMreYPLcvftTab5Y2dg9AtSIJuvSG8tbdU/RibGwluVlr63a1J5ICyKaygZtdQGwRH6GHo4oKqNb+6AHAWBTfYYewKb4VScFkJf1wz6DbyyGyPJP/ZOTkz3l64BHgDHtEuyqjMYyAFvGgzo0tOVTHdmzPKu6VuAgPvp2f5XKIfNSrmJ7J5UvTG05VujD5/qPK6rqZy+t7pMqeEcqGIdVbma4pf3fc7nLsepGSbR1l12LJ7gtK1/d/lgLbL8DOKX4IBpZjCAqaFlgFRRkgL3KkIrP9Dd8ZvPZ4FRSrruUtXWXXbfpVxe6upSlHxbohy7ksYBIVraazDHxrA1/KKutAydKthJV0dtmbou/ZfK8d9/+/L1AYDb1s27ahh+iqc0cgK5O5cfGe/aY651FynxmD3rKK6LOGHbhR9kYaTzKaLDu0bZfZdd2wUJ8rUMH9HA0m+omPoFo9NTB6ajIwDMFYHFl4yxMKeJVwI6Vc+VNWU8ZaFZAlc9ayThiRPdJy4RCUVk50qfMWlhWh32GlUxtc5atfdb0WgCWYFllZYcNwOKuDQ/gqd0rEvaB45PIN9sAVu3SNq7nqZ+es486pL3qP4HIcCOmDvbRyp2RclXgkTNfAf+U1e+PP/7I2E9MQCwLLAcJYNvyqd8AVsFDUvuFcIGUQlB3BZxxsOCSVf/UmGIhVP3WpZL8Ct6RcgWrUm4IhqK6y2gIaYsFU0IZqlOXdadrsncv1qboquIDIEkKv2hkQQJXOvaWaU8Yz2L7nFV/1T7ho0enAltZwNOlrPqXSrv0qwtdXcrSl6YBnNrOsS78YbFKlirmUWoMYgGcus5t8Tc1r6GFQD/Ia2prQIzeLvwQTW3mALR0Lc94AFRpX+OiuUxKULawz1Vj2A9+lI0R9FTRYGWFMQXsxn70kW8Q3yPbT/G1ig6VYQFIfGvy/lV5Tx3ozrUMPDMAFquDXEVRxlPurOGAyNW4bB8f7p9S8O15oOxx030ixoZ12//Ur7ycbWqftbmmDh1nxDErMatLWC/RZbGW8bNWGLufttSF+KlFMeVCnLLEpazz0NfFAktUXvGUvoX95f/484sKgJcCsIxvrKzdG5w6RifVZ+qT6zguzhZYxtoK73HMEWNEgKPwWfhf7cALjgfS8yoAS+Rk8Q/PAqwfKkvKooCeDxLAiv6mfOo3gAWM8MHHhcvyQddYRaUQsLdP96tSu18yDDxiywqEEiDIWv9s8A7ORrRldF2l3CigUpNolD1uxyaAk3WTI5iTaAhT66qLAhk+j/1PtUneOnywe3NxP8S1GsVSbXGNZYlxDPcc2vpTMkA9bIuRHLBfM6StaVnRVpa27ddc96lpAKe2c6wtf+B5VeAd8iA3sYBTXea2HZvUvCboj2SNPpbJiH3Wlh+WpjZy3LW87QPXvA/4Lh04MBWMSLwIF6yrxrAf/EiNkWiuosF6bdR9H6puy9cqOlSGo4bgF9+TlNVaeT11sDqMMjBSALbNuY0wnZfBrVu3C2W7ybEyP/wwtT8S5ZnAT7FBtOeMWuDHR02BjQgUlHopcV+BhLBwxdpoc8+CYtxky+rgPFoFogLI2XNgbSCh1F5gALL6mgrilAJzgwKwBD0SwGKMYpZtuQ+TzwJYgnqp7NsJt3i7z7gNgLULHxZYlo2TninqM3K5OhJJVflItReY/mzeOu16agFsbG49ePgw5wEyGVsAYbFGPOoHgI3RAP1t+dRvAKvVfhsR1fLZKiDa92ifc714ydL86AcsnlKytu+cPsImBXwBtqn2q/a31lFuWNFHmQlX9UP67f9UMCX4I0WS/toyumbvlvIMIoBTap+vAFNuXY0EYLL7a7kWvaSWz2XWJ7mSAmg4V7JrWUtD7Bolvm2/5rJPbQI4tZljXfgDv62nAMctxcYgFcCpy9y2YxOTZ+hgS5TmER4aMdrCe134YWlqOgego2v5sC/2/+4900fMhEaAsjHsFz9SYyQay2ggj134452tcnVSy9cqOvL6xsYzXI2Rnb370l4Fddr2PA5u50oGhh7AWhCS2gOIssheVsCVXU0XU+0RPle+mN6jqudlqY1ki8tkmJdgNlLi2XMZPreBbuz+WJvv80uXizo4U9U+63IN7wA4os9Gf7b1YoW0NFy6fLmHBiLdqo78GJ3AEkddAlTks67ZdUDEoAAs/bJWd1xRAeNE5AV82QjQ0G0BLIsK2j8aO2IJmbP7QtsAWKJmi6/h+bkaH45yYmGBn7UEW/B546uvc0uyytgUoCQXYizyFlhVzS1ogj4WV8IjfgBf33437TXQFsBW0UBf2vKpjuxZXpVd2yi+bBmI5bVuuDFXQ84ZVQAazitEPqnHRimNBdOgnCyoKBw2QExe3rguxyyeVcoNCpysR+HeWlyhOWomZhm2YM+6TFf1B/qlPNGfWACnVLupNuvwAd5I2YfGcAyxnOocSfKVBXDieSzKtI2QayNFW/fApmVFZ4onXfrVha4uZekTirbGI/TsSQZooGEAACAASURBVAVEajPHuvAHOu0+3ZSrZYreqrlQNrctf2PzGtrKAjgNm7xAr+1Tk3mApVnutOE7inr5Aaipk3eLjq7Ss7Ix7CIftj+pMapDA3nsuyN1GgXfBxb8jh073hO4qgkdtMWZuZp7nGEtGj11MDpKMjD0AJZzz6Tko4gTGGnbjp09Z3revHWryBNacawbJPWcnjiTcS5q9Hd6olAqNYgo6rjEigbcaVndAygDmBV9mOfWfVjlAUKPHk0BAfIAwjnWBosn5+Fa4Ef/1m+cqRxjMcYNmJ+1oKmNshTALto5agUQzZFDAJl1GzZlnG/L3kubJ3YckXUjJv/Zc+dzxRuAde1ptF/q4DxTa72tAyIGBWDhC4rR48dTRxypjzYFnH371H3bAljK/nTvXsEX+IiygIWdPtNPW08bAEsb7K1WPffu3csXYlDSGOePLl4sQDS0hWd72jNgHz58mI8lNKKIb92+I+McYsqp/nDxpmpu2UUNjurh2KeVr6/K+//jj5NFvdTfFsBW0SDZbsOnOrKn+qtSgmXog4+yEMsPILUACPdBQBBHWzCmOrKAeuCj6qBuATqAJC5glOPwevb8CbzyLBa4Rq7F1KE6bdqr3Mx0bUau1DfrQcI81n0UJlsn17EATtzHWi9rsfrDAgg/5NPyiPrDAE5l7abapN0qPgDU1R/2mLGPGN5jDUZ5FM3kgW7y2z6rftXBeGJVwf2fSKi7du8u6j9+/Hhet8p3KUsdZTzp0q8udHUpS58sqAi9k2TFzoODGUt5mznWhT/Qaa2o7J9mQUjeExrfFL1d5rb4m5rXtK393GEAp2GUF+hVnxrPIWMxpGyxqDY2ni/o2XpjZzuXjWEX+VC7ZWMkGSmjgTwsZuj8aN4/uDXzHcBTgfeL3XLB2b+q1/K1Dh3kZ3ENPjK/tJBq6/NrB7KjIANDD2Bh4uTkVDRZKeKkp05PK2vap8p9wJQYjzJmy9S5Di1N1AUYsEAAq6a1bFJv2Z7aHbv2FO61oiEsD3hlv6dot6mi6WJBi7nB2rzhNS8n60Kq9mPpL7/8kkdeDuvQ/+tPgyLFynKPccBaq/ykdUDEIAEsNBDIiOONQrqJygtQvHT5Sv4sBLCMm6ywYVn+2yBGbQEsCyFfff3NDNpseyw8EJTL8pVrwAABlWze1PWXV6/OULqoo2xu4UaN+3CqTkCtnrUFsFU0qM9t+FRH9lR/ZTo2Xlgp4Xsqv13ZlpJmU0ASYDYsb61RNr+uKWdBry0vgJsK3lGlZFmrlg3ghGVU7XMsjm2Ta9xweX7o0OEZz6w1QXUoRTnTnlvuhVatsnbL2qziAzRzrI/oCFPKy0JeFcAJgBqW13/csQEull+iDStR07LUU8aTLv3qQleXstAsi9nxEzNjDMQCIomfbeZYl3G3C0Aa49BroIzetnNb/E3Na/iRCuA0jPICvepTm3nAwp74r5R3ia5JsVDGvPCqxrCtfKg/ZWMkua2igXwEp7L9iV2z8KM6lTahg8UX8a3uflm146kD22GSgUYAFsujFNb3P/iwmETWipI6bobw5CprraSpOi2TKIvlUK6Q1HPSAFj2KKLkswcT66bKWgVWbVelWK9U3qbUa/e6qh5oSu2RtOXZq3Lr9vQ+XJUnvf/gQW4VtfnttUAE0YDt/SbXWJyx0tl2dc0RPtdv3JjhJhrWj9UYS6zoUXnAOH2LWY+7yAbts+9Y7VgXWtFWR36Ul4BHuN5iSUQ2dB9wRxtYY3VPKcARizMRfEUHQJezTffs21/cs9b3On1W/aR8ULAwWvmmLfjKfuLU3mvKYknHRV57qEWjUhYl7LFVtl2uq+bW6rXrsx8nJ/NIzqqTuQZgxfKkhRjOCrZ1N+FBFQ2qtymfmtCgNspSKYtYVsvy4eYaWhlZGd9/4K0Z7r+2HoBkWA5Fg2ApWFRsXl1b60FKGcF6iiKUUrK09yoM4MQZjwDn0xMTGbxUm6S0KyWIfYn2GdcokdSrPFLECLZCMBMsCLoXWt9S7Za1WYcP0PXcgoU5H6y1lWv27eKmqL2kZQGc4DNWEQEw9YN66DPu5pYf4R7kJmVVT4onet6mX13o6lJWNEvWQzDIc41Par950znWhj+iE/lExkUT4w0Y0fM69Dad23XkGboke2EAp2GTF3jUD5lZs3ZdpjOm1XesiCyihW7odnyqxrCNfNQZoyY0KC+yxfdC/SPVdyBc7KNMUzoUCC23vi5sttdWNHrqQHYYZKARgJ1rggFQuO+E0VChC2U6dOsZBL1YYwHP7LkFtMQstmXtQjvWOvbWsn+2DJxQDy9lAYd333u/56NZ1k7q2cbNWzOi59I++0Fj7sKpsrqPVRerKS7Q1JcC/co/Vyl07dqzN/+V9VMLEwC1FK0AZcYeRWRQLjfUC2CErxxhg7yn6IndX7VmbT62LBABrlOgJ1a2bG6RH7dQZBWr7KDmWRUNorsrn1RP05RjVlAmyqJvFnWOjefn7OEG3Ihfphwyh3JS1Pl0r9ds/s/bNy6capv3mBQs63as50rZi8YiC/tem/Ql1m7dNtV2WQrAhib2CcYsNmHZ1D5ilHK+AWX1dClr6YjxxD7nukm/utDVpWxIc+v/Zq7UnWNN+DODrrHxfAFkvK3Sb+idjbk9TPICL/spMwBOvu8sBs0Yp7L3ZMUYdpKPsnbtswoa8v4gK0tezBf78kB4kXdwo34/bZ+zX7UQk1rwbFOvl3FAOxcyMFIAdi4YNNdt7ty9pwCwgIe5pmeU2gf8ywUY6zyWvpB+FgW0QGCDT4X5/L+/oBUBFXetZ10eZH3EMgCImw1+zEWb6pd1/6sK1qIySruUVR2DSLvQ1aXsIPridQ7+/dx1zLuW9zHuPsZyLcdtP/R8cf5256/zcHZ56ADWrowN4fXEmbM5wGJ/qU+O5pMD13MBVNxsiUSM++vlK1eyBw+mXapxo8a66jxuzuNnhWes+MvqGIvKO9/5gHUC11rtE4UXMffPfvJhLtqM0V+1jzhWRve6lFUdg0i70NWl7CD64nUO/r3ddcy7lvcx7jbGbAPhnY3rcBjJ3nnbjbfOv7nhnwPYIQStdjIAtgBg/Txex9Y/36/Zb2cjPQvM2pSIwrjuzndeeP+6v2SPHD2aKwFlgZzmK59xhxaAJ+VYi0Gv4s9Fm7HxaxIkJSzfpWxYVz//d6GrS9l+9sHr6v5Oq8vDrmPetXxdOj3fTJnADVkRjm38D+fVTF45T0aHJw5ghxzAEoBHR5j4xGo/sQje9PHFT3JecjwOEYQJSEVgqGHdw+vj3X68B8U79mESWIZzHwfVxrDWi0s+VhSCgKQiIveb9rloM9YH+sy4E1E29rzsXpeyZfV2fdaFri5lu9Lt5efmvdh1zLuW93FvP+6A1mf1u+Vy015uhp13DmCHHMAOuwA5ffP35eBj62PrMuAy4DLgMuAy4DLgMuAyMGwy4ADWAWxji8KwCbHT4y9WlwGXAZcBlwGXAZcBlwGXAZeBZ0MGHMA6gHUA6zLgMuAy4DLgMuAy4DLgMuAy4DLgMjASMuAA1gV1JATVV9SejRU1H2cfZ5cBlwGXAZcBlwGXAZcBl4EyGXAA6wDWAazLgMuAy4DLgMuAy4DLgMuAy4DLgMvASMiAA1gX1JEQ1LJVGH/mq3QuAy4DLgMuAy4DLgMuAy4DLgPPhgw4gHUA6wDWZcBlwGXAZcBlwGXAZcBlwGXAZcBlYCRkwAGsC+pICKqvqD0bK2o+zj7OLgMuAy4DLgMuAy4DLgMuA2Uy4ADWAawDWJcBlwGXAZcBlwGXAZcBlwGXAZcBl4GRkAEHsC6oIyGoZasw/sxX6VwGXAZcBlwGXAZcBlwGXAZcBp4NGXAA6wDWAazLgMuAy4DLgMuAy4DLgMuAy4DLgMvASMiAA1gX1JEQVF9RezZW1HycfZxdBlwGXAZcBlwGXAZcBlwGymTAAawDWAewLgMuAy4DLgMuAy4DLgMuAy4DLgMuAyMhAw5gXVBHQlDLVmH8ma/SuQy4DLgMuAy4DLgMuAy4DLgMPBsy4ADWAawDWJcBlwGXAZcBlwGXAZcBlwGXAZcBl4GRkIF5AWAXv/jSSDDbV4WejVWh+T7O585fyN5+591s5+49PfNubMHC7N333s+uXruWbdi0pefZMPJk1Oitw8PXV72ZrVm3Pnvx5WVDz/86/WmaZ8HCxdmmLVuzrdu2Z889v6gxD8S/la+93qhs13ab9tPzD+5bMr5wcT6HmEeLlrxYyAH3N23eksvW+MLmsjXbYzaM9K5avSbnreXrbPPF2xvc3HHeOm9nUwZGEsC+tGxFrijfu38/+/PPP7P//e9/2R9//JF9992d7KOPL2abt24vPjqzycz51NbK197IrnzxZXbjxlfZl1evJvkJWCFP1e/EqdPJOkK+vfjSy9nVa9eLOhnTMM8g/3/40cd52x9f/GRGu9xL9RVeAO6QP8BRExopd//+/eyvv/7KXnvjzUZlm7TTj7z//PNPPucuXb7cQ+eho8fy+8zHycm7Pc/60W6/6xg1eqv6j3J44cKFbGJiIlu4eMnQ87+qP22e79u/P+cBfIAfTes4c+ZMXn73nr2NynZttymdnn9wiiLvX+SH3/JXVhZysGfvvuL+6jVri/vDOhbDSO/+AwdyHm7fsXPo+Tes4+p0DW7uO29Hi7cjB2D3HXgr+89//lMoyijL4e+ff//Nzpw7P3IvyFWr12affX4p/80lCD9w8FD2+++/F3wFsMQmNpbvkPep/4DhWB2xe1e++KKn3vsPHtQuG6uv6b179+7n7T94+HBGuw8fPuqhLdXfX3/9NVu/cfOM8jFaFixanP3xdCGG+t7/4MNa5WJ1zca9egB2cs77UDWfegHs3NPbZeyWvrw8O3fuXHb+/Pls+cpX55z3XfrSpeyx48cLkLFsxSuN+LB4ydKi7Lr1GxqV7dJul/562f4rXFu2bivkwC5EHjl6tLhvge1cjcG6DRszaF29dl1UVoeNXvj02hurch6yUDQ2/nyU7rnip7fb/7nkPHWeDlIGRgrAHjxyNPv3338LAAHIunzlSvbOu+9lly5fye7e/al4BhD44su05XCQTG1b9+69+wr6T02cmfWX+8IXXsywqoWgLAVgV69dX+T96ad72fc//JD8nbvwdq3+7Nm3P/vvf/9b1Astwwhg//rr7+zO99/3/B48eJj9/fffBe2A0m01VpotkKK/jx49qsWrtnLWtVwKwKLsMReZdxs21QPvXWkpK181n4aN3rK+lD3DnfHkyVO5Yrht+46hlp2yfvTj2fJXXs127tqdrXz9jcZ8wH1YlrdlK6Ytb3Xo6tJunfo9z+wpgm8dPJjLwfHjJ3pkCNCKbAHC5no8/u+5BfmCFfKKpTVGzzDRK/oArZpjb7y5Okq38no6ezLvvHZej6IMjAyAZTXdWgW//uZmFtv7evT4iR4L7f63Do7MS7JK4R6kgK3bsCkDgAm8Pnnyaw4c+Z8CsDt27Snyv76q+8do0ZKl2c8//5zXyVjjUjusABbAHhuPl5e/krs/i48//PhjNJ8te+v27YKPKrd1iIFICsDaPg3D9VzOp9nsP0o1SuGZM2cz9r3NZtvzqa2U5W0+9dH7Uq2otnUjn03e4nEhILh+w8aRmvOnTp3Oaee9NZs887aqZd955DwaJRnoBGCxYLzx5ppsx67dubvkkqXNgynxIt6+c3fGnssyxn1+adoy+OjR44x9kqn8u/bsLQDB7W+/Teaz5ekHQWlibmf088016zIAG1bH8QbBQSi7dv3GbPO27RkWTttmeN1G4e5Cm23/o4sXC559c/NmBhC78dXX+b0UgJXlEItpE57Ydu31p599XtBA3T/88GP+fxgtsCkAS39YHb/705Q3ALwrG3csN7i8A1yxfsuCe/nKF6WyYvmma/aGb9+5K1u/cVP2fIs9kHXLdwWw9r1RNe/VN6WDnk9qx6aWXtzC27znqK/uu862XXVNMBTchlFmN2zcVCkzyCausi8tW56NLajvwjddbkW2iPfY2HhlWyHtLDi+QMC9WNmx8fxZ/l6PPe9jVEiCOzEWIS0py1vYj67/kZ+ly5bn74lYXfAaPsQWaGP5w3sLFr2QMZfb7oPuWj6kh/+j0ifmk4AhLrqxvpTdm54nzeZXUx6xB1d08g0po6ns2TS97ec19SMzyDTvyrL2eHbw4KGc9gNvvVWZt6ouf+6Ay2Xg2ZWBVgCWPXsXP/k0+/2PPwrAgQKOe+/NW7dzBToUKhRVgA4/3ElxB8bCZt1Ff/vt9ywV7Ic9hbSBgl9nb+GdO9/n+amfvXCiJ6SD4Dk///JL0Q+7d5Z+ErTH7k+EBgJHAbZ4rnrDdMv2HXkgm7+fBrwRf9hXefrM2Z5yE2fP9fCBvPzErxhP2tK2bceubFUkAAUAFt5Ci/pSBWDhHXRiLVWZtil7fiULAGjqGVUAC+0ffPhRIVO4Raf4cv7td4p8RO796utv8v8EJUvJVyjDU7I2WdTDmODizKJPDMh2LZ8CsCjmktn3PvhgRp9Z5GA+he+NX3/9Lfv6m29KF7EGMZ+q6IX/Td9zjHPI36bvupSsxO7L+nr27NlSQLpk6csZgYnYJyvFF+B77NjxrGy/J+X27O0tR3msVERkjdGERYi6+QGiduzclZ0+PWV1UVm5+D6/+IX8uaWLvuzctStad6w93SNqbNFuZLFwxcrXskOHDxf9hxbaYsEHUN3W8pZq1/IBYAT/CbAl/vdYy8fG8+isuK3SB+WBPoB1DIza+p9f9EK+F/LkqSlXcpU/cfJktuLVeETlruXF92Q6gn3SHk34Z/e5ss9UshWLoNt2fiF3yE/dcQf8WfnQOIs2ACnjUYfepvOaentkZvELeURmZEx0kDLHyhZtmQfkO3bsWOM5npS1Pi5weRvPLiDysR+tsW8FYK/fuNGjLAtwKQVsvh7sbyCyn56jpFtgp/tKAUZWkFBe9Qxgap+lrle+viq3qGJVxZqofJYOrLMCTarfAliiyup+LL127XpRr+onnThztmevbqzshx9/XJQ9+xQIxvJx79TpiSKv2mlDG1Y96qPPKNWqi5TgWLkiZz4EVQBWVltZSAFLGzdvzXDbXvHqaz3127bCa1Zt7927l9PG4gAAgDyjDGA5TkbjSVCssM/6r34rYNTBw0eKclihlc+mVoaJEC2rrdqzaUxGu5ZPAdgXX1pW0A6AtzRzDS2WtvAaIBtznR7UfKqit817jn5a/jZ914U8K/tvra+AxFRevEoEzqyiaa85eiYszz7QqnIo32E5RT8FfB14a2o/oW2LaxRuAMIpA2zDPOH7KGwn/G/BfPiM/a0xxV9tsndY12WAPqyX/6l2xQfAeQicT506VfAN8Hn02LGifdFhUwBOeHSL6meMdG3L6JpxoI2QdpVpWz6sz/4f1T6l3MhZUIGf8DL0IGg7v9rwiG0CGtcwPXFies9uOb3t5jXjK5mBD4ooHNLBf4KaWXmw17t2T215YDHH3vfr0QIPPl4+XnMtA40B7CefflYooQAXwCYBWwBE165PA1uitaaAI4orQAVLLFYnflg0BSaxeFoX4ZOnThdtfnbpUqeXnlUuoQNlnMi/gAVceHnOoLz3/gdFm7iLAiLpJ7TwX8p3GDEWty9ZmKiboDYo5Vg+OQ7G7uPFIkBbKNLsQaUNWy/3+FledKENC7fqRzmvEr4qAEuwHurj+KKz585ntn7uP3z4MPvs88+jVkDb9oV33i3oAqzo2SgDWBZHxOu1iYimeBIoj+QIq5+OhsKbQbywaSjD1AE4BPxu3rotP2LqyZMnRd1YeftZvg2AxfKqvj589Cg7/3TuHz95qrA68/zx48c9tA5yPpUB2LbvOfgcjk+Td50dp6prLKBSHlPnvnKeqaybKIwbN2/JXl6+It8qwVmpKKKqAzdAtYmFVOWwnvLuoxxughs3bS6ekSd3xTULXyjSqpPnWG14h1H+0KFeCyigkn7g0ksejtdQWcCv6KmTYtGhLG3Y/ASLEXilL9CPiy3AAx6oPaVNAzil2rV8oG4sTxztAx/4iUYLBOj/ipWvZlimodHy683AcyasH0vtm6vX5OMBYD94aMpVU22rPaVdy6ueWDqqfUq5kR99GoGYhQjb37bzizra8IhFK6y9ktV9+w9ki19cmv+st02S3g7zGpqtzDCnNm/dmjFfFr6wJGOe2QUv5rTlla5lgQWM656nDoZcBlwGmspAIwBLoB4poVhZY1a2L69OWy2tFcYqdSjA7CcNib12fdpCw14+PbfWrK7ReS0dWIFj7p2vvrGqANMo2ygSooUUxQdFG17gNk3wIT1nP/CPk5P5D+Vc95W+a4DxkWO9q5R19sB2oY1IzdCcW2APH5lBm2hUWgVgb92aCj7E2aWSi1hKkKLUHlnGQ+XDgEejCGD/v71z/7GjtuL4v5YuorRCpS0tVRFFJZB3gKjZkNBsCC+1lSpKkrYhSCThkYSAoDxUQv+8rT6z+733u772zHi8N7s3e35Yee6Mj3185njWX5+HceFyQE5iLMkzLR0kuZu75hCxse7GJnrXYeTNsUN6phJLuCyzzDd3R26lrwWw/t1gAwcdFp8qpWuMB28A3V/mfCoBWOe39jsH3y7f2m+dxj2mXF/fOtYD612u/mOPPzEDmoDXdCMMGjY8tBhWdlWArAO+FKBCBxAWnWc+Jr5U9wHHfCudNxbgek658D/k0NrM3Rgw4bR912Q3Fc8vHZ2fA87CWvcvbmwsgG3aPHHy1A6exsTxiZdSvy4HQLxkKzqVyBagyd9zGWs2QFfyQuai8/Z5jmUstQziouyAwmOeW+nFR65c5TFtbCyeA8w3XTp05Ng8y/fU+YXMpsoIWoChdILNofQdFPltmNf04TqDTstTyvv3TbXSRhCxr/DfZ6X1NuM6gE3oQOhATgeqAKyS9rDIPJPscqtxYh9kZXQLki/qOH5E9b3E9VQAyOM+faFPwienqb12Pm7d/jjbFtZk8ZEDuPQJ+FQdFtlj+WDBJjri65xuDIBt5Y0Fq4Ml7z+9FqhgEZ4+47cSFTEe3jnW02f/8PwmFkdcsb+x2OIPbnyYbYN4V+gBa1ibvZ/9DGDxEsACrT9ceT/66OYsizJjYqOgNE9YZCiu++69ezvGjc5JR7BUuky4dh3G0urg1Ou6FwHvXc9a6WsBrM+VdNNGPAHUmQ9/f++97KaS6qVly3wqAdiW7xz8uXxrv3Xp+Eq/WTxrEYvbY64eSZ1Uh6RNuTqAVdyH+ZNVENdd0ZUsu34cxsuvzGO8SSgjWge26tv5xnqk+14qjrMmyYsDPT+ew4F2ySKElV88p0enOF+561K/Loc+9+5cm37PrW1+3qe3f5bNyELiK8C8xuZJoVrpncfa6/06Jt9c8QROzB3JEAu6xjt1fom+ryzJCJqhBE4lflvmNf26zpQyCJMMU7IqfTuYY9Spmd99sopnAW5CBw6mDlQBWBaXWljnLENSoo8/+aSrx1EsuueLuhS4qQ4fWLXvcbCeECeN3RTt2NL5yCWaoR34Ex8cywMISf+UwIh6qYum80LCJAAucZBYZJ0Ot2mvOwbA7iZv3nfuegjAKvnV11//J2sp5J+ZXFmxVKcWIN+wwMU05WE/A1jpR6n85ttvF+KMfXxYGUWbgtQtcPt99zyX7dh1WAmvvG1dezZuTxzWSl8LYH0DSm7z4rG23M35VAKwLd85xuPyrf3WjZWHLxR/+XQ+C+nr28lVOoBjLr5DfSgpS+ouuYPu0NpsodpZ/7bbxyKkBawDJtH6Ijhnldxh0Twyt6SKvlQSi6t+ZxbjQ2ubAsN9Y2HTVbS4N5b6yN3P9rud7EZtzvgZ8Q5wB8VyhWsqQJx3p3a0wQAfLmcH7CmPHtPp399W+rSfvt+rMqa+BE56BwBLjXXq/BK9l2NlBA0bIuIHq6i3wzUbHXru/LbMa9p1nSGUIO2X34QaqG8PSfC6WG+p07Kx4+3F9cEEL/He471XAVhl9sXa1qc8xKlqca4Fqy/qcLHM0XNUjegcwGLN0313S861MXRvDB/EdKq/MeW/k2ROgHvuff/9FggptTEFwLbyNiQffz4EYHFTxSKOTJ3Or3H51vj9TF4WjTrzFUutu2GLfj8DWNxz7969t+NPMdw8K1l7NLYbH344kwvJtUiI5X+SGWVqmXYdJq5abaYlru9qx4/laaWvBbCffPpZxwcx0imPY34vaz6VAGzLd47xuHxrv3Vj5EEdJQ5iMciGR0rHd1cLyTR2Mq3rv50OS48/82vcUdU+caR6piQvpQQtvgjOZSrF5Vjt1pwtLXl0SXa2geLYsbgFdrcTOJXkIHlRshlBdtm+BD24sALuRSc5M16/r+cqPTmVg51WerVfKldxTA723Y08lxDJdatmfrm8psgIeoUOXLjw+kwfvN0hfqfMa9qXzvTp9OmXX+nmL8nZnCddcwSX5jex6LofZYCR0IHQgVodmARghxaiuw1gsV5qIc5xG7WD9PpjFpdacNMnR/2U/vTcrYec+Yr1TfxSciQKZ9ficusAdAqAbeHN5TDmegjAjmkDi5lk4dYot6q/9fY7nesx7sf+9/l2ZmLijecJrZ5qev9jeL5//4uOZ2UGdhqSkzGenGX0xo05KH3r3fwmDW1hCVF8qmTTV2LBdB5chz2btdfhegyAnUJfC2Cl8yQ3S3kc+r3M+TQEYKd85xiPv59lAVgl6CnFkeECqYVijQXQASZWodL7wUKo9t2tUkleSu6BQ4tgwg/Ubl//KV+5REoskMe05S6Zpbi9tD/9zvXLsyE5UAeQpAW/+GRDAhfLs+vrnYul7qdxzmp/KE743LmtxFYp2Gml1/jTcpXHVJPAaer8an3vbFbJgslcSuXP71wCp9Z5TbvSmdLcpg7ZtdHZUngAYF86XTvXcmONewF6QgcOrg5UAVh3Bex11HDHhwAADaNJREFUId62YJZciGsXdZzXqGN3cEnN7dynSkzWX/rhz3fyxywuAZYACixqOTe4tC//TUZjgRGsXuzU+nMyBer5FADbwpvzMea6D8CSlAlwwZ+7pqXturyvXL06kwXx0ZJDTemW+bSv3fpN9mR4yiVg6gOwxBYL3JF5Nk1gI/7cKk0/xMDm/iQXYmXdyuYy7XMhPn7y9EzGnt25lV5j9PfJ2EqA0N3eOd5KchhTLnM+lfht+c4xJpdv7bdujEyoAyBhIUgm0xyNZ9clti9XJ3fPYyZzZ4+KRkCUJEGyAHqSl8OZY3mgHVoEK6FSTYbSHW7HlsDJXS1J5iTe09LddN3yltZLf5f6HSMH2vL4XFyXca/2ec61skR7zKG3X3r/tI9+CywQryn+W+nVTq5c5THVJHCaOr+Q2VQZQTs1gVPLvKZf15nS3CZpmPSNMeb0g7NnqcN3oxS3naOLewcXpMS7j3df0oEqAOvJWErJaQCXQ0mcpizqSLikBT2Jc0oD4j5JbeSeSobb0nE+JT6Ie1VfgIC+vtJnWO2gxeqaA9oe+9gHYP08Wu+jhTdvZ8x1H4B1d29iBkvtEfcrWXKkkOrtFYBFNzibE0s+5++KH5W//u0zswzUN2/dXnjeB2Bp4/0rV2fj5VrteinXaDZlWGT6M7/GPViyO20Jbxwg9SVx8ozXh1+au3m20tcCWE889lrB7Y1NEPSDjOOHzSV1mfOpBGBbvnO8P5dv6Rvj82fKpoysMJ4V1XXHXUdLG0xP/PzJLuEaVk8dwXH0+PwYmxLwBdjm+h+Kbx2zCMaizAIXC7OPp++6lEgJ2WhBzVhzbRDLpzrLSOCUi/OFD8CvAFNnXc0kYfL4Wj9v1+XcZ4GVKynux34ObCt9To6rPqbaBE5T51fLe0fG7i3AcUvpuyglcGqZ1/ThOlPSaRLqaS7hoZHyBmDF/Zg6p1/OW48XaEbEjQdNAJzQgYOpA1UA9pnfJ8foJNZFlEhHgLDw9njV1kUdiZAUY0jbnqXYlRfLoIOI1Eo0hg8saQIO6Xm26oszNwHJ/AEqdV8A58GDBwvH77BIvP3xHIinAJYxqt80rlbtt/DGQnbjjctdQirf6VfbadkHYKkrF182LHJHo/BPT/JgXB7L+exzz3fxs8TQlv4EXkgWpTq0mfJZ+1uxyXgIaOGuNobirTWenAsxbeCZwLtnvGRWxiVabVMS9yQ97rOeUhfrtvTBszi7DvPc41vVF2cr//jj/7b4GDhGp5a+FsBiddU42NjhOyI+VfoZ0oQM6L7kvYz5VAKwLd85+Pb3swwA65l8SZoiWXnprrg5V0POGVUSGs5G1TFXnqk0l2QFOllRWYh6khh3U8xZPIcWwTssmraJoXHhCs1RM6ll2IGeu0sPjQXetaBmLLkETqU+4anYr7lv5+QALfe12IdPjVElusl7UZ1SAiee5zJMe4ZczxJN+/6eptCXZLLKY6pN4DR1frXIiHfncbo5F9xSAqehudA3r1OdKen0UAKnX/1mHnbAecXS9SgPJviI9x7vvVUHqgAsnbl7HbGhb1x+c5OPI4Du+vX5Oa6cn1pr+RyySnDepRbCLKJZeHM8CMAMcIR1B568TnpkzJjFJeP8x/tbbsS0df/+/Q748U8LSxbJdhTDiIXXXUUdPHOsCpYzFvDI586duzPeaDcFsJyrJt5xQcWCduTY8YWEQFN5++jmzVn7JQuvK9QQgCV2VfwCCjl+hHeOmxPj/eLLL2fPacvbHnMtedFOrj6x1lgg+XMLY66u3wMMim82FF48eqx7h/D83XfzxFu5I5QEqEoAln7+8te/zdpPQarH/iIv5yt3rXhcwCiu9NRxHdY42DgC+JFYi/hbP8LILd+7QV8LYOnTx/3VV19tknmZOYvM8ajQOJCvy2GZ86kEYOl/6ncule9SAOxPfzYDNoARl5euAaQOgHAhBARxtAXfMR1lAYBxt24yhwrUYbnDXRC6J3/x1CZxfwKvPEuT18ituJTkxYFTzjulL4ET3xWBudeS87NzCZyQA33IUqyxEBfOH4ttlw9tpwmc+vqk/VK/Q3KAFrCu8RA3SBwxssciDPgU39SBd+rr3ap90fMuscwR7vL0M7/bPHHy5Kzt8+fPd+2KlrKFvk8mqzomZOLA0N3IZcXukoOZlXzq/GqREXy6JZX4aTaFfBO2xG/LvHadKc1t6iieu5TAiY0UdBZZasMMuvgLGYQOhA5M0YFqAEsnDgC08PQSEJBaWXzRPXVRx0cPy6T3VbpmAQ8wSYUyhg9osFDialpqn/ss5N1aBB2WL6xMJTpArZ6lABZ6Mtvquco/X9zYMY6pvDk4Y7MhlU36ewjA8j4cfIhfWRj1GxA35R/WEIAlbpQ+cMXNZTFOx6PfxESzQSD+cuXVa9ey8hkDYFlIuqyPnzw1a4uEVPSHRdEXHuItLQGf4k964DqM5VKAUvW8dMut2m6lV3+pd0MfIKRvzsp13tJrLPlY2sUn5TLn0xC/U75z8OzynfqtcxksXB9a60ANi8GSBRYat3gI7HgJSALMpu27Ncrr6xo6B72iF7gtJXkRcCotgt2qlSZwwjqq/jkaR31S4oLLsz9lziZ3S6ToVQIMFXPLvdSi1ddnX79DchDvHO0jXtKSNmQh70vgBEBNafUbd+zcUSbiD/fjWvohmazimHgfswROF+beVN07PnduS7fOnt2hczybOr+myog+fRNI79k9B3IJnKDjb+q8hlY6U5rb1OlL4MT/OuYbPJdiaMVnlAFmQgdCB8bowCQASxwhFooUqAFcbt66tfn8Hxfd2ty6mJ57KUZxr9Sits9CSBIcJdpRfZX//eGHzQ9u3Fhw31UfY/hQXT66WDtTsMM4ieF84cUjC//UoMU99s7du50Lqfhi0Q9gBdwI4OViR5EBlmXv8/UEwNLHFN7efufdDuzkgILG7KUW8Fib/X56DchS3LPGS0nyoStXr00Cr/ShWFGskGmf/Jb+cexJ7nnfPTY3ZN10nrF0psDM2yGxE/Xv3fu8t09ctdXup59+1tXFOqp71z8Y3kCgX8CQ9OXW7a2Y3BQgHT1+ouNHbVPyztCjnKWrlV7eB1jAXTZYiMUDVmh/xjWbGGTsJhux6lHyHok3hq+Uht/Lmk9D/E75zsHvmG/M2G9dTh7c02IRy2qpDvdxc00tjQDIV149s8P9N20DMJnSsQAlaRBWuLS+W5ZKC1QspyxgS4tgJV3KJXDirFOA88WNjU6+6p9+tTAmLlH3VbLZR7uqo0X/q6+e6TxFXjj84gwAuuUN+lKfPCv1O0YO4u0njz3eycKtrVwTu0tCHMXIlhI4IWdiNwW+NDbaYMy4mqsvlWkcci19n0zoYxXHBN/SdQeD3Ne7KcWaT5lfU2Sk94eOoufii3fuXhi6X+K3dl7T7xidhi/pXy6Bk5JeddbXxxfPrtX4ogzgEjoQOjBWByYBWDXOghS3XxbQLM6xaOjZwyjpEzdMkvGQeCV1F94tHhjnVszmiS4ukYXtmLYBD4BcrEhjrG3eJn3gHpRmMfY6XNfyBoCu5SXts/QbXSBpE/HJXJfq7cZ9Yk0Fgkj8M6VN/unyfuCZLL2A2nQRO6XdZdOkAFT94YL50tFjnb71WaRb6dXf1NK/GwC5se08jPmU48X53YvvXI4njllhwdiXhXZGd2htk/MXcQOumvtGB9hnITtrcw9c/7r+zY0TXvw8Ts82n/LJubWEmhD3WjOOXJ81/aZ85H4DsuGL2FKuc3V0rxRHDDDFNXqojVZ6+CjJRDxSrtqYnPfqa5snNfOrRkYLPB1a6zYL1qaAQeP3Ycxrvj0C1qXNrYXx7cH3JXgI4BQ6sFo60ARg42Wv1st+lN4XbrkCsGwQPEpjGxpLCYAO0el5K73aiXLv5r+yoOLad5Dfg6yPWFgBcQ9LFnvVr7uQlpLp9Mmglb6v7anPWnlqpZ/Kd9CN+/7J7fz8hQsrsUEc73Xcew05hZz2WgcCwMZO30Nb9O2msmMxBcASa7qb7a5CW60AtJV+FWT0qPOIt4tc9tKsvI/62LFc4VarGFHkkLp+LkMGe9Wvj2Uojtjr5q5b6XNttt5r5amVvpX/oC8v5AmnYH7iOuwZy0NmZZmFbEI2oQPjdCAAbADYlQSAxBMDYElidNAmeysAbaU/aPLer+Nd304w05fIab/y3sIXrtAC75Tr6+ceimVnr/p1WY1JpuP10+tW+rS93fjdylMr/W6MIdpYXHBy9vKlS5e6ucr/nJDRooxCJiGT0IHpOhAANgDsSv5jufzmW5s6puigfQCwvl3757+6vxOnTle/v1b6gybv/Tpe4j9J1sLZj/uVx2XwRfw7VjcSw+SyIS+jT9rcq359PIyZd05GWb8/9rqVfmw/NfVaeWqlr+E16o5fbAJaD+L3KXRkvI6ErEJWLToQADYA7KSFUIvSBW18tEIHQgdCB0IHQgdCB0IHQgdCB0IHpuhAANgAsAFgQwdCB0IHQgdCB0IHQgdCB0IHQgdCB1ZCBwLAhqKuhKJO2Z0JmtjVCx0IHQgdCB0IHQgdCB0IHQgdeLR0IABsANgAsKEDoQOhA6EDoQOhA6EDoQOhA6EDoQMroQMBYENRV0JRY+fs0do5i/cZ7zN0IHQgdCB0IHQgdCB0IHRgig78H8w2wM+xTZO9AAAAAElFTkSuQmCC;" vertex="1" parent="1">
          <mxGeometry x="-3460" y="350" width="332.39" height="100" as="geometry" />
        </mxCell>
        <mxCell id="YPNKjpNMcO8js8Rz8w9M-369" value="checkUpdateAndStorageCache(本地和内置jue)" style="endArrow=classic;html=1;rounded=0;exitX=1;exitY=0.5;exitDx=0;exitDy=0;" edge="1" parent="1">
          <mxGeometry width="50" height="50" relative="1" as="geometry">
            <mxPoint x="-3127.61" y="420" as="sourcePoint" />
            <mxPoint x="-2690.5000000000005" y="420" as="targetPoint" />
          </mxGeometry>
        </mxCell>
        <mxCell id="YPNKjpNMcO8js8Rz8w9M-370" value="&lt;div style=&quot;background-color:#2b2b2b;color:#a9b7c6;font-family:&#39;JetBrains Mono&#39;,monospace;font-size:10.5pt;&quot;&gt;&lt;pre&gt;&lt;br&gt;&lt;/pre&gt;&lt;/div&gt;" style="edgeLabel;html=1;align=center;verticalAlign=middle;resizable=0;points=[];" vertex="1" connectable="0" parent="YPNKjpNMcO8js8Rz8w9M-369">
          <mxGeometry x="-0.6263" y="3" relative="1" as="geometry">
            <mxPoint as="offset" />
          </mxGeometry>
        </mxCell>
        <mxCell id="YPNKjpNMcO8js8Rz8w9M-373" value="loadJueFile&lt;div&gt;读取本地和内置jue信息&lt;/div&gt;" style="endArrow=classic;html=1;rounded=0;exitX=1;exitY=0.25;exitDx=0;exitDy=0;" edge="1" parent="1" source="YPNKjpNMcO8js8Rz8w9M-368" target="YPNKjpNMcO8js8Rz8w9M-109">
          <mxGeometry x="-0.0017" width="50" height="50" relative="1" as="geometry">
            <mxPoint x="-3118" y="410" as="sourcePoint" />
            <mxPoint x="-2681" y="410" as="targetPoint" />
            <mxPoint as="offset" />
          </mxGeometry>
        </mxCell>
        <mxCell id="YPNKjpNMcO8js8Rz8w9M-374" value="&lt;div style=&quot;background-color:#2b2b2b;color:#a9b7c6;font-family:&#39;JetBrains Mono&#39;,monospace;font-size:10.5pt;&quot;&gt;&lt;pre&gt;&lt;br&gt;&lt;/pre&gt;&lt;/div&gt;" style="edgeLabel;html=1;align=center;verticalAlign=middle;resizable=0;points=[];" vertex="1" connectable="0" parent="YPNKjpNMcO8js8Rz8w9M-373">
          <mxGeometry x="-0.6263" y="3" relative="1" as="geometry">
            <mxPoint as="offset" />
          </mxGeometry>
        </mxCell>
        <mxCell id="YPNKjpNMcO8js8Rz8w9M-375" value="将本地和内置jue信息记录到&lt;div&gt;mJueInfos集合中&lt;/div&gt;" style="endArrow=classic;html=1;rounded=0;exitX=1.464;exitY=0.172;exitDx=0;exitDy=0;exitPerimeter=0;entryX=-0.445;entryY=0.159;entryDx=0;entryDy=0;entryPerimeter=0;" edge="1" parent="1" source="YPNKjpNMcO8js8Rz8w9M-110" target="YPNKjpNMcO8js8Rz8w9M-112">
          <mxGeometry x="-0.0017" width="50" height="50" relative="1" as="geometry">
            <mxPoint x="-2730" y="170" as="sourcePoint" />
            <mxPoint x="-2293" y="170" as="targetPoint" />
            <mxPoint as="offset" />
          </mxGeometry>
        </mxCell>
        <mxCell id="YPNKjpNMcO8js8Rz8w9M-376" value="&lt;div style=&quot;background-color:#2b2b2b;color:#a9b7c6;font-family:&#39;JetBrains Mono&#39;,monospace;font-size:10.5pt;&quot;&gt;&lt;pre&gt;&lt;br&gt;&lt;/pre&gt;&lt;/div&gt;" style="edgeLabel;html=1;align=center;verticalAlign=middle;resizable=0;points=[];" vertex="1" connectable="0" parent="YPNKjpNMcO8js8Rz8w9M-375">
          <mxGeometry x="-0.6263" y="3" relative="1" as="geometry">
            <mxPoint as="offset" />
          </mxGeometry>
        </mxCell>
      </root>
    </mxGraphModel>
  </diagram>
</mxfile>
